{"glyphs":{"0":{"ha":556,"x_min":0,"x_max":0,"o":"m 278 435 b 60 219 159 435 61 339 l 60 219 b 60 217 60 218 60 217 b 60 215 60 216 60 215 b 278 0 61 96 159 0 b 496 215 397 0 495 96 l 496 215 l 496 217 l 496 218 b 496 221 496 219 496 220 b 278 435 494 340 396 435 z m 278 393 b 454 219 374 393 453 316 l 454 217 l 454 215 b 278 42 453 119 374 42 b 101 215 181 42 102 119 l 101 217 l 101 218 b 278 393 102 316 181 393 z m 278 393 z "},"1":{"ha":556,"x_min":0,"x_max":0,"o":"m 273 0 l 474 0 b 495 21 485 0 495 10 b 474 42 495 32 485 42 l 298 42 l 298 609 b 298 615 298 611 298 613 b 297 617 297 615 297 616 b 297 618 297 617 297 618 l 297 619 b 294 622 296 620 295 621 l 294 623 b 291 627 293 624 292 626 l 290 627 b 287 629 289 628 288 629 l 287 629 b 285 630 286 630 286 630 l 285 630 b 283 631 284 630 284 631 b 277 632 281 632 279 632 l 81 632 b 60 611 70 632 60 622 b 81 590 60 600 70 590 l 256 590 l 256 42 l 81 42 b 60 21 70 42 60 32 b 81 0 60 10 70 0 z m 81 632 z "},"2":{"ha":556,"x_min":0,"x_max":0,"o":"m 278 632 b 60 414 158 632 60 535 b 79 393 60 404 69 394 b 102 414 91 392 102 402 b 278 590 102 513 180 590 b 453 414 375 590 453 513 b 474 393 453 403 463 393 b 495 414 485 393 495 403 b 278 632 495 535 398 632 z m 276 435 b 260 423 269 434 263 429 l 62 31 b 79 0 56 18 65 1 b 81 0 80 0 80 0 l 474 0 b 495 21 485 0 495 10 b 474 42 495 32 485 42 l 115 42 l 297 405 b 276 435 304 418 291 436 z m 276 435 z "},"3":{"ha":556,"x_min":0,"x_max":0,"o":"m 80 632 b 60 610 69 632 60 621 b 82 590 60 600 71 590 l 441 590 l 260 227 b 277 197 254 215 264 198 b 298 209 286 197 294 201 l 493 602 b 475 632 499 615 489 632 l 82 632 z m 80 239 b 61 218 70 238 61 228 b 279 0 61 97 158 0 b 496 218 398 0 496 97 b 475 239 496 229 486 239 b 454 218 464 239 454 229 b 279 42 454 119 376 42 b 102 218 180 42 102 119 b 80 239 102 230 91 240 z m 80 239 z "},"4":{"ha":556,"x_min":0,"x_max":0,"o":"m 496 25 l 496 615 b 475 636 496 626 486 636 b 454 615 464 636 454 626 l 454 242 l 114 242 l 296 606 b 275 636 303 619 290 638 b 259 625 269 635 262 631 l 62 230 b 78 200 55 218 65 201 b 80 200 79 200 80 200 l 454 200 l 454 25 b 472 4 454 15 462 5 b 496 25 484 2 496 13 z m 275 636 z "},"5":{"ha":556,"x_min":0,"x_max":0,"o":"m 80 632 b 60 611 70 632 60 622 l 60 414 b 80 393 59 403 69 393 b 101 414 91 392 101 403 l 101 590 l 475 590 b 496 611 486 590 496 600 b 475 632 496 622 486 632 z m 79 238 b 60 217 68 237 59 227 b 278 0 60 97 158 0 b 496 217 397 0 496 97 b 475 238 496 228 486 238 b 454 217 464 238 454 228 b 278 42 454 120 375 42 b 101 217 181 42 101 120 b 79 238 101 228 90 239 z m 79 238 z "},"6":{"ha":556,"x_min":0,"x_max":0,"o":"m 277 632 b 60 416 158 632 62 535 b 60 414 60 415 60 415 b 60 410 60 413 60 411 l 60 219 b 60 217 60 218 60 217 b 60 213 60 215 60 214 b 277 0 63 95 159 0 b 495 215 397 0 494 96 l 495 217 l 495 218 l 495 219 b 277 435 494 339 397 435 b 102 345 205 435 142 399 l 102 414 b 277 590 102 511 180 590 b 454 414 376 590 454 511 b 474 393 453 403 463 393 b 495 414 485 393 495 403 b 277 632 495 533 398 632 z m 277 393 b 454 217 376 393 454 315 b 454 215 453 216 453 216 b 277 42 453 119 375 42 b 102 217 180 42 102 120 b 277 393 102 315 180 393 z m 277 393 z "},"7":{"ha":556,"x_min":0,"x_max":0,"o":"m 80 3 b 99 12 87 2 95 6 l 492 603 b 475 635 500 615 490 635 l 82 635 b 61 614 71 635 61 625 b 82 593 61 603 71 593 l 436 593 l 64 35 b 80 3 56 23 65 4 z m 80 3 z "},"8":{"ha":556,"x_min":0,"x_max":0,"o":"m 277 672 b 60 454 158 672 60 575 b 79 433 60 444 69 434 b 102 454 91 432 102 442 b 277 631 102 553 180 631 b 453 454 376 631 453 553 b 474 433 453 443 463 433 b 495 454 485 433 495 443 b 277 672 495 575 398 672 z m 277 435 b 60 219 158 435 62 339 l 60 219 l 60 217 l 60 215 b 277 0 61 96 158 0 b 495 217 398 0 495 97 b 277 435 495 337 398 435 z m 277 393 b 453 219 375 393 452 316 l 453 217 l 453 215 b 277 42 453 119 375 42 b 102 215 181 42 103 119 b 102 217 102 215 102 216 b 102 218 102 217 102 218 b 277 393 103 316 181 393 z m 277 393 z "},"9":{"ha":556,"x_min":0,"x_max":0,"o":"m 279 632 b 60 416 159 632 62 536 b 60 414 60 416 60 415 l 60 412 b 279 197 61 293 158 197 b 454 287 351 197 414 233 l 454 220 l 454 218 l 454 216 b 279 42 453 118 375 42 b 102 218 180 42 102 119 b 81 239 102 229 92 239 b 60 218 70 239 60 229 b 279 0 60 97 158 0 b 495 218 398 0 495 97 l 495 414 b 279 632 495 535 398 632 z m 279 590 b 454 414 376 590 454 513 l 454 412 b 279 239 453 316 375 239 b 102 412 180 239 103 316 b 102 414 102 413 102 413 b 102 416 102 415 102 415 b 279 590 103 513 180 590 z m 279 590 z "}," ":{"ha":208,"x_min":0,"x_max":0,"o":""},"!":{"ha":556,"x_min":0,"x_max":0,"o":"m 277 1027 b 258 1006 266 1026 257 1016 l 258 415 b 276 394 257 405 266 395 b 299 415 288 393 300 403 l 299 1006 b 277 1027 300 1017 288 1028 z m 278 239 b 159 119 212 239 159 185 b 278 0 159 54 212 0 b 397 119 344 0 397 54 b 278 239 397 185 344 239 z m 278 197 z "},"\"":{"ha":556,"x_min":0,"x_max":0,"o":"m 82 1025 b 64 995 68 1025 58 1008 l 260 605 b 261 603 260 604 261 603 l 261 602 b 266 596 263 600 264 598 b 266 596 266 596 266 596 b 267 595 267 595 267 595 b 268 594 267 595 267 595 b 269 593 268 594 268 594 b 269 593 269 593 269 593 b 273 592 270 593 272 592 b 273 591 273 592 273 591 b 275 591 274 591 274 591 b 280 590 276 591 278 590 l 281 590 b 286 591 283 590 284 591 b 287 591 286 591 287 591 b 288 592 288 591 288 592 b 289 592 288 592 289 592 b 301 607 295 595 300 600 l 495 995 b 485 1023 500 1005 495 1018 b 457 1014 476 1028 462 1024 l 280 658 l 101 1014 b 82 1025 98 1021 90 1026 z m 259 393 l 259 21 b 280 0 259 10 269 0 b 301 21 291 0 301 10 l 301 196 l 476 196 b 497 217 487 196 497 206 b 476 238 497 228 487 238 l 301 238 l 301 393 l 476 393 b 497 414 487 393 497 403 b 476 435 497 425 487 435 l 285 435 b 276 435 282 436 279 436 l 83 435 b 80 435 82 435 81 435 b 58 415 69 436 59 426 b 79 393 58 404 68 394 b 83 393 80 393 82 393 z m 80 435 z "},"#":{"ha":556,"x_min":0,"x_max":0,"o":"m 496 414 l 496 1004 b 475 1026 496 1016 486 1026 b 455 1004 464 1026 454 1016 l 455 632 l 102 632 l 102 1004 b 79 1025 102 1016 91 1026 b 60 1004 69 1025 60 1015 l 60 414 b 78 393 60 404 68 395 b 102 414 90 392 102 402 l 102 591 l 455 591 l 455 414 b 473 393 454 404 463 395 b 496 414 485 392 496 403 z m 475 239 l 274 239 l 81 239 b 59 219 70 240 60 230 b 79 198 59 209 68 198 b 81 198 80 198 80 198 l 257 198 l 257 21 b 276 0 257 11 266 1 b 299 21 288 -1 299 9 l 299 198 l 475 198 b 496 218 486 197 496 207 b 475 239 496 229 486 239 z "},"$":{"ha":556,"x_min":0,"x_max":0,"o":"m 275 1025 b 273 1025 275 1025 274 1025 b 60 808 155 1023 60 926 l 60 611 b 256 394 60 498 146 405 l 256 43 b 102 216 169 53 102 126 b 81 237 102 227 92 237 b 60 216 70 237 60 227 b 272 0 60 98 155 2 l 273 0 b 277 -1 274 -1 275 -1 b 281 0 278 -1 280 -1 b 283 0 282 0 283 0 b 495 216 401 3 495 99 l 495 218 l 495 414 l 495 415 l 495 416 b 298 631 494 527 408 620 l 298 982 b 453 808 386 972 453 898 b 474 787 453 797 463 787 b 495 808 485 787 495 797 b 282 1025 495 926 400 1022 b 275 1025 280 1025 277 1025 z m 256 982 l 256 613 l 256 607 l 256 436 b 102 609 170 446 103 520 l 102 611 b 102 614 102 612 102 613 l 102 806 l 102 808 l 102 809 b 256 982 103 899 170 972 z m 298 589 b 453 414 386 578 453 504 b 453 412 453 413 453 412 l 453 218 l 453 216 b 453 215 453 216 453 215 b 298 43 453 125 386 53 l 298 409 l 298 418 z m 298 589 z "},"%":{"ha":556,"x_min":0,"x_max":0,"o":"m 81 1025 b 60 1005 70 1025 60 1016 b 81 984 60 994 70 984 l 257 984 l 257 809 b 275 788 257 799 265 789 b 299 809 287 786 299 797 l 299 984 l 475 984 b 496 1005 486 984 496 994 b 475 1025 496 1016 486 1025 z m 78 830 b 62 800 65 828 56 811 l 255 415 l 167 239 l 81 239 b 59 219 70 240 60 230 b 79 198 59 209 68 198 b 81 198 79 198 80 198 l 146 198 l 62 30 b 79 0 56 18 65 1 b 99 12 87 -1 96 4 l 192 198 l 363 198 l 456 12 b 474 0 460 5 467 0 b 493 30 488 -1 500 17 l 410 198 l 475 198 b 496 218 486 197 496 207 b 475 239 496 229 486 239 l 389 239 l 301 415 l 493 800 b 485 830 500 810 496 825 b 456 818 475 835 460 829 l 278 461 l 99 818 b 78 830 96 826 86 831 z m 278 368 l 342 239 l 214 239 z m 278 368 z "},"&":{"ha":556,"x_min":0,"x_max":0,"o":"m 82 435 b 61 414 71 435 61 425 b 82 393 61 403 71 393 l 258 393 l 258 21 b 276 0 258 11 266 1 b 300 21 288 -1 300 9 l 300 393 l 475 393 b 496 414 486 393 496 403 b 475 435 496 425 486 435 l 281 435 l 277 435 z m 82 435 z m 61 1000 l 61 618 b 70 594 58 609 61 599 l 70 594 b 71 593 70 593 71 593 b 80 590 74 591 77 590 b 86 591 82 590 84 590 l 475 591 b 496 611 486 590 496 600 b 475 632 496 622 486 632 l 102 632 l 102 788 l 279 788 b 300 809 290 788 300 798 b 279 829 300 820 290 830 l 102 829 l 102 984 l 475 984 b 496 1005 486 984 496 994 b 475 1025 496 1016 486 1025 l 82 1025 l 80 1025 b 74 1024 78 1025 76 1025 b 68 1021 72 1023 70 1022 b 67 1019 68 1020 67 1020 b 66 1018 66 1019 66 1019 l 65 1018 b 63 1015 65 1017 64 1016 l 63 1014 b 62 1013 63 1014 63 1013 l 62 1012 b 61 1011 62 1012 62 1011 l 61 1010 b 61 1000 60 1007 60 1004 z m 80 1025 z "},"'":{"ha":556,"x_min":0,"x_max":0,"o":"m 376 1025 b 256 907 311 1025 256 972 b 376 787 256 840 311 787 b 388 788 380 787 384 788 l 72 630 b 60 608 64 626 59 616 b 79 590 62 599 70 591 b 91 592 83 590 87 590 l 484 790 b 493 818 494 794 498 808 b 466 827 489 827 475 832 l 464 826 b 495 907 483 848 495 876 b 376 1025 495 972 441 1025 z "},"(":{"ha":556,"x_min":0,"x_max":0,"o":"m 277 1025 b 60 808 157 1025 60 928 b 60 805 60 807 60 806 l 60 21 b 60 17 60 20 60 18 b 275 -197 62 -100 158 -196 l 277 -197 l 279 -197 l 281 -197 l 474 -197 b 495 -176 485 -197 495 -187 b 474 -156 495 -165 485 -155 l 277 -156 b 102 21 180 -156 102 -76 l 102 808 b 275 983 102 905 179 982 l 277 983 l 474 983 b 495 1004 485 983 495 993 b 474 1025 495 1015 485 1025 z m 277 1025 z "},")":{"ha":556,"x_min":0,"x_max":0,"o":"m 81 1025 b 60 1004 70 1025 60 1015 b 81 983 60 993 70 983 l 279 983 l 280 983 b 454 808 376 983 454 905 b 454 807 454 808 454 808 l 454 21 b 454 19 454 20 454 20 b 279 -156 453 -77 375 -156 l 81 -156 b 60 -176 70 -155 60 -165 b 81 -197 60 -187 70 -197 l 277 -197 l 279 -197 b 282 -197 280 -197 281 -197 b 495 19 399 -195 494 -99 l 495 21 l 495 22 l 495 806 l 495 808 l 495 810 l 495 810 b 279 1025 494 929 398 1025 z m 81 1025 z "},"*":{"ha":556,"x_min":0,"x_max":0,"o":"m 82 1025 b 64 995 68 1025 58 1008 l 260 605 b 261 603 260 604 261 603 l 261 602 b 266 596 263 600 264 598 b 266 596 266 596 266 596 b 267 595 267 595 267 595 b 268 594 267 595 267 595 b 269 593 268 594 268 594 b 269 593 269 593 269 593 b 273 592 270 593 272 592 b 273 591 273 592 273 591 b 275 591 274 591 274 591 b 280 590 276 591 278 590 l 281 590 b 286 591 283 590 284 591 b 287 591 286 591 287 591 b 288 592 288 591 288 592 b 289 592 288 592 289 592 b 301 607 295 595 300 600 l 495 995 b 485 1023 500 1005 495 1018 b 457 1014 476 1028 462 1024 l 280 658 l 101 1014 b 82 1025 98 1021 90 1026 z m 259 393 l 259 21 b 280 0 259 10 269 0 b 301 21 291 0 301 10 l 301 196 l 476 196 b 497 217 487 196 497 206 b 476 238 497 228 487 238 l 301 238 l 301 393 l 476 393 b 497 414 487 393 497 403 b 476 435 497 425 487 435 l 285 435 b 276 435 282 436 279 436 l 83 435 b 80 435 82 435 81 435 b 58 415 69 436 59 426 b 79 393 58 404 68 394 b 83 393 80 393 82 393 z m 80 435 z "},"+":{"ha":556,"x_min":0,"x_max":0,"o":"m 277 435 b 258 414 267 434 258 425 l 258 239 l 81 239 b 60 219 71 240 60 230 b 79 198 59 209 69 198 b 81 198 80 197 81 197 l 258 198 l 258 21 b 276 0 258 11 266 1 b 299 21 288 -1 300 9 l 299 198 l 475 198 b 496 218 486 197 496 207 b 475 239 496 229 486 239 l 299 239 l 299 414 b 277 435 300 426 288 436 z m 277 435 z "},",":{"ha":556,"x_min":0,"x_max":0,"o":"m 376 239 b 256 119 310 239 256 185 b 376 0 256 54 310 0 b 388 1 380 0 384 0 l 72 -158 b 61 -180 64 -162 59 -171 b 78 -197 62 -189 70 -196 b 91 -195 83 -198 87 -197 l 484 2 b 493 30 493 7 498 20 b 465 40 488 40 475 44 l 463 39 b 495 119 483 60 495 88 b 376 239 495 185 441 239 z m 376 239 z "},"-":{"ha":556,"x_min":0,"x_max":0,"o":"m 79 239 b 82 239 80 239 81 239 l 475 239 b 496 218 486 239 496 229 b 475 197 496 207 486 197 l 82 197 b 80 197 81 197 80 197 b 60 218 69 198 60 207 b 79 239 59 228 69 238 z "},".":{"ha":556,"x_min":0,"x_max":0,"o":"m 278 239 b 158 119 212 239 158 185 b 278 0 158 54 212 0 b 397 119 343 0 397 54 b 278 239 397 185 343 239 z "},"/":{"ha":556,"x_min":0,"x_max":0,"o":"m 79 0 b 100 12 88 -1 96 4 l 493 799 b 484 827 498 809 493 823 b 456 818 474 832 461 828 l 63 30 b 79 0 56 18 66 1 z m 79 0 z "},":":{"ha":556,"x_min":0,"x_max":0,"o":"m 278 632 b 158 512 212 632 158 578 b 278 393 158 447 212 393 b 397 512 343 393 397 447 b 278 632 397 578 343 632 z m 278 239 b 158 119 212 239 158 185 b 278 0 158 54 212 0 b 397 119 343 0 397 54 b 278 239 397 185 343 239 z "},";":{"ha":556,"x_min":0,"x_max":0,"o":"m 375 632 b 256 512 309 632 256 578 b 375 393 256 447 309 393 b 494 512 441 393 494 447 b 375 632 494 578 441 632 z m 376 239 b 256 119 310 239 256 185 b 376 0 256 54 310 0 b 388 1 380 0 384 0 l 72 -158 b 61 -180 64 -162 59 -171 b 78 -197 62 -189 70 -196 b 91 -195 83 -198 87 -197 l 484 2 b 493 30 493 7 498 20 b 465 40 488 40 475 44 l 463 39 b 495 119 483 60 495 88 b 376 239 495 185 441 239 z m 376 239 z "},"<":{"ha":556,"x_min":0,"x_max":0,"o":"m 472 830 b 459 823 467 829 463 827 l 66 429 b 66 399 58 421 58 407 l 459 7 b 473 0 463 3 468 0 b 494 13 482 0 490 5 b 489 36 497 21 495 30 l 110 415 l 489 794 b 493 818 495 800 497 810 b 472 830 489 825 481 830 z "},"=":{"ha":556,"x_min":0,"x_max":0,"o":"m 79 239 b 82 239 80 239 81 239 l 475 239 b 496 218 486 239 496 229 b 475 197 496 207 486 197 l 82 197 b 80 197 81 197 80 197 b 60 218 69 198 60 207 b 79 239 59 228 69 238 z m 79 42 b 60 21 69 41 59 31 b 80 0 60 10 69 0 b 82 0 80 0 81 0 l 475 0 b 496 21 486 0 496 10 b 475 42 496 32 486 42 l 82 42 b 79 42 81 42 80 42 z m 79 42 z "},">":{"ha":556,"x_min":0,"x_max":0,"o":"m 84 830 b 96 823 88 829 93 827 l 489 429 b 489 399 497 421 497 407 l 96 7 b 82 0 93 3 88 0 b 62 13 74 0 65 5 b 67 36 59 21 61 30 l 446 415 l 67 794 b 62 818 61 800 59 810 b 84 830 66 825 75 830 z "},"?":{"ha":556,"x_min":0,"x_max":0,"o":"m 266 1026 b 60 808 151 1021 60 924 b 79 788 60 798 69 789 b 102 808 91 786 102 797 b 277 985 102 905 180 985 b 453 808 376 985 453 905 b 453 805 453 807 453 806 l 453 611 l 453 609 b 277 436 453 513 375 436 b 254 417 266 438 255 429 b 273 394 252 406 262 395 b 277 394 274 394 276 394 b 495 609 397 394 494 490 b 495 611 495 610 495 610 l 495 613 l 495 806 b 495 808 495 807 495 808 l 495 810 l 495 810 b 277 1026 494 929 397 1026 b 266 1026 273 1026 270 1027 z m 273 239 b 153 119 207 239 153 185 b 273 0 153 54 207 0 b 391 119 338 0 391 54 b 273 239 391 185 338 239 z m 273 42 z m 273 197 z "},"@":{"ha":556,"x_min":0,"x_max":0,"o":"m 267 1027 b 60 809 152 1021 60 925 l 60 617 b 60 605 59 613 59 609 l 60 416 b 78 394 60 405 68 396 b 102 416 90 393 102 404 l 102 591 l 454 591 l 454 416 b 473 394 454 405 463 396 b 496 416 485 393 496 404 l 496 609 b 496 613 496 610 496 612 l 496 809 b 278 1027 496 928 398 1027 b 267 1027 274 1027 271 1027 z m 278 985 b 454 809 375 985 454 906 b 454 805 454 807 454 806 l 454 632 l 102 632 l 102 807 l 102 809 l 102 810 b 278 985 102 906 182 985 z m 278 240 b 276 239 278 239 277 239 l 274 239 l 81 239 b 59 219 70 240 60 230 b 79 198 59 209 68 198 l 81 198 l 257 198 l 257 21 b 275 0 257 11 265 1 b 299 21 287 -2 299 9 l 299 198 l 475 198 b 496 218 486 197 496 207 b 475 239 496 229 486 239 l 281 239 b 278 240 280 239 279 239 z m 278 240 z "},"A":{"ha":556,"x_min":0,"x_max":0,"o":"m 497 21 l 497 805 b 497 807 497 806 497 807 l 497 809 b 497 811 497 810 497 810 b 280 1025 495 930 398 1024 l 279 1025 b 267 1025 275 1025 271 1026 b 61 810 154 1020 62 926 l 61 809 l 61 807 l 61 806 l 61 21 b 81 0 60 10 70 0 b 102 21 92 0 102 10 l 102 393 l 455 393 l 455 21 b 476 0 455 10 465 0 b 497 21 487 0 497 10 z m 279 984 b 455 807 376 984 455 906 l 455 806 l 455 435 l 102 435 l 102 805 b 102 807 102 806 102 807 l 102 809 b 279 984 103 907 182 984 z m 279 984 z "},"B":{"ha":556,"x_min":0,"x_max":0,"o":"m 79 1025 b 60 1004 69 1024 60 1015 l 60 807 l 60 805 l 60 613 l 60 611 l 60 414 l 60 412 l 60 219 l 60 217 l 60 21 b 80 0 60 10 70 0 b 102 21 92 -1 102 10 l 102 89 b 277 0 141 35 205 0 b 495 214 397 0 494 96 l 495 215 b 495 217 495 215 495 216 b 495 220 495 218 495 219 l 495 412 l 495 414 l 495 416 b 495 418 495 416 495 417 b 472 512 494 452 486 484 b 495 609 486 541 495 574 b 495 611 495 610 495 610 b 495 615 495 612 495 613 l 495 805 b 495 807 495 806 495 806 l 495 808 b 495 811 495 809 495 810 b 277 1025 493 930 397 1025 b 102 936 205 1025 141 990 l 102 1004 b 79 1025 102 1016 91 1026 z m 277 983 b 453 807 376 983 453 906 l 453 806 l 453 611 l 453 610 b 444 554 453 590 450 571 b 277 632 404 601 344 632 b 111 554 210 632 151 602 b 102 611 105 572 102 591 b 102 612 102 612 102 612 l 102 807 b 277 983 102 906 180 983 z m 277 590 b 424 512 339 590 392 559 b 277 435 392 465 339 435 b 132 512 216 435 163 465 b 277 590 163 559 216 590 z m 444 471 b 453 414 450 453 453 434 l 453 413 l 453 219 l 453 217 l 453 216 b 277 42 453 119 375 42 b 102 217 180 42 102 120 b 102 218 102 217 102 218 l 102 414 b 111 470 102 434 105 453 b 277 393 151 423 211 393 b 444 471 344 393 404 423 z m 444 471 z "},"C":{"ha":556,"x_min":0,"x_max":0,"o":"m 276 1025 b 273 1025 275 1025 274 1025 b 60 809 156 1022 62 927 l 60 809 l 60 807 l 60 805 l 60 217 l 60 215 b 276 0 61 97 157 1 b 278 0 277 0 278 0 b 280 0 279 0 280 0 l 474 0 b 495 21 485 0 495 10 b 474 42 495 32 485 42 l 280 42 l 278 42 l 276 42 b 102 217 178 43 102 120 l 102 218 l 102 807 l 102 808 b 274 983 103 905 178 981 b 278 983 276 983 277 983 l 474 983 b 495 1004 485 983 495 993 b 474 1025 495 1015 485 1025 l 278 1025 b 276 1025 277 1025 276 1025 z m 276 1025 z "},"D":{"ha":556,"x_min":0,"x_max":0,"o":"m 79 1025 b 61 995 65 1025 55 1008 l 61 28 b 73 2 58 18 63 6 l 73 1 l 74 1 b 76 1 74 1 75 1 l 76 1 b 81 0 78 0 80 0 b 86 0 83 0 84 0 l 279 0 b 281 0 280 0 280 0 l 281 0 b 496 215 399 1 495 97 b 496 217 496 215 496 216 b 496 220 496 218 496 219 l 496 805 b 496 807 496 806 496 806 l 496 808 b 496 811 496 809 496 810 b 281 1025 494 929 399 1024 b 279 1025 281 1025 280 1025 l 87 1025 b 81 1025 85 1025 83 1025 l 80 1025 z m 103 983 l 279 983 b 454 807 376 983 454 906 l 454 806 l 454 217 l 454 216 b 279 42 454 119 376 42 l 103 42 z m 103 983 z "},"E":{"ha":556,"x_min":0,"x_max":0,"o":"m 61 995 l 61 28 b 72 2 57 18 63 6 b 73 1 73 2 73 1 l 73 1 b 75 1 74 1 74 1 l 75 1 b 81 0 77 0 79 0 b 85 0 82 0 84 0 l 476 0 b 497 21 487 0 497 10 b 476 42 497 32 487 42 l 102 42 l 102 393 l 279 393 b 300 414 290 393 300 403 b 279 435 300 425 290 435 l 102 435 l 102 983 l 476 983 b 497 1004 487 983 497 993 b 476 1025 497 1015 487 1025 l 86 1025 b 80 1025 84 1025 82 1025 b 78 1025 80 1025 79 1025 b 61 995 65 1025 55 1008 z m 78 1025 z "},"F":{"ha":556,"x_min":0,"x_max":0,"o":"m 61 996 l 61 21 b 81 0 60 10 70 0 b 102 21 92 0 102 10 l 102 393 l 279 393 b 300 414 290 393 300 403 b 279 435 300 425 290 435 l 102 435 l 102 984 l 476 984 b 497 1005 487 984 497 993 b 476 1025 497 1016 487 1026 l 86 1025 b 80 1026 84 1026 82 1026 b 78 1026 80 1026 79 1026 b 61 996 65 1025 55 1008 z m 78 1026 z "},"G":{"ha":556,"x_min":0,"x_max":0,"o":"m 274 1025 b 272 1025 274 1025 273 1025 b 60 807 155 1022 60 926 b 60 803 60 806 60 804 l 60 217 b 60 213 60 215 60 214 b 277 0 62 95 159 0 b 279 0 278 0 278 0 l 470 0 b 474 0 471 0 472 0 b 484 2 477 0 481 1 b 487 5 485 3 486 4 b 489 6 488 5 488 5 b 489 6 489 6 489 6 b 490 7 489 6 490 7 l 491 8 b 492 9 491 8 491 9 l 492 9 b 493 10 492 9 492 10 l 493 11 b 494 13 493 11 493 12 l 494 13 b 494 14 494 13 494 14 l 494 15 l 495 16 l 495 17 b 495 18 495 17 495 18 b 495 25 495 21 495 23 l 495 412 b 494 420 495 414 495 417 b 494 422 494 421 494 421 b 493 424 493 422 493 423 b 492 426 493 424 492 425 b 491 427 492 426 491 427 b 489 429 490 428 490 428 b 488 430 489 429 488 430 b 486 431 487 431 487 431 b 485 433 486 432 485 432 l 484 433 b 483 433 484 433 483 433 l 482 433 b 481 434 482 434 481 434 l 480 434 b 470 435 477 435 474 435 l 277 435 b 253 416 266 436 255 427 b 273 393 252 405 262 394 b 277 393 274 393 276 393 l 453 393 l 453 42 l 279 42 b 277 42 278 42 278 42 b 102 217 180 42 102 120 l 102 807 b 273 983 102 904 178 981 b 277 983 274 983 276 983 l 474 983 b 495 1004 485 983 495 993 b 474 1025 495 1015 485 1025 l 277 1025 b 274 1025 276 1025 275 1025 z m 274 1025 z "},"H":{"ha":556,"x_min":0,"x_max":0,"o":"m 80 1026 b 61 1005 70 1025 61 1015 l 61 424 b 61 405 58 418 58 411 l 61 21 b 82 0 61 10 71 0 b 103 21 93 0 103 10 l 103 393 l 454 393 l 454 21 b 475 0 454 10 464 0 b 496 21 486 0 496 10 l 496 412 b 496 418 496 414 496 416 l 496 1005 b 475 1026 496 1016 486 1026 b 454 1005 464 1026 454 1016 l 454 435 l 103 435 l 103 1005 b 80 1026 103 1016 92 1027 z m 80 1026 z "},"I":{"ha":556,"x_min":0,"x_max":0,"o":"m 83 0 l 476 0 b 497 21 487 0 497 10 b 476 42 497 32 487 42 l 301 42 l 301 983 l 476 983 b 497 1004 487 983 497 993 b 476 1025 497 1015 487 1025 l 83 1025 b 80 1025 82 1025 81 1025 b 58 1005 69 1026 59 1016 b 79 983 58 994 68 984 b 83 983 80 983 82 983 l 259 983 l 259 42 l 83 42 b 61 22 72 42 62 33 b 81 0 61 11 70 1 z m 80 1025 z "},"J":{"ha":556,"x_min":0,"x_max":0,"o":"m 80 1025 b 58 1005 69 1026 59 1016 b 79 983 58 994 68 984 b 83 983 80 983 82 983 l 259 983 l 259 219 l 259 217 l 259 215 b 83 42 258 119 179 42 b 61 22 72 42 62 33 b 81 0 61 11 70 1 l 83 0 b 301 217 202 0 301 97 l 301 218 l 301 983 l 476 983 b 497 1004 487 983 497 993 b 476 1025 497 1015 487 1025 l 285 1025 b 276 1025 282 1026 279 1026 l 83 1025 b 80 1025 82 1025 81 1025 z m 80 1025 z "},"K":{"ha":556,"x_min":0,"x_max":0,"o":"m 79 1026 b 59 1004 68 1025 59 1015 l 59 219 b 59 215 59 217 59 216 l 59 21 b 80 0 59 10 69 0 b 101 21 91 0 101 10 l 101 212 l 274 557 l 455 15 b 475 0 458 6 466 0 b 495 28 488 0 499 15 l 300 609 l 493 995 b 485 1025 499 1005 495 1019 b 456 1014 475 1030 461 1024 l 263 627 b 257 615 259 624 257 620 l 101 305 l 101 1005 b 79 1026 101 1016 90 1027 z m 79 1026 z "},"L":{"ha":556,"x_min":0,"x_max":0,"o":"m 79 1026 b 60 1004 69 1025 60 1015 l 60 28 b 69 4 57 19 61 9 b 69 3 69 4 69 4 b 70 3 70 3 70 3 b 71 2 71 3 71 3 b 74 1 72 2 73 1 l 75 1 b 81 0 77 0 79 0 b 85 0 82 0 84 0 l 475 0 b 496 21 486 0 496 10 b 475 42 496 32 486 42 l 102 42 l 102 1004 b 79 1026 102 1016 91 1027 z m 79 1026 z "},"M":{"ha":556,"x_min":0,"x_max":0,"o":"m 79 1026 b 71 1023 76 1025 73 1025 b 70 1023 71 1023 71 1023 b 67 1020 69 1022 68 1021 b 66 1020 67 1020 66 1020 l 66 1019 b 65 1018 65 1019 65 1018 b 64 1017 64 1018 64 1018 b 63 1016 64 1017 63 1016 b 62 1014 63 1015 62 1015 l 62 1014 b 61 1013 62 1014 62 1013 l 61 1012 b 61 1011 61 1012 61 1011 b 60 1010 61 1011 61 1010 b 60 1009 60 1010 60 1009 b 60 1007 60 1008 60 1007 l 60 1006 l 60 1004 b 60 1002 60 1004 60 1003 l 60 21 b 80 0 60 10 69 0 b 101 21 91 0 102 10 l 101 876 l 257 411 b 260 403 257 409 258 406 b 260 402 260 403 260 403 b 264 399 261 401 262 400 b 265 398 264 398 264 398 l 265 397 l 266 396 b 267 396 267 396 267 396 b 268 395 267 396 268 396 b 269 395 268 395 269 395 b 270 395 269 395 269 395 b 275 393 271 394 273 393 l 275 393 l 276 393 l 277 393 l 278 393 l 279 393 b 282 393 280 393 281 393 b 287 395 284 394 286 394 b 288 396 288 395 288 396 b 290 397 289 396 289 396 b 294 400 291 398 293 399 b 295 402 294 401 294 401 b 298 407 296 403 297 405 l 298 409 b 299 411 298 409 299 410 l 454 876 l 454 21 b 475 0 454 10 464 0 b 496 21 486 0 496 10 l 496 1003 b 496 1006 496 1004 496 1005 b 482 1024 495 1014 490 1022 b 460 1020 475 1027 466 1025 b 459 1018 460 1019 460 1019 b 458 1017 459 1018 458 1017 b 457 1015 458 1016 457 1016 b 456 1014 457 1015 456 1014 b 456 1013 456 1014 456 1013 l 456 1013 b 455 1011 456 1012 455 1012 l 455 1011 l 278 479 l 101 1007 b 100 1012 101 1009 101 1010 b 79 1026 97 1021 88 1026 z m 79 1026 z "},"N":{"ha":556,"x_min":0,"x_max":0,"o":"m 80 1026 b 78 1025 79 1026 79 1025 b 70 1023 75 1025 73 1024 b 70 1022 70 1022 70 1022 b 67 1020 69 1021 68 1021 l 67 1020 b 66 1018 66 1019 66 1019 b 64 1017 65 1018 65 1017 b 63 1015 64 1016 64 1016 b 63 1015 63 1015 63 1015 b 62 1013 63 1014 62 1014 b 62 1013 62 1013 62 1013 b 61 1011 62 1012 62 1012 b 61 1010 61 1011 61 1010 b 61 1009 61 1010 61 1010 l 61 1009 b 60 1007 61 1008 61 1008 l 60 1007 b 60 1005 60 1006 60 1006 l 60 1004 b 60 1003 60 1004 60 1004 l 60 21 b 81 0 60 10 70 0 b 102 21 92 0 102 10 l 102 896 l 454 16 b 455 14 454 15 455 14 b 456 12 455 13 455 13 l 456 12 b 457 10 456 11 456 11 b 457 9 457 10 457 9 l 458 8 b 458 8 458 8 458 8 b 459 7 458 8 459 7 l 459 7 b 460 5 460 6 460 6 l 461 5 b 462 4 461 5 462 5 l 463 3 l 464 3 l 464 3 b 466 2 465 2 465 2 l 466 2 b 467 1 466 1 467 1 l 468 1 b 469 0 469 1 469 1 l 470 0 l 472 0 l 472 0 l 474 0 l 474 0 l 474 0 b 482 1 477 0 480 0 b 484 2 483 2 483 2 b 484 2 484 2 484 2 l 486 3 b 486 3 486 3 486 3 b 488 5 487 4 487 4 l 488 5 b 489 6 488 5 489 6 l 489 6 l 491 7 l 491 8 b 491 9 491 8 491 8 b 492 9 492 9 492 9 b 493 11 492 10 493 10 b 493 11 493 11 493 11 b 494 13 493 12 494 12 l 494 13 l 494 15 l 494 15 l 494 15 l 495 17 b 495 19 495 17 495 18 l 495 19 b 495 21 495 20 495 20 b 495 23 495 21 495 22 l 495 1005 b 474 1026 495 1016 485 1026 b 453 1005 463 1026 453 1016 l 453 130 l 101 1010 b 101 1012 101 1011 101 1012 b 100 1013 101 1012 100 1013 b 98 1017 100 1014 99 1015 b 95 1021 97 1018 96 1020 b 94 1021 95 1021 94 1021 b 93 1022 94 1021 94 1022 b 80 1026 89 1025 84 1026 z m 80 1026 z "},"O":{"ha":556,"x_min":0,"x_max":0,"o":"m 267 1025 b 60 809 152 1019 62 925 l 60 809 l 60 807 l 60 806 l 60 219 l 60 217 l 60 215 b 278 0 61 96 158 0 b 495 215 397 0 494 96 l 495 217 b 495 220 495 218 495 219 l 495 805 l 495 807 b 495 810 495 808 495 809 b 278 1025 493 930 397 1025 b 267 1025 275 1025 271 1025 z m 278 983 b 453 807 376 983 453 906 l 453 217 b 278 42 453 120 376 42 b 102 215 181 42 103 118 b 102 217 102 215 102 216 l 102 218 l 102 805 b 102 807 102 806 102 806 l 102 808 b 278 983 103 906 180 983 z m 278 983 z "},"P":{"ha":556,"x_min":0,"x_max":0,"o":"m 79 1027 b 60 1006 68 1026 59 1016 l 60 809 l 60 808 l 60 614 b 60 611 60 613 60 612 l 60 21 b 78 0 59 11 68 1 b 101 21 90 -2 102 9 l 101 485 b 278 395 141 430 206 395 b 496 609 397 395 495 491 b 496 611 496 610 496 611 b 496 615 496 613 496 614 l 496 807 b 496 809 496 807 496 808 b 496 810 496 809 496 810 b 496 813 496 811 496 812 b 278 1027 494 931 396 1027 b 101 936 205 1027 141 991 l 101 1006 b 79 1027 102 1018 90 1028 z m 278 985 b 454 809 375 985 454 906 l 454 807 l 454 611 l 454 610 b 278 436 453 514 374 436 b 101 611 181 436 101 515 l 101 613 l 101 807 b 101 809 101 807 101 808 b 278 985 101 906 181 985 z m 278 985 z "},"Q":{"ha":556,"x_min":0,"x_max":0,"o":"m 267 1025 b 60 809 152 1019 62 925 l 60 809 l 60 807 l 60 806 l 60 219 l 60 217 l 60 215 b 278 0 61 96 158 0 b 430 62 338 0 391 24 l 456 12 b 473 0 459 5 466 0 b 493 30 488 -1 500 17 l 459 98 b 495 215 482 131 495 171 l 495 217 b 495 220 495 218 495 219 l 495 805 l 495 807 b 495 810 495 808 495 809 b 278 1025 493 930 397 1025 b 267 1025 275 1025 271 1025 z m 437 142 l 102 814 b 278 983 106 909 182 983 b 453 807 376 983 453 906 l 453 217 b 437 142 453 190 448 165 z m 411 102 b 278 42 379 65 331 42 b 102 215 181 42 103 118 b 102 217 102 215 102 216 l 102 218 l 102 721 z "},"R":{"ha":556,"x_min":0,"x_max":0,"o":"m 80 1027 b 60 1006 69 1026 60 1016 l 60 809 b 60 807 60 808 60 808 l 60 614 b 60 611 60 613 60 612 l 60 21 b 79 0 60 11 69 1 b 102 21 91 -1 102 9 l 102 484 b 277 395 141 430 205 395 b 326 401 294 395 310 397 l 455 15 b 473 0 457 7 464 1 b 494 28 486 -1 498 15 l 365 414 b 495 609 441 447 494 522 l 495 611 b 495 615 495 613 495 614 l 495 807 l 495 809 l 495 810 b 495 813 495 811 495 812 b 277 1027 493 930 397 1027 b 102 937 205 1027 141 991 l 102 1006 b 80 1027 102 1018 91 1028 z m 277 985 b 453 809 376 985 453 906 b 453 807 453 808 453 808 l 453 611 b 453 610 453 611 453 611 b 352 453 453 540 412 481 l 297 618 b 270 632 294 629 281 636 b 257 605 260 629 253 616 l 312 440 b 277 436 301 438 289 436 b 102 611 180 436 102 514 l 102 613 l 102 809 b 277 985 102 906 180 985 z m 277 985 z "},"S":{"ha":556,"x_min":0,"x_max":0,"o":"m 267 1026 b 60 811 152 1021 62 925 l 60 810 l 60 808 l 60 807 l 60 613 l 60 611 l 60 609 b 278 394 61 491 158 394 b 300 415 289 394 300 404 b 278 436 300 426 289 436 b 102 609 181 436 103 513 b 102 611 102 610 102 610 b 102 612 102 612 102 612 l 102 808 b 102 810 102 809 102 809 b 278 985 103 906 180 985 b 453 808 375 985 453 905 b 474 787 453 797 463 787 b 495 808 485 787 495 797 b 278 1026 495 928 398 1026 b 267 1026 275 1026 271 1027 z m 275 632 b 256 609 264 631 255 620 b 278 590 257 598 268 589 b 453 415 376 590 453 512 l 453 414 l 453 220 l 453 218 l 453 217 b 278 42 453 120 375 42 b 102 218 180 42 102 121 b 81 239 102 229 92 239 b 60 218 70 239 60 229 b 278 0 60 98 157 0 b 495 216 397 0 494 97 l 495 216 b 495 218 495 217 495 217 b 495 222 495 219 495 220 l 495 414 l 495 415 l 495 417 b 495 419 495 418 495 419 b 278 632 493 537 397 632 b 275 632 277 632 276 632 z m 275 632 z "},"T":{"ha":556,"x_min":0,"x_max":0,"o":"m 80 1027 b 58 1007 69 1027 59 1018 b 79 985 58 996 68 985 b 83 985 80 985 82 985 l 259 985 l 259 21 b 278 0 259 11 268 1 b 301 21 290 -1 301 9 l 301 985 l 476 985 b 497 1006 487 985 497 995 b 476 1027 497 1017 487 1027 l 285 1027 l 276 1027 l 83 1027 b 80 1027 82 1027 81 1027 z m 80 1027 z "},"U":{"ha":556,"x_min":0,"x_max":0,"o":"m 79 1027 b 60 1006 68 1026 59 1016 l 60 220 l 60 218 l 60 216 l 60 216 b 278 0 61 97 159 0 b 496 216 397 0 495 97 l 496 218 l 496 219 l 496 1006 b 475 1027 496 1017 486 1027 b 454 1006 464 1027 454 1017 l 454 218 b 454 217 454 218 454 217 b 278 42 454 121 374 42 b 101 218 181 42 101 121 b 101 219 101 219 101 219 l 101 1006 b 79 1027 102 1017 90 1028 z m 79 1027 z "},"V":{"ha":556,"x_min":0,"x_max":0,"o":"m 79 1015 b 59 993 68 1014 59 1004 l 59 11 l 59 9 l 59 9 b 78 -13 59 -2 68 -12 b 80 -13 79 -13 80 -13 l 81 -13 b 85 -12 82 -13 83 -12 b 88 -11 86 -12 87 -12 b 89 -11 88 -11 89 -11 b 89 -10 89 -11 89 -11 b 91 -9 90 -10 91 -10 b 92 -8 92 -9 92 -9 b 95 -7 93 -8 94 -7 b 97 -5 95 -6 96 -6 l 97 -5 b 97 -3 97 -4 97 -4 b 98 -3 98 -3 98 -3 l 99 -1 b 99 0 99 -1 99 0 b 100 1 100 0 100 1 l 100 2 l 100 3 l 494 986 b 483 1014 499 996 494 1010 b 455 1001 472 1019 459 1012 l 101 116 l 101 993 b 79 1015 101 1005 90 1016 z m 79 1015 z "},"W":{"ha":556,"x_min":0,"x_max":0,"o":"m 79 1025 b 60 1003 69 1024 60 1014 l 60 20 l 60 19 l 60 18 l 60 17 l 60 16 l 60 15 b 61 14 60 15 61 14 b 61 13 61 14 61 13 b 61 12 61 12 61 12 b 62 10 62 11 62 10 b 62 9 62 9 62 9 b 63 8 63 9 63 8 b 63 7 63 8 63 7 b 64 6 64 7 64 6 b 64 6 64 6 64 6 b 66 5 65 5 65 5 b 66 4 66 4 66 4 b 67 3 66 4 67 3 b 68 2 67 3 67 3 l 69 2 b 71 0 69 1 70 0 b 72 0 71 0 72 0 b 73 -1 72 0 73 -1 b 74 -1 73 -1 74 -1 b 76 -2 75 -1 75 -2 b 79 -2 77 -2 78 -2 l 80 -2 l 81 -2 b 91 0 84 -2 88 -2 l 91 0 b 94 2 92 0 93 1 l 94 2 b 97 5 95 3 96 4 b 98 7 98 6 98 6 b 100 9 99 7 99 8 b 100 10 100 9 100 10 l 100 11 b 102 15 101 12 101 13 l 277 543 l 454 12 b 455 11 454 12 455 12 b 456 9 455 10 455 9 b 459 4 457 7 458 6 b 460 3 459 4 459 4 b 460 3 460 3 460 3 b 462 2 461 2 461 2 b 468 -1 464 0 466 -1 b 468 -2 468 -2 468 -2 b 470 -2 469 -2 469 -2 b 470 -2 470 -2 470 -2 b 471 -2 471 -2 471 -2 l 472 -2 l 474 -2 l 475 -2 b 480 -2 477 -2 479 -2 b 483 -1 481 -1 482 -1 b 484 0 483 0 484 0 b 485 0 485 0 485 0 b 486 1 485 1 486 1 b 487 1 486 1 487 1 b 491 5 488 2 489 4 b 494 11 492 7 493 9 b 494 12 494 11 494 12 b 495 21 495 15 495 18 l 495 1003 b 474 1025 495 1014 485 1025 b 453 1003 463 1025 453 1014 l 453 148 l 298 611 l 298 612 b 292 624 298 617 295 621 b 286 629 290 626 288 628 b 284 630 285 629 284 630 b 283 630 283 630 283 630 b 281 631 283 630 282 630 b 278 631 280 631 279 631 b 277 631 277 631 277 631 b 271 630 275 631 273 631 l 269 630 b 269 629 269 630 269 630 b 256 611 262 627 256 619 l 256 611 l 102 148 l 102 1003 b 79 1025 102 1015 91 1026 z m 79 1025 z "},"X":{"ha":556,"x_min":0,"x_max":0,"o":"m 80 1028 b 62 998 66 1028 56 1011 l 255 514 l 62 29 b 79 0 56 17 66 1 b 101 14 88 -1 98 5 l 278 457 l 455 14 b 474 0 458 6 466 0 b 494 29 488 0 499 16 l 300 514 l 494 998 b 483 1027 499 1009 493 1023 b 455 1014 472 1031 458 1025 l 278 570 l 101 1014 b 80 1028 98 1022 89 1029 z m 80 1028 z "},"Y":{"ha":556,"x_min":0,"x_max":0,"o":"m 79 1027 b 61 999 66 1026 57 1011 l 257 412 l 257 411 l 257 21 b 276 0 257 11 266 1 b 299 21 288 -1 299 9 l 299 413 l 494 999 b 481 1026 498 1010 491 1022 b 454 1012 470 1029 458 1023 l 278 481 l 101 1012 b 79 1027 98 1021 88 1028 z m 79 1027 z "},"Z":{"ha":556,"x_min":0,"x_max":0,"o":"m 474 1028 b 469 1027 472 1028 470 1028 l 82 1027 b 59 1008 71 1028 60 1019 b 78 985 58 997 67 986 b 82 985 80 985 81 985 l 445 985 l 65 34 b 67 6 59 26 60 13 b 72 2 69 5 71 3 b 74 2 73 2 74 2 b 74 1 74 2 74 2 b 80 0 76 1 78 0 b 87 0 82 0 85 0 l 475 0 b 497 21 486 0 497 10 b 475 42 497 32 486 42 l 113 42 l 494 996 b 495 998 494 997 495 997 b 474 1028 502 1012 489 1030 z m 474 1028 z "},"[":{"ha":556,"x_min":0,"x_max":0,"o":"m 277 1025 b 60 808 157 1025 60 928 b 60 805 60 807 60 806 l 60 21 b 60 17 60 20 60 18 b 275 -197 62 -100 158 -196 l 277 -197 l 279 -197 l 281 -197 l 474 -197 b 495 -176 485 -197 495 -187 b 474 -156 495 -165 485 -155 l 277 -156 b 102 21 180 -156 102 -76 l 102 808 b 275 983 102 905 179 982 l 277 983 l 474 983 b 495 1004 485 983 495 993 b 474 1025 495 1015 485 1025 z m 277 1025 z "},"\\":{"ha":556,"x_min":0,"x_max":0,"o":"m 473 0 b 493 30 488 -1 500 17 l 100 818 b 72 827 95 828 82 832 b 63 799 62 823 58 809 l 456 12 b 473 0 459 5 466 0 z m 473 0 z "},"]":{"ha":556,"x_min":0,"x_max":0,"o":"m 81 1025 b 60 1004 70 1025 60 1015 b 81 983 60 993 70 983 l 279 983 l 280 983 b 454 808 376 983 454 905 b 454 807 454 808 454 808 l 454 21 b 454 19 454 20 454 20 b 279 -156 453 -77 375 -156 l 81 -156 b 60 -176 70 -155 60 -165 b 81 -197 60 -187 70 -197 l 277 -197 l 279 -197 b 282 -197 280 -197 281 -197 b 495 19 399 -195 494 -99 l 495 21 l 495 22 l 495 806 l 495 808 l 495 810 l 495 810 b 279 1025 494 929 398 1025 z m 81 1025 z "},"^":{"ha":556,"x_min":0,"x_max":0,"o":"m 82 1025 b 64 995 68 1025 58 1008 l 260 605 b 261 603 260 604 261 603 l 261 602 b 266 596 263 600 264 598 b 266 596 266 596 266 596 b 267 595 267 595 267 595 b 268 594 267 595 267 595 b 269 593 268 594 268 594 b 269 593 269 593 269 593 b 273 592 270 593 272 592 b 273 591 273 592 273 591 b 275 591 274 591 274 591 b 280 590 276 591 278 590 l 281 590 b 286 591 283 590 284 591 b 287 591 286 591 287 591 b 288 592 288 591 288 592 b 289 592 288 592 289 592 b 301 607 295 595 300 600 l 495 995 b 485 1023 500 1005 495 1018 b 457 1014 476 1028 462 1024 l 280 658 l 101 1014 b 82 1025 98 1021 90 1026 z m 80 435 b 58 415 69 436 59 426 b 79 393 58 404 68 394 b 83 393 80 393 82 393 l 259 393 l 259 224 b 259 210 258 219 258 215 l 259 21 b 280 0 259 10 269 0 b 301 21 291 0 301 10 l 301 196 l 476 196 b 497 217 487 196 497 206 b 476 238 497 228 487 238 l 301 238 l 301 393 l 476 393 b 497 414 487 393 497 403 b 476 435 497 425 487 435 l 285 435 b 276 435 282 436 279 436 l 83 435 b 80 435 82 435 81 435 z m 80 435 z "},"_":{"ha":556,"x_min":0,"x_max":0,"o":"m 79 42 b 60 21 69 41 59 31 b 80 0 60 10 69 0 b 82 0 80 0 81 0 l 475 0 b 496 21 486 0 496 10 b 475 42 496 32 486 42 l 82 42 b 79 42 81 42 80 42 z m 79 42 z "},"`":{"ha":556,"x_min":0,"x_max":0,"o":"m 82 1025 b 64 995 68 1025 58 1008 l 260 605 b 261 603 260 604 261 603 l 261 602 b 266 596 263 600 264 598 b 266 596 266 596 266 596 b 267 595 267 595 267 595 b 268 594 267 595 267 595 b 269 593 268 594 268 594 b 269 593 269 593 269 593 b 273 592 270 593 272 592 b 273 591 273 592 273 591 b 275 591 274 591 274 591 b 280 590 276 591 278 590 l 281 590 b 286 591 283 590 284 591 b 287 591 286 591 287 591 b 288 592 288 591 288 592 b 289 592 288 592 289 592 b 301 607 295 595 300 600 l 495 995 b 485 1023 500 1005 495 1018 b 457 1014 476 1028 462 1024 l 280 658 l 101 1014 b 82 1025 98 1021 90 1026 z m 80 435 b 58 415 69 436 59 426 b 79 393 58 404 68 394 b 83 393 80 393 82 393 l 259 393 l 259 224 b 259 210 258 219 258 215 l 259 21 b 280 0 259 10 269 0 b 301 21 291 0 301 10 l 301 196 l 476 196 b 497 217 487 196 497 206 b 476 238 497 228 487 238 l 301 238 l 301 393 l 476 393 b 497 414 487 393 497 403 b 476 435 497 425 487 435 l 285 435 b 276 435 282 436 279 436 l 83 435 b 80 435 82 435 81 435 z m 80 435 z "},"a":{"ha":556,"x_min":0,"x_max":0,"o":"m 473 632 b 454 611 463 631 454 622 l 454 541 b 278 632 414 596 350 632 b 60 416 159 632 61 535 l 60 416 l 60 414 l 60 412 l 60 219 b 60 217 60 218 60 217 l 60 215 b 278 0 60 96 159 0 b 454 90 350 0 414 36 l 454 21 b 475 0 454 10 464 0 b 496 21 486 -1 496 10 l 496 206 b 496 217 496 209 496 213 l 496 218 b 496 220 496 219 496 219 l 496 412 b 496 414 496 413 496 413 l 496 611 b 473 632 496 623 485 633 z m 278 590 b 454 414 375 590 454 511 l 454 217 b 278 42 454 120 375 42 b 101 215 181 42 103 119 b 101 217 101 215 101 216 b 101 220 101 218 101 219 l 101 412 b 101 414 101 413 101 413 b 101 416 101 415 101 415 b 278 590 102 512 181 590 z m 278 590 z "},"b":{"ha":556,"x_min":0,"x_max":0,"o":"m 79 1025 b 60 1004 68 1025 59 1015 l 60 414 l 60 413 l 60 219 b 60 217 60 218 60 217 l 60 21 b 80 0 60 10 69 0 b 101 21 91 0 102 10 l 101 90 b 278 0 141 36 206 0 b 496 215 397 0 495 96 b 496 217 496 215 496 216 b 496 220 496 218 496 219 l 496 412 b 496 414 496 413 496 413 b 496 418 496 415 496 416 b 278 632 494 536 396 632 b 101 541 205 632 141 596 l 101 1004 b 79 1025 102 1016 90 1026 z m 278 590 b 454 414 375 590 454 511 l 454 217 b 278 42 454 120 375 42 b 101 217 181 42 101 120 b 101 220 101 218 101 219 l 101 412 l 101 414 b 278 590 101 511 181 590 z m 278 590 z "},"c":{"ha":556,"x_min":0,"x_max":0,"o":"m 277 632 b 60 418 158 632 62 536 l 60 417 b 60 415 60 417 60 416 b 60 414 60 415 60 414 l 60 220 l 60 218 b 60 217 60 218 60 217 b 277 0 61 98 158 0 b 495 218 398 0 495 99 b 474 239 495 229 485 239 b 453 218 463 239 453 229 b 277 42 453 121 376 42 b 102 216 181 42 103 120 l 102 218 l 102 219 l 102 414 l 102 415 l 102 417 b 277 590 103 513 181 590 b 453 415 376 590 453 512 b 474 394 453 404 463 394 b 495 415 485 394 495 404 b 277 632 495 535 398 632 z m 277 632 z "},"d":{"ha":556,"x_min":0,"x_max":0,"o":"m 473 1027 b 453 1006 462 1026 453 1016 l 453 543 b 278 632 414 597 350 632 b 60 418 158 632 62 536 l 60 417 l 60 415 b 60 414 60 415 60 414 l 60 220 l 60 218 b 60 217 60 218 60 217 b 278 0 61 98 158 0 b 453 90 350 0 414 36 l 453 21 b 472 0 453 11 462 1 b 495 21 484 -2 495 9 l 495 207 b 495 218 495 211 495 214 l 495 219 b 495 222 495 220 495 221 l 495 414 b 495 415 495 414 495 415 l 495 1006 b 473 1027 495 1017 484 1028 z m 278 590 b 453 415 376 590 453 512 l 453 218 b 278 42 453 121 375 42 b 102 216 181 42 103 120 l 102 218 l 102 219 l 102 414 l 102 415 l 102 417 b 278 590 103 513 180 590 z m 278 590 z "},"e":{"ha":556,"x_min":0,"x_max":0,"o":"m 89 592 z m 60 222 l 60 215 b 278 0 61 95 159 0 b 496 218 397 0 496 97 b 475 239 496 229 486 239 b 454 218 464 239 454 229 b 278 42 454 120 375 42 b 102 206 185 42 108 113 l 481 394 b 482 394 481 394 481 394 l 483 394 b 484 395 483 395 484 395 b 485 395 485 395 485 395 b 488 398 486 396 487 397 b 490 399 489 398 489 399 b 495 408 492 402 494 405 b 495 410 495 409 495 409 l 495 410 l 496 412 b 496 414 496 412 496 413 b 278 632 496 535 397 632 b 60 416 159 632 61 536 l 60 416 l 60 414 b 60 412 59 413 59 413 z m 278 590 b 454 427 370 590 447 519 l 101 252 l 101 412 l 101 414 l 101 415 b 278 590 102 513 181 590 z m 278 590 z "},"f":{"ha":556,"x_min":0,"x_max":0,"o":"m 464 1027 b 257 811 350 1021 259 926 l 257 811 l 257 809 b 257 807 257 808 257 807 l 257 632 l 81 632 b 59 612 70 633 60 623 b 79 591 59 602 68 591 b 81 591 79 591 80 591 l 257 591 l 257 21 b 276 0 257 11 266 1 b 299 21 288 -1 299 9 l 299 591 l 475 591 b 496 611 486 590 496 600 b 475 632 496 622 486 632 l 299 632 l 299 809 l 299 810 b 475 985 300 906 379 985 b 496 1006 486 985 496 995 b 475 1027 496 1017 486 1027 b 464 1027 472 1027 468 1027 z m 464 1027 z "},"g":{"ha":556,"x_min":0,"x_max":0,"o":"m 278 632 b 60 418 159 632 61 536 l 60 417 l 60 415 l 60 414 l 60 220 l 60 218 l 60 217 b 278 0 60 98 158 0 b 454 91 350 0 414 36 l 454 23 l 454 21 b 454 19 454 20 454 20 b 278 -156 453 -77 374 -156 b 101 21 181 -156 101 -76 b 81 42 102 32 92 42 b 60 21 69 42 59 32 b 278 -197 60 -99 158 -197 b 496 18 397 -197 494 -100 l 496 19 l 496 21 b 496 24 496 22 496 23 l 496 219 l 496 222 l 496 414 l 496 415 l 496 417 b 496 419 496 418 496 419 b 278 632 494 537 396 632 z m 278 590 b 454 415 375 590 454 512 b 454 414 454 415 454 414 l 454 218 b 278 42 454 121 375 42 b 101 216 182 42 102 120 b 101 218 101 217 101 217 b 101 219 101 218 101 219 l 101 414 b 101 415 101 414 101 415 b 101 417 101 416 101 416 b 278 590 102 513 181 590 z m 278 590 z "},"h":{"ha":556,"x_min":0,"x_max":0,"o":"m 79 1027 b 60 1006 68 1026 59 1016 l 60 416 l 60 414 l 60 21 b 78 0 59 11 68 1 b 101 21 90 -2 102 9 l 101 414 b 101 416 101 415 101 415 b 278 591 101 513 181 591 b 454 418 374 591 453 514 l 454 416 b 454 414 454 415 454 415 l 454 21 b 473 0 454 11 462 1 b 496 21 484 -1 496 9 l 496 414 l 496 416 l 496 417 b 496 420 496 418 496 419 b 278 632 494 538 396 632 b 101 542 206 632 141 597 l 101 1006 b 79 1027 102 1018 90 1028 z m 79 1027 z "},"i":{"ha":556,"x_min":0,"x_max":0,"o":"m 276 632 b 257 611 266 631 257 622 l 257 42 l 81 42 b 59 22 70 42 60 33 b 79 0 59 11 68 1 b 81 0 80 0 80 0 l 274 0 b 278 0 275 0 276 0 b 282 0 279 0 281 0 l 475 0 b 497 21 486 0 497 10 b 475 42 497 32 486 42 l 299 42 l 299 611 b 276 632 299 623 288 633 z m 276 632 z "},"j":{"ha":556,"x_min":0,"x_max":0,"o":"m 276 664 l 83 664 b 61 644 72 664 61 655 b 80 622 60 633 70 623 b 83 622 81 622 82 622 l 259 622 l 259 55 l 259 53 b 259 51 259 52 259 52 b 83 -124 258 -45 179 -124 b 59 -142 71 -122 60 -131 b 78 -165 58 -153 67 -165 b 83 -165 80 -165 81 -165 b 301 53 202 -165 301 -67 l 301 622 l 476 622 b 497 643 487 622 497 632 b 476 664 497 654 487 664 l 282 664 z m 276 664 z "},"k":{"ha":556,"x_min":0,"x_max":0,"o":"m 79 1027 b 60 1006 69 1026 60 1016 l 60 221 b 60 215 60 219 60 217 l 60 21 b 78 0 60 11 68 1 b 102 21 90 -2 102 9 l 102 210 l 272 380 l 456 12 b 474 0 460 5 467 0 b 494 30 489 -1 500 17 l 303 411 l 490 597 b 490 626 498 605 498 619 b 461 626 482 634 468 634 l 268 434 l 267 434 b 260 426 264 432 262 429 l 260 426 l 102 268 l 102 1006 b 79 1027 102 1018 91 1028 z m 79 1027 z "},"l":{"ha":556,"x_min":0,"x_max":0,"o":"m 298 42 l 298 1004 b 276 1025 298 1016 287 1026 b 256 1004 265 1024 256 1014 l 256 632 l 81 632 b 60 612 71 632 60 623 b 79 590 59 601 69 591 b 81 590 80 590 81 590 l 256 590 l 256 42 l 81 42 b 60 22 71 42 60 33 b 79 0 59 11 69 1 b 81 0 80 0 81 0 l 273 0 b 275 0 273 0 274 0 b 281 0 277 -1 279 0 l 475 0 b 496 21 486 0 496 10 b 475 42 496 32 486 42 z m 276 1025 z "},"m":{"ha":556,"x_min":0,"x_max":0,"o":"m 79 633 b 60 611 68 632 59 622 l 60 414 l 60 413 l 60 21 b 78 0 59 11 68 1 b 101 21 90 -1 101 9 l 101 412 b 101 414 101 413 101 414 b 276 591 101 510 180 589 b 278 591 276 591 277 591 l 454 591 l 454 21 b 472 0 454 11 462 1 b 496 21 484 -1 496 9 l 496 607 b 496 615 496 610 496 612 l 496 615 b 495 617 496 616 495 616 l 495 617 b 495 619 495 618 495 619 l 495 619 b 494 621 494 620 494 621 b 490 626 493 623 492 625 b 489 627 490 627 489 627 b 488 628 489 628 488 628 b 487 629 488 628 487 628 b 485 630 486 629 486 630 b 483 631 484 630 484 631 l 483 631 b 481 632 483 631 482 631 b 471 632 478 633 474 633 l 278 632 l 277 632 b 274 632 276 632 275 632 b 101 541 203 631 140 595 l 101 611 b 79 633 101 623 90 634 z m 276 435 b 257 414 266 434 257 425 l 257 21 b 276 0 257 11 265 1 b 298 21 287 -1 299 9 l 298 414 b 276 435 298 426 287 436 z m 276 435 z "},"n":{"ha":556,"x_min":0,"x_max":0,"o":"m 80 633 b 60 611 69 632 60 622 l 60 414 l 60 413 l 60 21 b 79 0 60 11 69 1 b 102 21 91 -1 102 9 l 102 412 b 102 414 102 413 102 414 b 278 591 102 511 180 591 b 453 416 375 591 453 512 l 453 414 b 453 410 453 413 453 412 l 453 21 b 472 0 453 11 462 1 b 495 21 484 -1 495 9 l 495 414 b 278 632 495 534 398 632 b 102 542 206 632 142 596 l 102 611 b 80 633 102 623 91 634 z m 80 633 z "},"o":{"ha":556,"x_min":0,"x_max":0,"o":"m 278 632 b 60 416 159 632 61 535 l 60 416 l 60 414 l 60 412 l 60 220 l 60 218 l 60 217 b 278 0 60 96 159 0 b 496 216 397 0 495 96 b 496 218 496 217 496 217 b 496 222 496 219 496 220 l 496 412 b 496 414 496 412 496 413 b 496 417 496 415 496 416 b 278 632 494 535 396 632 z m 278 590 b 454 414 375 590 454 511 l 454 218 b 278 42 454 120 375 42 b 101 216 181 42 102 118 b 101 218 101 217 101 217 b 101 222 101 219 101 220 l 101 412 b 101 414 101 412 101 413 l 101 415 b 278 590 102 512 181 590 z m 278 590 z "},"p":{"ha":556,"x_min":0,"x_max":0,"o":"m 79 -198 b 60 -176 68 -197 59 -187 l 60 218 l 60 219 l 60 413 b 60 415 60 414 60 415 l 60 611 b 80 632 60 622 69 632 b 101 611 91 632 102 622 l 101 542 b 278 632 141 596 206 632 b 496 417 397 632 495 536 b 496 415 496 417 496 416 b 496 412 496 414 496 413 l 496 220 b 496 218 496 219 496 219 b 496 214 496 217 496 215 b 278 0 494 96 396 0 b 101 91 205 0 141 36 l 101 -176 b 79 -198 102 -188 90 -199 z m 278 42 b 454 218 375 42 454 121 l 454 415 b 278 590 454 512 375 590 b 101 415 181 590 101 512 b 101 412 101 414 101 413 l 101 220 l 101 218 b 278 42 101 121 181 42 z m 278 42 z "},"q":{"ha":556,"x_min":0,"x_max":0,"o":"m 477 -198 b 496 -176 487 -197 496 -187 l 496 218 l 496 219 l 496 413 b 496 415 496 414 496 415 l 496 611 b 475 632 496 622 486 632 b 454 611 464 632 454 622 l 454 542 b 278 632 414 596 350 632 b 60 417 159 632 61 536 b 60 415 60 417 60 416 b 60 412 60 414 60 413 l 60 220 b 60 218 60 219 60 219 b 60 214 60 217 60 215 b 278 0 62 96 159 0 b 454 91 350 0 414 36 l 454 -176 b 477 -198 454 -188 465 -199 z m 278 42 b 101 218 181 42 101 121 l 101 415 b 278 590 101 512 181 590 b 454 415 375 590 454 512 b 454 412 454 414 454 413 l 454 220 l 454 218 b 278 42 454 121 375 42 z m 278 42 z "},"r":{"ha":556,"x_min":0,"x_max":0,"o":"m 276 632 b 256 611 265 631 256 622 l 256 414 l 256 412 l 256 42 l 82 42 b 60 22 71 42 60 33 b 79 0 59 11 69 1 b 82 0 80 0 81 0 l 273 0 b 277 0 274 0 275 0 b 281 0 278 0 280 0 l 475 0 b 496 21 486 0 496 10 b 475 42 496 32 486 42 l 298 42 l 298 414 b 475 590 298 511 378 590 b 496 611 486 590 496 600 b 475 632 496 622 486 632 b 298 541 402 632 338 596 l 298 611 b 276 632 298 623 287 633 z m 276 632 z "},"s":{"ha":556,"x_min":0,"x_max":0,"o":"m 278 632 b 60 418 159 632 61 536 l 60 417 l 60 415 b 60 414 60 415 60 414 l 60 413 b 60 412 60 413 60 412 l 60 411 b 60 410 60 411 60 410 b 60 409 60 409 60 409 b 61 408 61 409 61 408 l 61 407 b 62 406 61 407 62 406 b 62 405 62 406 62 405 b 63 404 62 405 63 405 b 63 403 63 404 63 403 b 64 402 64 403 64 403 b 65 402 64 402 64 402 l 65 401 b 66 400 65 401 66 400 b 76 394 69 398 72 395 l 454 205 b 278 42 447 114 370 42 b 101 218 181 42 101 121 b 81 239 102 229 92 239 b 60 218 69 239 60 229 b 278 0 60 98 158 0 b 496 214 396 0 494 96 b 496 219 496 216 496 218 l 496 220 l 496 222 b 495 223 496 222 496 222 l 495 224 b 495 224 495 224 495 224 b 495 225 495 225 495 225 b 494 226 495 226 494 226 b 494 227 494 227 494 227 b 492 230 493 228 493 229 b 492 231 492 230 492 231 b 491 232 491 231 491 231 l 490 233 b 490 233 490 233 490 233 b 486 236 488 234 487 235 b 485 236 486 236 486 236 b 484 237 485 237 485 237 b 482 238 483 237 482 238 l 102 428 b 278 590 108 519 185 590 b 454 415 375 590 454 512 b 475 394 454 404 464 394 b 496 415 486 394 496 404 b 278 632 496 535 397 632 z m 278 632 z "},"t":{"ha":556,"x_min":0,"x_max":0,"o":"m 61 1006 l 61 220 l 61 218 l 61 216 l 61 216 b 275 0 62 98 157 1 l 278 0 l 279 0 l 475 0 b 496 21 486 0 496 10 b 475 42 496 32 486 42 l 279 42 l 278 42 l 274 42 b 102 218 179 43 102 122 l 102 219 l 102 590 l 475 590 b 496 611 486 590 496 600 b 475 632 496 622 486 632 l 102 632 l 102 1006 b 80 1027 103 1017 92 1028 b 61 1006 70 1026 61 1016 z m 80 1027 z "},"u":{"ha":556,"x_min":0,"x_max":0,"o":"m 79 632 b 60 611 68 631 59 622 l 60 220 l 60 218 b 60 217 60 218 60 217 b 278 0 60 96 159 0 b 496 216 397 0 495 96 b 496 218 496 217 496 217 b 496 222 496 219 496 220 l 496 611 b 475 632 496 622 486 632 b 454 611 464 632 454 622 l 454 218 b 278 42 454 120 375 42 b 101 216 181 42 102 118 l 101 218 b 101 222 101 219 101 220 l 101 611 b 79 632 102 623 90 633 z m 79 632 z "},"v":{"ha":556,"x_min":0,"x_max":0,"o":"m 274 0 l 282 0 l 283 0 l 475 0 b 496 21 486 0 496 10 b 475 42 496 32 486 42 l 307 42 l 495 604 b 475 633 500 617 489 633 b 455 618 466 633 458 626 l 278 86 l 101 618 b 74 631 97 628 85 635 b 61 604 64 628 57 615 l 249 42 l 81 42 b 59 22 70 42 60 33 b 79 0 59 11 68 1 b 81 0 79 0 80 0 l 274 0 z m 475 633 z "},"w":{"ha":556,"x_min":0,"x_max":0,"o":"m 79 633 b 60 611 69 632 60 622 l 60 220 l 60 218 l 60 217 b 277 0 61 97 158 0 l 470 0 b 472 0 470 0 471 0 b 484 2 476 0 480 0 b 490 8 486 4 489 6 b 494 13 492 9 493 11 l 494 13 b 495 17 494 14 495 16 b 495 25 496 19 496 22 l 495 611 b 474 633 495 622 485 633 b 453 611 463 633 453 622 l 453 42 l 277 42 b 102 216 180 42 103 119 b 102 218 102 217 102 218 b 102 220 102 219 102 219 l 102 611 b 79 633 102 623 91 634 z m 275 633 b 256 611 265 632 256 622 l 256 218 b 275 198 256 208 265 199 b 298 218 286 196 298 207 l 298 611 b 275 633 298 623 287 634 z m 275 633 z "},"x":{"ha":556,"x_min":0,"x_max":0,"o":"m 78 633 b 63 600 64 631 55 612 l 253 316 l 63 33 b 78 0 55 21 64 1 b 98 9 86 -1 94 3 l 278 278 l 458 9 b 475 0 461 4 468 0 b 492 33 490 0 501 20 l 303 316 l 492 600 b 487 629 498 609 496 623 b 458 623 478 635 464 632 l 278 354 l 98 623 b 78 633 94 629 86 633 z m 78 633 z "},"y":{"ha":556,"x_min":0,"x_max":0,"o":"m 495 24 l 495 611 b 474 632 495 622 485 632 b 453 611 463 632 453 622 l 453 218 b 278 42 453 119 376 42 b 102 216 180 42 103 118 l 102 218 l 102 219 l 102 611 b 79 632 102 623 91 633 b 60 611 69 631 60 622 l 60 220 b 60 218 60 219 60 219 b 60 217 60 218 60 217 b 278 0 61 97 158 0 b 453 90 350 0 414 35 l 453 21 b 278 -156 453 -76 375 -156 b 102 21 180 -156 102 -76 b 81 42 102 32 92 42 b 60 21 70 42 60 32 b 278 -197 60 -99 157 -197 b 495 17 397 -197 493 -101 b 495 21 495 18 495 19 b 495 24 495 22 495 23 z m 79 632 z "},"z":{"ha":556,"x_min":0,"x_max":0,"o":"m 473 631 b 471 631 472 631 472 631 l 81 631 b 59 611 70 631 60 622 b 79 589 59 600 68 590 b 81 589 79 589 80 589 l 436 589 l 67 36 b 67 36 67 36 67 36 b 69 2 56 27 57 9 b 71 1 69 1 70 1 b 79 -2 73 -1 76 -2 b 85 -1 81 -2 83 -2 l 475 -1 b 496 19 486 -2 496 8 b 475 40 496 30 486 40 l 120 40 l 491 596 b 493 598 492 597 492 598 b 493 599 493 599 493 599 b 494 600 493 600 494 600 b 495 601 494 600 494 601 l 495 602 b 495 603 495 602 495 603 l 495 604 b 496 605 496 604 496 605 l 496 606 b 496 607 496 606 496 607 l 496 608 b 496 609 496 608 496 609 l 496 610 b 496 611 496 610 496 611 l 496 612 b 496 614 496 612 496 613 l 496 614 l 496 616 l 496 616 b 495 618 495 617 495 617 l 495 618 b 494 619 495 619 494 619 l 494 620 b 493 621 494 620 493 621 l 493 622 b 492 623 493 622 492 622 l 492 623 b 473 631 487 629 480 632 z m 473 631 z "},"{":{"ha":556,"x_min":0,"x_max":0,"o":"m 277 1025 b 60 808 157 1025 60 928 b 60 805 60 807 60 806 l 60 21 b 60 17 60 20 60 18 b 275 -197 62 -100 158 -196 l 277 -197 l 279 -197 l 281 -197 l 474 -197 b 495 -176 485 -197 495 -187 b 474 -156 495 -165 485 -155 l 277 -156 b 102 21 180 -156 102 -76 l 102 808 b 275 983 102 905 179 982 l 277 983 l 474 983 b 495 1004 485 983 495 993 b 474 1025 495 1015 485 1025 z m 277 1025 z "},"|":{"ha":556,"x_min":0,"x_max":0,"o":"m 277 0 b 299 21 289 0 299 10 l 299 1005 b 278 1026 299 1016 289 1026 b 257 1005 267 1026 257 1016 l 257 21 b 277 0 257 10 266 0 z m 277 0 z "},"}":{"ha":556,"x_min":0,"x_max":0,"o":"m 81 1025 b 60 1004 70 1025 60 1015 b 81 983 60 993 70 983 l 279 983 l 280 983 b 454 808 376 983 454 905 b 454 807 454 808 454 808 l 454 21 b 454 19 454 20 454 20 b 279 -156 453 -77 375 -156 l 81 -156 b 60 -176 70 -155 60 -165 b 81 -197 60 -187 70 -197 l 277 -197 l 279 -197 b 282 -197 280 -197 281 -197 b 495 19 399 -195 494 -99 l 495 21 l 495 22 l 495 806 l 495 808 l 495 810 l 495 810 b 279 1025 494 929 398 1025 z m 81 1025 z "},"~":{"ha":556,"x_min":0,"x_max":0,"o":"m 82 1025 b 64 995 68 1025 58 1008 l 260 605 b 261 603 260 604 261 603 l 261 602 b 266 596 263 600 264 598 b 266 596 266 596 266 596 b 267 595 267 595 267 595 b 268 594 267 595 267 595 b 269 593 268 594 268 594 b 269 593 269 593 269 593 b 273 592 270 593 272 592 b 273 591 273 592 273 591 b 275 591 274 591 274 591 b 280 590 276 591 278 590 l 281 590 b 286 591 283 590 284 591 b 287 591 286 591 287 591 b 288 592 288 591 288 592 b 289 592 288 592 289 592 b 301 607 295 595 300 600 l 495 995 b 485 1023 500 1005 495 1018 b 457 1014 476 1028 462 1024 l 280 658 l 101 1014 b 82 1025 98 1021 90 1026 z m 259 393 l 259 21 b 280 0 259 10 269 0 b 301 21 291 0 301 10 l 301 196 l 476 196 b 497 217 487 196 497 206 b 476 238 497 228 487 238 l 301 238 l 301 393 l 476 393 b 497 414 487 393 497 403 b 476 435 497 425 487 435 l 285 435 b 276 435 282 436 279 436 l 83 435 b 80 435 82 435 81 435 b 58 415 69 436 59 426 b 79 393 58 404 68 394 b 83 393 80 393 82 393 z m 80 435 z "},"":{"ha":556,"x_min":0,"x_max":0,"o":""},"":{"ha":556,"x_min":0,"x_max":0,"o":""},"":{"ha":556,"x_min":0,"x_max":0,"o":""},"":{"ha":556,"x_min":0,"x_max":0,"o":""},"":{"ha":556,"x_min":0,"x_max":0,"o":""},"":{"ha":556,"x_min":0,"x_max":0,"o":""},"":{"ha":556,"x_min":0,"x_max":0,"o":""},"":{"ha":556,"x_min":0,"x_max":0,"o":""},"":{"ha":556,"x_min":0,"x_max":0,"o":""},"":{"ha":556,"x_min":0,"x_max":0,"o":""},"":{"ha":556,"x_min":0,"x_max":0,"o":""},"":{"ha":556,"x_min":0,"x_max":0,"o":""},"":{"ha":556,"x_min":0,"x_max":0,"o":""},"":{"ha":556,"x_min":0,"x_max":0,"o":""},"":{"ha":556,"x_min":0,"x_max":0,"o":""},"":{"ha":556,"x_min":0,"x_max":0,"o":""},"":{"ha":556,"x_min":0,"x_max":0,"o":""},"":{"ha":556,"x_min":0,"x_max":0,"o":""},"":{"ha":556,"x_min":0,"x_max":0,"o":""},"":{"ha":556,"x_min":0,"x_max":0,"o":""},"":{"ha":556,"x_min":0,"x_max":0,"o":""},"":{"ha":556,"x_min":0,"x_max":0,"o":""},"":{"ha":556,"x_min":0,"x_max":0,"o":""},"":{"ha":556,"x_min":0,"x_max":0,"o":""},"":{"ha":556,"x_min":0,"x_max":0,"o":""},"":{"ha":556,"x_min":0,"x_max":0,"o":""},"":{"ha":556,"x_min":0,"x_max":0,"o":""},"":{"ha":556,"x_min":0,"x_max":0,"o":""},"":{"ha":556,"x_min":0,"x_max":0,"o":""},"":{"ha":556,"x_min":0,"x_max":0,"o":""},"":{"ha":556,"x_min":0,"x_max":0,"o":""},"":{"ha":556,"x_min":0,"x_max":0,"o":""},"":{"ha":556,"x_min":0,"x_max":0,"o":""},"":{"ha":556,"x_min":0,"x_max":0,"o":""},"":{"ha":556,"x_min":0,"x_max":0,"o":"m 277 0 b 258 21 266 1 257 11 l 258 611 b 276 633 257 622 266 632 b 299 611 288 634 300 623 l 299 21 b 277 0 300 10 288 -1 z m 278 788 b 159 907 212 788 159 842 b 278 1027 159 972 212 1027 b 397 907 344 1027 397 972 b 278 788 397 842 344 788 z m 278 829 z "},"":{"ha":556,"x_min":0,"x_max":0,"o":"m 79 1027 b 60 1001 67 1027 57 1013 l 60 21 b 80 0 60 10 70 0 b 102 21 92 0 102 10 l 102 897 l 257 509 l 257 21 b 278 0 257 10 267 0 b 299 21 289 0 299 10 l 299 405 l 454 17 b 455 15 455 17 455 16 l 456 14 b 465 2 458 9 461 5 b 467 2 466 2 466 2 b 467 1 467 2 467 2 b 469 1 468 1 468 1 b 469 1 469 1 469 1 b 470 0 469 1 470 0 l 471 0 b 472 0 472 0 472 0 l 473 0 l 475 0 l 475 0 l 477 0 b 483 1 479 0 481 1 b 496 23 491 5 497 14 l 496 1004 b 475 1026 496 1016 486 1026 b 454 1004 464 1026 454 1016 l 454 129 l 299 517 l 299 1004 b 278 1026 299 1016 289 1026 b 257 1004 267 1026 257 1016 l 257 621 l 102 1008 b 98 1016 101 1011 100 1014 b 97 1018 98 1017 98 1017 l 97 1018 l 97 1018 b 95 1021 96 1019 95 1020 b 79 1027 91 1025 85 1027 z m 79 1027 z "},"":{"ha":556,"x_min":0,"x_max":0,"o":"m 61 808 l 61 217 b 277 0 61 98 157 1 l 279 0 l 281 0 l 475 0 b 496 21 486 0 496 10 b 475 42 496 32 486 42 l 282 42 l 279 42 l 277 42 b 103 215 180 43 104 119 b 103 217 103 215 103 216 b 103 220 103 218 103 219 l 103 393 l 475 393 b 496 414 486 393 496 403 b 475 435 496 425 486 435 l 103 435 l 103 590 l 475 590 b 496 611 486 590 496 600 b 475 632 496 622 486 632 l 103 632 l 103 806 b 103 808 103 807 103 808 b 103 810 103 809 103 809 b 275 983 104 905 179 981 b 279 983 277 983 278 983 l 475 983 b 496 1004 486 983 496 993 b 475 1025 496 1015 486 1025 l 279 1025 b 276 1025 278 1025 277 1025 b 274 1025 276 1025 275 1025 b 61 808 156 1022 61 926 z m 276 1025 z "},"":{"ha":556,"x_min":0,"x_max":0,"o":"m 79 1027 b 58 1006 68 1027 58 1017 b 78 985 57 995 67 985 b 82 985 80 985 81 985 l 259 985 l 259 808 b 277 788 259 798 267 789 b 300 808 289 786 300 797 l 300 985 l 477 985 b 498 1006 488 985 498 995 b 477 1026 498 1017 488 1027 l 284 1026 l 275 1026 l 82 1026 b 79 1027 81 1027 80 1027 z m 275 632 l 82 632 b 61 612 72 632 61 623 b 80 590 60 601 69 591 b 82 590 81 590 82 590 l 259 590 l 259 415 b 277 394 258 405 267 395 b 300 415 289 393 301 403 l 300 590 l 477 590 b 498 611 488 590 498 600 b 477 632 498 622 488 632 l 284 632 z m 178 239 b 176 239 177 239 176 239 b 61 119 113 236 61 183 b 177 0 61 55 113 3 b 178 0 177 0 177 0 b 179 0 178 0 178 0 l 181 0 l 182 0 l 477 0 b 498 21 488 0 498 10 b 477 42 498 32 488 42 l 183 42 l 181 42 b 178 42 180 42 179 42 b 103 119 136 43 103 78 b 177 197 103 161 136 195 l 179 197 l 181 197 l 184 197 l 477 197 b 498 218 488 197 498 207 b 477 239 498 229 488 239 l 183 239 l 181 239 b 178 239 180 239 179 239 z m 178 239 z "},"":{"ha":556,"x_min":0,"x_max":0,"o":"m 80 1025 b 62 998 67 1024 58 1009 l 250 435 l 82 435 b 58 416 71 436 59 427 b 78 393 57 405 67 394 b 82 393 79 393 80 393 l 258 393 l 258 238 l 82 238 b 60 218 71 238 61 229 b 80 196 60 207 69 197 b 82 196 80 196 81 196 l 258 196 l 258 21 b 279 0 258 10 268 0 b 300 21 290 0 300 10 l 300 196 l 476 196 b 497 217 487 196 497 206 b 476 238 497 228 487 238 l 300 238 l 300 393 l 476 393 b 497 414 487 393 497 403 b 476 435 497 425 487 435 l 308 435 l 496 998 b 483 1024 500 1008 493 1021 b 456 1011 473 1028 460 1021 l 279 481 l 102 1011 b 80 1025 99 1020 89 1026 z m 80 1025 z "},"":{"ha":556,"x_min":0,"x_max":0,"o":"m 79 1025 b 60 1004 68 1024 59 1015 l 60 613 b 60 605 59 611 60 608 b 61 604 61 605 61 604 l 61 603 b 62 602 61 603 61 602 b 64 598 62 600 63 599 b 65 597 64 597 65 597 b 66 596 65 596 65 596 b 67 595 66 596 66 595 l 67 594 l 68 594 l 69 594 b 70 593 69 593 70 593 b 70 592 70 593 70 592 b 72 592 71 592 71 592 l 72 592 b 74 591 73 591 73 591 l 74 591 b 76 591 75 591 75 591 l 76 591 b 78 590 77 591 77 590 b 84 590 80 590 82 590 l 475 590 b 496 611 486 590 496 600 b 475 632 496 622 486 632 l 101 632 l 101 1004 b 79 1025 102 1016 90 1026 z m 79 435 b 60 414 68 434 59 424 l 60 23 b 60 19 60 22 60 21 b 60 19 60 19 60 19 b 60 15 60 18 60 16 l 60 15 b 61 14 61 14 61 14 l 61 13 b 62 11 61 12 61 12 l 62 11 b 64 8 62 10 63 9 b 64 8 64 8 64 8 b 65 6 64 7 65 7 b 66 6 65 6 65 6 b 67 5 66 6 66 5 l 67 4 l 68 3 l 69 3 b 70 2 69 3 70 3 b 70 2 70 2 70 2 b 72 1 71 2 71 2 l 72 1 b 74 1 73 1 73 1 l 74 1 b 76 0 75 1 75 0 l 76 0 b 78 0 77 0 77 0 b 84 0 80 0 82 0 l 475 0 b 496 21 486 0 496 10 b 475 42 496 32 486 42 l 101 42 l 101 414 b 79 435 102 426 90 436 z m 79 435 z "},"":{"ha":556,"x_min":0,"x_max":0,"o":"m 60 21 l 60 1004 b 81 1025 60 1015 70 1025 b 102 1004 92 1025 102 1015 l 102 305 l 454 1010 b 455 1013 454 1011 455 1012 l 455 1014 b 456 1015 456 1014 456 1015 b 459 1019 457 1017 458 1018 b 460 1020 459 1019 459 1020 b 477 1026 464 1025 471 1027 b 495 1001 489 1025 498 1012 l 495 21 b 477 0 495 11 487 1 b 453 21 465 -1 453 9 l 453 916 l 102 211 l 102 21 b 83 0 102 11 93 1 b 60 21 72 -1 60 9 z m 477 1026 z "},"":{"ha":556,"x_min":0,"x_max":0,"o":"m 82 1025 b 64 995 68 1025 58 1008 l 260 605 b 261 603 260 604 261 603 l 261 602 b 266 596 263 600 264 598 b 266 596 266 596 266 596 b 267 595 267 595 267 595 b 268 594 267 595 267 595 b 269 593 268 594 268 594 b 269 593 269 593 269 593 b 273 592 270 593 272 592 b 273 591 273 592 273 591 b 275 591 274 591 274 591 b 280 590 276 591 278 590 l 281 590 b 286 591 283 590 284 591 b 287 591 286 591 287 591 b 288 592 288 591 288 592 b 289 592 288 592 289 592 b 301 607 295 595 300 600 l 495 995 b 485 1023 500 1005 495 1018 b 457 1014 476 1028 462 1024 l 280 658 l 101 1014 b 82 1025 98 1021 90 1026 z m 259 393 l 259 21 b 280 0 259 10 269 0 b 301 21 291 0 301 10 l 301 196 l 476 196 b 497 217 487 196 497 206 b 476 238 497 228 487 238 l 301 238 l 301 393 l 476 393 b 497 414 487 393 497 403 b 476 435 497 425 487 435 l 285 435 b 276 435 282 436 279 436 l 83 435 b 80 435 82 435 81 435 b 58 415 69 436 59 426 b 79 393 58 404 68 394 b 83 393 80 393 82 393 z m 80 435 z "},"":{"ha":556,"x_min":0,"x_max":0,"o":"m 82 1025 b 64 995 68 1025 58 1008 l 260 605 b 261 603 260 604 261 603 l 261 602 b 266 596 263 600 264 598 b 266 596 266 596 266 596 b 267 595 267 595 267 595 b 268 594 267 595 267 595 b 269 593 268 594 268 594 b 269 593 269 593 269 593 b 273 592 270 593 272 592 b 273 591 273 592 273 591 b 275 591 274 591 274 591 b 280 590 276 591 278 590 l 281 590 b 286 591 283 590 284 591 b 287 591 286 591 287 591 b 288 592 288 591 288 592 b 289 592 288 592 289 592 b 301 607 295 595 300 600 l 495 995 b 485 1023 500 1005 495 1018 b 457 1014 476 1028 462 1024 l 280 658 l 101 1014 b 82 1025 98 1021 90 1026 z m 259 393 l 259 21 b 280 0 259 10 269 0 b 301 21 291 0 301 10 l 301 196 l 476 196 b 497 217 487 196 497 206 b 476 238 497 228 487 238 l 301 238 l 301 393 l 476 393 b 497 414 487 393 497 403 b 476 435 497 425 487 435 l 285 435 b 276 435 282 436 279 436 l 83 435 b 80 435 82 435 81 435 b 58 415 69 436 59 426 b 79 393 58 404 68 394 b 83 393 80 393 82 393 z m 80 435 z "},"":{"ha":556,"x_min":0,"x_max":0,"o":"m 82 1025 b 64 995 68 1025 58 1008 l 260 605 b 261 603 260 604 261 603 l 261 602 b 266 596 263 600 264 598 b 266 596 266 596 266 596 b 267 595 267 595 267 595 b 268 594 267 595 267 595 b 269 593 268 594 268 594 b 269 593 269 593 269 593 b 273 592 270 593 272 592 b 273 591 273 592 273 591 b 275 591 274 591 274 591 b 280 590 276 591 278 590 l 281 590 b 286 591 283 590 284 591 b 287 591 286 591 287 591 b 288 592 288 591 288 592 b 289 592 288 592 289 592 b 301 607 295 595 300 600 l 495 995 b 485 1023 500 1005 495 1018 b 457 1014 476 1028 462 1024 l 280 658 l 101 1014 b 82 1025 98 1021 90 1026 z m 259 393 l 259 21 b 280 0 259 10 269 0 b 301 21 291 0 301 10 l 301 196 l 476 196 b 497 217 487 196 497 206 b 476 238 497 228 487 238 l 301 238 l 301 393 l 476 393 b 497 414 487 393 497 403 b 476 435 497 425 487 435 l 285 435 b 276 435 282 436 279 436 l 83 435 b 80 435 82 435 81 435 b 58 415 69 436 59 426 b 79 393 58 404 68 394 b 83 393 80 393 82 393 z m 80 435 z "},"":{"ha":556,"x_min":0,"x_max":0,"o":"m 472 830 b 459 823 467 829 463 827 l 66 429 b 66 399 58 421 58 407 l 459 7 b 473 0 463 3 468 0 b 494 13 482 0 490 5 b 489 36 497 21 495 30 l 110 415 l 489 794 b 493 818 495 800 497 810 b 472 830 489 825 481 830 z m 472 632 b 459 626 467 632 463 630 l 262 429 b 262 399 254 421 254 407 l 459 203 b 471 198 462 200 467 198 b 492 209 480 197 489 202 b 488 233 496 217 494 227 l 306 414 l 489 597 b 493 620 495 603 496 613 b 472 632 489 628 480 633 z m 472 632 z "},"":{"ha":556,"x_min":0,"x_max":0,"o":"m 82 1025 b 64 995 68 1025 58 1008 l 260 605 b 261 603 260 604 261 603 l 261 602 b 266 596 263 600 264 598 b 266 596 266 596 266 596 b 267 595 267 595 267 595 b 268 594 267 595 267 595 b 269 593 268 594 268 594 b 269 593 269 593 269 593 b 273 592 270 593 272 592 b 273 591 273 592 273 591 b 275 591 274 591 274 591 b 280 590 276 591 278 590 l 281 590 b 286 591 283 590 284 591 b 287 591 286 591 287 591 b 288 592 288 591 288 592 b 289 592 288 592 289 592 b 301 607 295 595 300 600 l 495 995 b 485 1023 500 1005 495 1018 b 457 1014 476 1028 462 1024 l 280 658 l 101 1014 b 82 1025 98 1021 90 1026 z m 259 393 l 259 21 b 280 0 259 10 269 0 b 301 21 291 0 301 10 l 301 196 l 476 196 b 497 217 487 196 497 206 b 476 238 497 228 487 238 l 301 238 l 301 393 l 476 393 b 497 414 487 393 497 403 b 476 435 497 425 487 435 l 285 435 b 276 435 282 436 279 436 l 83 435 b 80 435 82 435 81 435 b 58 415 69 436 59 426 b 79 393 58 404 68 394 b 83 393 80 393 82 393 z m 80 435 z "},"":{"ha":556,"x_min":0,"x_max":0,"o":"m 82 1025 b 64 995 68 1025 58 1008 l 260 605 b 261 603 260 604 261 603 l 261 602 b 266 596 263 600 264 598 b 266 596 266 596 266 596 b 267 595 267 595 267 595 b 268 594 267 595 267 595 b 269 593 268 594 268 594 b 269 593 269 593 269 593 b 273 592 270 593 272 592 b 273 591 273 592 273 591 b 275 591 274 591 274 591 b 280 590 276 591 278 590 l 281 590 b 286 591 283 590 284 591 b 287 591 286 591 287 591 b 288 592 288 591 288 592 b 289 592 288 592 289 592 b 301 607 295 595 300 600 l 495 995 b 485 1023 500 1005 495 1018 b 457 1014 476 1028 462 1024 l 280 658 l 101 1014 b 82 1025 98 1021 90 1026 z m 259 393 l 259 21 b 280 0 259 10 269 0 b 301 21 291 0 301 10 l 301 196 l 476 196 b 497 217 487 196 497 206 b 476 238 497 228 487 238 l 301 238 l 301 393 l 476 393 b 497 414 487 393 497 403 b 476 435 497 425 487 435 l 285 435 b 276 435 282 436 279 436 l 83 435 b 80 435 82 435 81 435 b 58 415 69 436 59 426 b 79 393 58 404 68 394 b 83 393 80 393 82 393 z m 80 435 z "},"":{"ha":556,"x_min":0,"x_max":0,"o":"m 82 1025 b 64 995 68 1025 58 1008 l 260 605 b 261 603 260 604 261 603 l 261 602 b 266 596 263 600 264 598 b 266 596 266 596 266 596 b 267 595 267 595 267 595 b 268 594 267 595 267 595 b 269 593 268 594 268 594 b 269 593 269 593 269 593 b 273 592 270 593 272 592 b 273 591 273 592 273 591 b 275 591 274 591 274 591 b 280 590 276 591 278 590 l 281 590 b 286 591 283 590 284 591 b 287 591 286 591 287 591 b 288 592 288 591 288 592 b 289 592 288 592 289 592 b 301 607 295 595 300 600 l 495 995 b 485 1023 500 1005 495 1018 b 457 1014 476 1028 462 1024 l 280 658 l 101 1014 b 82 1025 98 1021 90 1026 z m 259 393 l 259 21 b 280 0 259 10 269 0 b 301 21 291 0 301 10 l 301 196 l 476 196 b 497 217 487 196 497 206 b 476 238 497 228 487 238 l 301 238 l 301 393 l 476 393 b 497 414 487 393 497 403 b 476 435 497 425 487 435 l 285 435 b 276 435 282 436 279 436 l 83 435 b 80 435 82 435 81 435 b 58 415 69 436 59 426 b 79 393 58 404 68 394 b 83 393 80 393 82 393 z m 80 435 z "},"":{"ha":556,"x_min":0,"x_max":0,"o":"m 82 1025 b 64 995 68 1025 58 1008 l 260 605 b 261 603 260 604 261 603 l 261 602 b 266 596 263 600 264 598 b 266 596 266 596 266 596 b 267 595 267 595 267 595 b 268 594 267 595 267 595 b 269 593 268 594 268 594 b 269 593 269 593 269 593 b 273 592 270 593 272 592 b 273 591 273 592 273 591 b 275 591 274 591 274 591 b 280 590 276 591 278 590 l 281 590 b 286 591 283 590 284 591 b 287 591 286 591 287 591 b 288 592 288 591 288 592 b 289 592 288 592 289 592 b 301 607 295 595 300 600 l 495 995 b 485 1023 500 1005 495 1018 b 457 1014 476 1028 462 1024 l 280 658 l 101 1014 b 82 1025 98 1021 90 1026 z m 259 393 l 259 21 b 280 0 259 10 269 0 b 301 21 291 0 301 10 l 301 196 l 476 196 b 497 217 487 196 497 206 b 476 238 497 228 487 238 l 301 238 l 301 393 l 476 393 b 497 414 487 393 497 403 b 476 435 497 425 487 435 l 285 435 b 276 435 282 436 279 436 l 83 435 b 80 435 82 435 81 435 b 58 415 69 436 59 426 b 79 393 58 404 68 394 b 83 393 80 393 82 393 z m 80 435 z "},"":{"ha":556,"x_min":0,"x_max":0,"o":"m 267 1026 b 60 811 152 1021 62 926 l 60 810 l 60 808 l 60 807 b 278 590 61 688 158 590 b 495 806 397 590 494 688 b 495 808 495 807 495 808 l 495 810 b 495 812 495 811 495 811 b 278 1026 493 930 397 1026 b 267 1026 275 1026 271 1027 z m 278 985 b 453 808 375 985 453 906 l 453 807 b 278 632 453 711 375 632 b 102 808 180 632 102 711 l 102 810 b 278 985 103 906 180 985 z m 267 436 b 60 220 152 430 62 335 l 60 220 l 60 218 l 60 216 l 60 216 b 278 0 62 97 158 0 b 495 216 397 0 494 97 l 495 216 b 495 218 495 217 495 217 l 495 219 b 495 222 495 220 495 221 b 278 436 493 340 397 436 b 267 436 275 436 271 436 z m 278 394 b 453 220 375 394 452 316 l 453 218 l 453 217 b 278 42 453 120 375 42 b 102 218 180 42 102 121 l 102 219 b 278 394 103 316 180 394 z m 278 394 z "},"":{"ha":556,"x_min":0,"x_max":0,"o":"m 82 1025 b 64 995 68 1025 58 1008 l 260 605 b 261 603 260 604 261 603 l 261 602 b 266 596 263 600 264 598 b 266 596 266 596 266 596 b 267 595 267 595 267 595 b 268 594 267 595 267 595 b 269 593 268 594 268 594 b 269 593 269 593 269 593 b 273 592 270 593 272 592 b 273 591 273 592 273 591 b 275 591 274 591 274 591 b 280 590 276 591 278 590 l 281 590 b 286 591 283 590 284 591 b 287 591 286 591 287 591 b 288 592 288 591 288 592 b 289 592 288 592 289 592 b 301 607 295 595 300 600 l 495 995 b 485 1023 500 1005 495 1018 b 457 1014 476 1028 462 1024 l 280 658 l 101 1014 b 82 1025 98 1021 90 1026 z m 259 393 l 259 21 b 280 0 259 10 269 0 b 301 21 291 0 301 10 l 301 196 l 476 196 b 497 217 487 196 497 206 b 476 238 497 228 487 238 l 301 238 l 301 393 l 476 393 b 497 414 487 393 497 403 b 476 435 497 425 487 435 l 285 435 b 276 435 282 436 279 436 l 83 435 b 80 435 82 435 81 435 b 58 415 69 436 59 426 b 79 393 58 404 68 394 b 83 393 80 393 82 393 z m 80 435 z "},"":{"ha":556,"x_min":0,"x_max":0,"o":"m 474 1025 b 258 808 355 1025 258 928 b 258 805 258 807 258 806 l 258 632 l 81 632 b 60 611 70 632 60 622 b 81 590 60 600 70 590 l 258 590 l 258 21 b 276 0 258 11 266 1 b 299 21 288 -1 299 9 l 299 590 l 474 590 b 495 611 485 590 495 600 b 474 632 495 622 485 632 l 299 632 l 299 808 b 474 983 299 905 377 983 b 495 1004 485 983 495 993 b 474 1025 495 1015 485 1025 z m 473 435 b 453 414 462 434 453 424 l 453 21 b 472 0 453 11 462 1 b 495 21 484 -1 495 9 l 495 414 b 473 435 495 425 484 436 z m 473 435 z "},"":{"ha":556,"x_min":0,"x_max":0,"o":"m 475 1025 b 257 810 355 1025 258 929 l 257 808 b 257 804 257 807 257 806 l 257 632 l 80 632 b 59 611 69 632 59 622 b 80 590 59 600 69 590 l 257 590 l 257 21 b 275 0 257 11 265 1 b 299 21 287 -1 299 9 l 299 590 l 454 590 l 454 21 b 473 0 454 11 462 1 b 496 21 484 -1 496 9 l 496 607 b 496 615 496 609 496 612 l 496 808 b 475 829 496 819 486 829 b 454 808 464 829 454 819 l 454 632 l 299 632 l 299 808 b 475 983 299 905 376 983 b 496 1004 486 983 496 993 b 475 1025 496 1015 486 1025 z m 475 1025 z "},"":{"ha":556,"x_min":0,"x_max":0,"o":"m 82 1025 b 64 995 68 1025 58 1008 l 260 605 b 261 603 260 604 261 603 l 261 602 b 266 596 263 600 264 598 b 266 596 266 596 266 596 b 267 595 267 595 267 595 b 268 594 267 595 267 595 b 269 593 268 594 268 594 b 269 593 269 593 269 593 b 273 592 270 593 272 592 b 273 591 273 592 273 591 b 275 591 274 591 274 591 b 280 590 276 591 278 590 l 281 590 b 286 591 283 590 284 591 b 287 591 286 591 287 591 b 288 592 288 591 288 592 b 289 592 288 592 289 592 b 301 607 295 595 300 600 l 495 995 b 485 1023 500 1005 495 1018 b 457 1014 476 1028 462 1024 l 280 658 l 101 1014 b 82 1025 98 1021 90 1026 z m 259 393 l 259 21 b 280 0 259 10 269 0 b 301 21 291 0 301 10 l 301 196 l 476 196 b 497 217 487 196 497 206 b 476 238 497 228 487 238 l 301 238 l 301 393 l 476 393 b 497 414 487 393 497 403 b 476 435 497 425 487 435 l 285 435 b 276 435 282 436 279 436 l 83 435 b 80 435 82 435 81 435 b 58 415 69 436 59 426 b 79 393 58 404 68 394 b 83 393 80 393 82 393 z m 80 435 z "},"":{"ha":556,"x_min":0,"x_max":0,"o":"m 82 1025 b 64 995 68 1025 58 1008 l 260 605 b 261 603 260 604 261 603 l 261 602 b 266 596 263 600 264 598 b 266 596 266 596 266 596 b 267 595 267 595 267 595 b 268 594 267 595 267 595 b 269 593 268 594 268 594 b 269 593 269 593 269 593 b 273 592 270 593 272 592 b 273 591 273 592 273 591 b 275 591 274 591 274 591 b 280 590 276 591 278 590 l 281 590 b 286 591 283 590 284 591 b 287 591 286 591 287 591 b 288 592 288 591 288 592 b 289 592 288 592 289 592 b 301 607 295 595 300 600 l 495 995 b 485 1023 500 1005 495 1018 b 457 1014 476 1028 462 1024 l 280 658 l 101 1014 b 82 1025 98 1021 90 1026 z m 259 393 l 259 21 b 280 0 259 10 269 0 b 301 21 291 0 301 10 l 301 196 l 476 196 b 497 217 487 196 497 206 b 476 238 497 228 487 238 l 301 238 l 301 393 l 476 393 b 497 414 487 393 497 403 b 476 435 497 425 487 435 l 285 435 b 276 435 282 436 279 436 l 83 435 b 80 435 82 435 81 435 b 58 415 69 436 59 426 b 79 393 58 404 68 394 b 83 393 80 393 82 393 z m 80 435 z "},"":{"ha":556,"x_min":0,"x_max":0,"o":"m 276 829 l 272 829 b 60 614 155 827 62 731 l 60 611 b 60 608 60 610 60 609 b 256 394 62 497 148 405 l 256 21 b 275 0 256 11 264 1 b 298 21 286 -1 298 9 l 298 788 l 453 788 l 453 21 b 472 0 453 11 461 1 b 495 21 483 -2 495 9 l 495 806 b 494 814 495 809 495 812 b 494 815 494 814 494 814 b 494 816 494 815 494 816 l 494 816 b 493 818 494 817 493 818 l 493 818 l 492 820 l 492 820 l 491 822 b 491 822 491 822 491 822 b 490 823 490 822 490 823 l 489 823 b 486 826 488 824 487 825 l 486 826 b 485 827 486 826 485 827 b 478 829 483 828 481 829 b 477 829 478 829 477 829 b 473 829 475 830 474 830 l 280 829 z "},"":{"ha":556,"x_min":0,"x_max":0,"o":"m 82 1025 b 64 995 68 1025 58 1008 l 260 605 b 261 603 260 604 261 603 l 261 602 b 266 596 263 600 264 598 b 266 596 266 596 266 596 b 267 595 267 595 267 595 b 268 594 267 595 267 595 b 269 593 268 594 268 594 b 269 593 269 593 269 593 b 273 592 270 593 272 592 b 273 591 273 592 273 591 b 275 591 274 591 274 591 b 280 590 276 591 278 590 l 281 590 b 286 591 283 590 284 591 b 287 591 286 591 287 591 b 288 592 288 591 288 592 b 289 592 288 592 289 592 b 301 607 295 595 300 600 l 495 995 b 485 1023 500 1005 495 1018 b 457 1014 476 1028 462 1024 l 280 658 l 101 1014 b 82 1025 98 1021 90 1026 z m 259 393 l 259 21 b 280 0 259 10 269 0 b 301 21 291 0 301 10 l 301 196 l 476 196 b 497 217 487 196 497 206 b 476 238 497 228 487 238 l 301 238 l 301 393 l 476 393 b 497 414 487 393 497 403 b 476 435 497 425 487 435 l 285 435 b 276 435 282 436 279 436 l 83 435 b 80 435 82 435 81 435 b 58 415 69 436 59 426 b 79 393 58 404 68 394 b 83 393 80 393 82 393 z m 80 435 z "},"":{"ha":556,"x_min":0,"x_max":0,"o":"m 82 1025 b 64 995 68 1025 58 1008 l 260 605 b 261 603 260 604 261 603 l 261 602 b 266 596 263 600 264 598 b 266 596 266 596 266 596 b 267 595 267 595 267 595 b 268 594 267 595 267 595 b 269 593 268 594 268 594 b 269 593 269 593 269 593 b 273 592 270 593 272 592 b 273 591 273 592 273 591 b 275 591 274 591 274 591 b 280 590 276 591 278 590 l 281 590 b 286 591 283 590 284 591 b 287 591 286 591 287 591 b 288 592 288 591 288 592 b 289 592 288 592 289 592 b 301 607 295 595 300 600 l 495 995 b 485 1023 500 1005 495 1018 b 457 1014 476 1028 462 1024 l 280 658 l 101 1014 b 82 1025 98 1021 90 1026 z m 259 393 l 259 21 b 280 0 259 10 269 0 b 301 21 291 0 301 10 l 301 196 l 476 196 b 497 217 487 196 497 206 b 476 238 497 228 487 238 l 301 238 l 301 393 l 476 393 b 497 414 487 393 497 403 b 476 435 497 425 487 435 l 285 435 b 276 435 282 436 279 436 l 83 435 b 80 435 82 435 81 435 b 58 415 69 436 59 426 b 79 393 58 404 68 394 b 83 393 80 393 82 393 z m 80 435 z "},"":{"ha":556,"x_min":0,"x_max":0,"o":"m 82 1025 b 64 995 68 1025 58 1008 l 260 605 b 261 603 260 604 261 603 l 261 602 b 266 596 263 600 264 598 b 266 596 266 596 266 596 b 267 595 267 595 267 595 b 268 594 267 595 267 595 b 269 593 268 594 268 594 b 269 593 269 593 269 593 b 273 592 270 593 272 592 b 273 591 273 592 273 591 b 275 591 274 591 274 591 b 280 590 276 591 278 590 l 281 590 b 286 591 283 590 284 591 b 287 591 286 591 287 591 b 288 592 288 591 288 592 b 289 592 288 592 289 592 b 301 607 295 595 300 600 l 495 995 b 485 1023 500 1005 495 1018 b 457 1014 476 1028 462 1024 l 280 658 l 101 1014 b 82 1025 98 1021 90 1026 z m 259 393 l 259 21 b 280 0 259 10 269 0 b 301 21 291 0 301 10 l 301 196 l 476 196 b 497 217 487 196 497 206 b 476 238 497 228 487 238 l 301 238 l 301 393 l 476 393 b 497 414 487 393 497 403 b 476 435 497 425 487 435 l 285 435 b 276 435 282 436 279 436 l 83 435 b 80 435 82 435 81 435 b 58 415 69 436 59 426 b 79 393 58 404 68 394 b 83 393 80 393 82 393 z m 80 435 z "},"":{"ha":556,"x_min":0,"x_max":0,"o":"m 82 1025 b 64 995 68 1025 58 1008 l 260 605 b 261 603 260 604 261 603 l 261 602 b 266 596 263 600 264 598 b 266 596 266 596 266 596 b 267 595 267 595 267 595 b 268 594 267 595 267 595 b 269 593 268 594 268 594 b 269 593 269 593 269 593 b 273 592 270 593 272 592 b 273 591 273 592 273 591 b 275 591 274 591 274 591 b 280 590 276 591 278 590 l 281 590 b 286 591 283 590 284 591 b 287 591 286 591 287 591 b 288 592 288 591 288 592 b 289 592 288 592 289 592 b 301 607 295 595 300 600 l 495 995 b 485 1023 500 1005 495 1018 b 457 1014 476 1028 462 1024 l 280 658 l 101 1014 b 82 1025 98 1021 90 1026 z m 259 393 l 259 21 b 280 0 259 10 269 0 b 301 21 291 0 301 10 l 301 196 l 476 196 b 497 217 487 196 497 206 b 476 238 497 228 487 238 l 301 238 l 301 393 l 476 393 b 497 414 487 393 497 403 b 476 435 497 425 487 435 l 285 435 b 276 435 282 436 279 436 l 83 435 b 80 435 82 435 81 435 b 58 415 69 436 59 426 b 79 393 58 404 68 394 b 83 393 80 393 82 393 z m 80 435 z "},"":{"ha":556,"x_min":0,"x_max":0,"o":"m 84 830 b 96 823 88 829 93 827 l 489 429 b 489 399 497 421 497 407 l 96 7 b 82 0 93 3 88 0 b 62 13 74 0 65 5 b 67 36 59 21 61 30 l 446 415 l 67 794 b 62 818 61 800 59 810 b 84 830 66 825 75 830 z m 84 632 b 96 626 88 632 93 630 l 294 429 b 294 399 302 421 302 407 l 96 203 b 84 198 93 200 89 198 b 63 209 76 197 67 202 b 67 233 59 217 61 227 l 250 414 l 67 597 b 63 620 61 603 59 613 b 84 632 66 628 75 633 z m 84 632 z "},"":{"ha":556,"x_min":0,"x_max":0,"o":"m 82 1025 b 64 995 68 1025 58 1008 l 260 605 b 261 603 260 604 261 603 l 261 602 b 266 596 263 600 264 598 b 266 596 266 596 266 596 b 267 595 267 595 267 595 b 268 594 267 595 267 595 b 269 593 268 594 268 594 b 269 593 269 593 269 593 b 273 592 270 593 272 592 b 273 591 273 592 273 591 b 275 591 274 591 274 591 b 280 590 276 591 278 590 l 281 590 b 286 591 283 590 284 591 b 287 591 286 591 287 591 b 288 592 288 591 288 592 b 289 592 288 592 289 592 b 301 607 295 595 300 600 l 495 995 b 485 1023 500 1005 495 1018 b 457 1014 476 1028 462 1024 l 280 658 l 101 1014 b 82 1025 98 1021 90 1026 z m 259 393 l 259 21 b 280 0 259 10 269 0 b 301 21 291 0 301 10 l 301 196 l 476 196 b 497 217 487 196 497 206 b 476 238 497 228 487 238 l 301 238 l 301 393 l 476 393 b 497 414 487 393 497 403 b 476 435 497 425 487 435 l 285 435 b 276 435 282 436 279 436 l 83 435 b 80 435 82 435 81 435 b 58 415 69 436 59 426 b 79 393 58 404 68 394 b 83 393 80 393 82 393 z m 80 435 z "},"":{"ha":556,"x_min":0,"x_max":0,"o":"m 82 1025 b 64 995 68 1025 58 1008 l 260 605 b 261 603 260 604 261 603 l 261 602 b 266 596 263 600 264 598 b 266 596 266 596 266 596 b 267 595 267 595 267 595 b 268 594 267 595 267 595 b 269 593 268 594 268 594 b 269 593 269 593 269 593 b 273 592 270 593 272 592 b 273 591 273 592 273 591 b 275 591 274 591 274 591 b 280 590 276 591 278 590 l 281 590 b 286 591 283 590 284 591 b 287 591 286 591 287 591 b 288 592 288 591 288 592 b 289 592 288 592 289 592 b 301 607 295 595 300 600 l 495 995 b 485 1023 500 1005 495 1018 b 457 1014 476 1028 462 1024 l 280 658 l 101 1014 b 82 1025 98 1021 90 1026 z m 259 393 l 259 21 b 280 0 259 10 269 0 b 301 21 291 0 301 10 l 301 196 l 476 196 b 497 217 487 196 497 206 b 476 238 497 228 487 238 l 301 238 l 301 393 l 476 393 b 497 414 487 393 497 403 b 476 435 497 425 487 435 l 285 435 b 276 435 282 436 279 436 l 83 435 b 80 435 82 435 81 435 b 58 415 69 436 59 426 b 79 393 58 404 68 394 b 83 393 80 393 82 393 z m 80 435 z "},"":{"ha":556,"x_min":0,"x_max":0,"o":"m 82 1025 b 64 995 68 1025 58 1008 l 260 605 b 261 603 260 604 261 603 l 261 602 b 266 596 263 600 264 598 b 266 596 266 596 266 596 b 267 595 267 595 267 595 b 268 594 267 595 267 595 b 269 593 268 594 268 594 b 269 593 269 593 269 593 b 273 592 270 593 272 592 b 273 591 273 592 273 591 b 275 591 274 591 274 591 b 280 590 276 591 278 590 l 281 590 b 286 591 283 590 284 591 b 287 591 286 591 287 591 b 288 592 288 591 288 592 b 289 592 288 592 289 592 b 301 607 295 595 300 600 l 495 995 b 485 1023 500 1005 495 1018 b 457 1014 476 1028 462 1024 l 280 658 l 101 1014 b 82 1025 98 1021 90 1026 z m 259 393 l 259 21 b 280 0 259 10 269 0 b 301 21 291 0 301 10 l 301 196 l 476 196 b 497 217 487 196 497 206 b 476 238 497 228 487 238 l 301 238 l 301 393 l 476 393 b 497 414 487 393 497 403 b 476 435 497 425 487 435 l 285 435 b 276 435 282 436 279 436 l 83 435 b 80 435 82 435 81 435 b 58 415 69 436 59 426 b 79 393 58 404 68 394 b 83 393 80 393 82 393 z m 80 435 z "},"":{"ha":556,"x_min":0,"x_max":0,"o":"m 82 1025 b 64 995 68 1025 58 1008 l 260 605 b 261 603 260 604 261 603 l 261 602 b 266 596 263 600 264 598 b 266 596 266 596 266 596 b 267 595 267 595 267 595 b 268 594 267 595 267 595 b 269 593 268 594 268 594 b 269 593 269 593 269 593 b 273 592 270 593 272 592 b 273 591 273 592 273 591 b 275 591 274 591 274 591 b 280 590 276 591 278 590 l 281 590 b 286 591 283 590 284 591 b 287 591 286 591 287 591 b 288 592 288 591 288 592 b 289 592 288 592 289 592 b 301 607 295 595 300 600 l 495 995 b 485 1023 500 1005 495 1018 b 457 1014 476 1028 462 1024 l 280 658 l 101 1014 b 82 1025 98 1021 90 1026 z m 259 393 l 259 21 b 280 0 259 10 269 0 b 301 21 291 0 301 10 l 301 196 l 476 196 b 497 217 487 196 497 206 b 476 238 497 228 487 238 l 301 238 l 301 393 l 476 393 b 497 414 487 393 497 403 b 476 435 497 425 487 435 l 285 435 b 276 435 282 436 279 436 l 83 435 b 80 435 82 435 81 435 b 58 415 69 436 59 426 b 79 393 58 404 68 394 b 83 393 80 393 82 393 z m 80 435 z "},"":{"ha":556,"x_min":0,"x_max":0,"o":"m 82 1025 b 64 995 68 1025 58 1008 l 260 605 b 261 603 260 604 261 603 l 261 602 b 266 596 263 600 264 598 b 266 596 266 596 266 596 b 267 595 267 595 267 595 b 268 594 267 595 267 595 b 269 593 268 594 268 594 b 269 593 269 593 269 593 b 273 592 270 593 272 592 b 273 591 273 592 273 591 b 275 591 274 591 274 591 b 280 590 276 591 278 590 l 281 590 b 286 591 283 590 284 591 b 287 591 286 591 287 591 b 288 592 288 591 288 592 b 289 592 288 592 289 592 b 301 607 295 595 300 600 l 495 995 b 485 1023 500 1005 495 1018 b 457 1014 476 1028 462 1024 l 280 658 l 101 1014 b 82 1025 98 1021 90 1026 z m 259 393 l 259 21 b 280 0 259 10 269 0 b 301 21 291 0 301 10 l 301 196 l 476 196 b 497 217 487 196 497 206 b 476 238 497 228 487 238 l 301 238 l 301 393 l 476 393 b 497 414 487 393 497 403 b 476 435 497 425 487 435 l 285 435 b 276 435 282 436 279 436 l 83 435 b 80 435 82 435 81 435 b 58 415 69 436 59 426 b 79 393 58 404 68 394 b 83 393 80 393 82 393 z m 80 435 z "},"":{"ha":556,"x_min":0,"x_max":0,"o":"m 82 1025 b 64 995 68 1025 58 1008 l 260 605 b 261 603 260 604 261 603 l 261 602 b 266 596 263 600 264 598 b 266 596 266 596 266 596 b 267 595 267 595 267 595 b 268 594 267 595 267 595 b 269 593 268 594 268 594 b 269 593 269 593 269 593 b 273 592 270 593 272 592 b 273 591 273 592 273 591 b 275 591 274 591 274 591 b 280 590 276 591 278 590 l 281 590 b 286 591 283 590 284 591 b 287 591 286 591 287 591 b 288 592 288 591 288 592 b 289 592 288 592 289 592 b 301 607 295 595 300 600 l 495 995 b 485 1023 500 1005 495 1018 b 457 1014 476 1028 462 1024 l 280 658 l 101 1014 b 82 1025 98 1021 90 1026 z m 259 393 l 259 21 b 280 0 259 10 269 0 b 301 21 291 0 301 10 l 301 196 l 476 196 b 497 217 487 196 497 206 b 476 238 497 228 487 238 l 301 238 l 301 393 l 476 393 b 497 414 487 393 497 403 b 476 435 497 425 487 435 l 285 435 b 276 435 282 436 279 436 l 83 435 b 80 435 82 435 81 435 b 58 415 69 436 59 426 b 79 393 58 404 68 394 b 83 393 80 393 82 393 z m 80 435 z "},"":{"ha":556,"x_min":0,"x_max":0,"o":"m 82 1025 b 64 995 68 1025 58 1008 l 260 605 b 261 603 260 604 261 603 l 261 602 b 266 596 263 600 264 598 b 266 596 266 596 266 596 b 267 595 267 595 267 595 b 268 594 267 595 267 595 b 269 593 268 594 268 594 b 269 593 269 593 269 593 b 273 592 270 593 272 592 b 273 591 273 592 273 591 b 275 591 274 591 274 591 b 280 590 276 591 278 590 l 281 590 b 286 591 283 590 284 591 b 287 591 286 591 287 591 b 288 592 288 591 288 592 b 289 592 288 592 289 592 b 301 607 295 595 300 600 l 495 995 b 485 1023 500 1005 495 1018 b 457 1014 476 1028 462 1024 l 280 658 l 101 1014 b 82 1025 98 1021 90 1026 z m 259 393 l 259 21 b 280 0 259 10 269 0 b 301 21 291 0 301 10 l 301 196 l 476 196 b 497 217 487 196 497 206 b 476 238 497 228 487 238 l 301 238 l 301 393 l 476 393 b 497 414 487 393 497 403 b 476 435 497 425 487 435 l 285 435 b 276 435 282 436 279 436 l 83 435 b 80 435 82 435 81 435 b 58 415 69 436 59 426 b 79 393 58 404 68 394 b 83 393 80 393 82 393 z m 80 435 z "},"":{"ha":556,"x_min":0,"x_max":0,"o":"m 82 1025 b 64 995 68 1025 58 1008 l 260 605 b 261 603 260 604 261 603 l 261 602 b 266 596 263 600 264 598 b 266 596 266 596 266 596 b 267 595 267 595 267 595 b 268 594 267 595 267 595 b 269 593 268 594 268 594 b 269 593 269 593 269 593 b 273 592 270 593 272 592 b 273 591 273 592 273 591 b 275 591 274 591 274 591 b 280 590 276 591 278 590 l 281 590 b 286 591 283 590 284 591 b 287 591 286 591 287 591 b 288 592 288 591 288 592 b 289 592 288 592 289 592 b 301 607 295 595 300 600 l 495 995 b 485 1023 500 1005 495 1018 b 457 1014 476 1028 462 1024 l 280 658 l 101 1014 b 82 1025 98 1021 90 1026 z m 259 393 l 259 21 b 280 0 259 10 269 0 b 301 21 291 0 301 10 l 301 196 l 476 196 b 497 217 487 196 497 206 b 476 238 497 228 487 238 l 301 238 l 301 393 l 476 393 b 497 414 487 393 497 403 b 476 435 497 425 487 435 l 285 435 b 276 435 282 436 279 436 l 83 435 b 80 435 82 435 81 435 b 58 415 69 436 59 426 b 79 393 58 404 68 394 b 83 393 80 393 82 393 z m 80 435 z "},"":{"ha":556,"x_min":0,"x_max":0,"o":"m 82 1025 b 64 995 68 1025 58 1008 l 260 605 b 261 603 260 604 261 603 l 261 602 b 266 596 263 600 264 598 b 266 596 266 596 266 596 b 267 595 267 595 267 595 b 268 594 267 595 267 595 b 269 593 268 594 268 594 b 269 593 269 593 269 593 b 273 592 270 593 272 592 b 273 591 273 592 273 591 b 275 591 274 591 274 591 b 280 590 276 591 278 590 l 281 590 b 286 591 283 590 284 591 b 287 591 286 591 287 591 b 288 592 288 591 288 592 b 289 592 288 592 289 592 b 301 607 295 595 300 600 l 495 995 b 485 1023 500 1005 495 1018 b 457 1014 476 1028 462 1024 l 280 658 l 101 1014 b 82 1025 98 1021 90 1026 z m 259 393 l 259 21 b 280 0 259 10 269 0 b 301 21 291 0 301 10 l 301 196 l 476 196 b 497 217 487 196 497 206 b 476 238 497 228 487 238 l 301 238 l 301 393 l 476 393 b 497 414 487 393 497 403 b 476 435 497 425 487 435 l 285 435 b 276 435 282 436 279 436 l 83 435 b 80 435 82 435 81 435 b 58 415 69 436 59 426 b 79 393 58 404 68 394 b 83 393 80 393 82 393 z m 80 435 z "},"":{"ha":556,"x_min":0,"x_max":0,"o":"m 82 1025 b 64 995 68 1025 58 1008 l 260 605 b 261 603 260 604 261 603 l 261 602 b 266 596 263 600 264 598 b 266 596 266 596 266 596 b 267 595 267 595 267 595 b 268 594 267 595 267 595 b 269 593 268 594 268 594 b 269 593 269 593 269 593 b 273 592 270 593 272 592 b 273 591 273 592 273 591 b 275 591 274 591 274 591 b 280 590 276 591 278 590 l 281 590 b 286 591 283 590 284 591 b 287 591 286 591 287 591 b 288 592 288 591 288 592 b 289 592 288 592 289 592 b 301 607 295 595 300 600 l 495 995 b 485 1023 500 1005 495 1018 b 457 1014 476 1028 462 1024 l 280 658 l 101 1014 b 82 1025 98 1021 90 1026 z m 259 393 l 259 21 b 280 0 259 10 269 0 b 301 21 291 0 301 10 l 301 196 l 476 196 b 497 217 487 196 497 206 b 476 238 497 228 487 238 l 301 238 l 301 393 l 476 393 b 497 414 487 393 497 403 b 476 435 497 425 487 435 l 285 435 b 276 435 282 436 279 436 l 83 435 b 80 435 82 435 81 435 b 58 415 69 436 59 426 b 79 393 58 404 68 394 b 83 393 80 393 82 393 z m 80 435 z "},"":{"ha":556,"x_min":0,"x_max":0,"o":"m 82 1025 b 64 995 68 1025 58 1008 l 260 605 b 261 603 260 604 261 603 l 261 602 b 266 596 263 600 264 598 b 266 596 266 596 266 596 b 267 595 267 595 267 595 b 268 594 267 595 267 595 b 269 593 268 594 268 594 b 269 593 269 593 269 593 b 273 592 270 593 272 592 b 273 591 273 592 273 591 b 275 591 274 591 274 591 b 280 590 276 591 278 590 l 281 590 b 286 591 283 590 284 591 b 287 591 286 591 287 591 b 288 592 288 591 288 592 b 289 592 288 592 289 592 b 301 607 295 595 300 600 l 495 995 b 485 1023 500 1005 495 1018 b 457 1014 476 1028 462 1024 l 280 658 l 101 1014 b 82 1025 98 1021 90 1026 z m 259 393 l 259 21 b 280 0 259 10 269 0 b 301 21 291 0 301 10 l 301 196 l 476 196 b 497 217 487 196 497 206 b 476 238 497 228 487 238 l 301 238 l 301 393 l 476 393 b 497 414 487 393 497 403 b 476 435 497 425 487 435 l 285 435 b 276 435 282 436 279 436 l 83 435 b 80 435 82 435 81 435 b 58 415 69 436 59 426 b 79 393 58 404 68 394 b 83 393 80 393 82 393 z m 80 435 z "},"":{"ha":556,"x_min":0,"x_max":0,"o":"m 82 1025 b 64 995 68 1025 58 1008 l 260 605 b 261 603 260 604 261 603 l 261 602 b 266 596 263 600 264 598 b 266 596 266 596 266 596 b 267 595 267 595 267 595 b 268 594 267 595 267 595 b 269 593 268 594 268 594 b 269 593 269 593 269 593 b 273 592 270 593 272 592 b 273 591 273 592 273 591 b 275 591 274 591 274 591 b 280 590 276 591 278 590 l 281 590 b 286 591 283 590 284 591 b 287 591 286 591 287 591 b 288 592 288 591 288 592 b 289 592 288 592 289 592 b 301 607 295 595 300 600 l 495 995 b 485 1023 500 1005 495 1018 b 457 1014 476 1028 462 1024 l 280 658 l 101 1014 b 82 1025 98 1021 90 1026 z m 259 393 l 259 21 b 280 0 259 10 269 0 b 301 21 291 0 301 10 l 301 196 l 476 196 b 497 217 487 196 497 206 b 476 238 497 228 487 238 l 301 238 l 301 393 l 476 393 b 497 414 487 393 497 403 b 476 435 497 425 487 435 l 285 435 b 276 435 282 436 279 436 l 83 435 b 80 435 82 435 81 435 b 58 415 69 436 59 426 b 79 393 58 404 68 394 b 83 393 80 393 82 393 z m 80 435 z "},"":{"ha":556,"x_min":0,"x_max":0,"o":"m 82 1025 b 64 995 68 1025 58 1008 l 260 605 b 261 603 260 604 261 603 l 261 602 b 266 596 263 600 264 598 b 266 596 266 596 266 596 b 267 595 267 595 267 595 b 268 594 267 595 267 595 b 269 593 268 594 268 594 b 269 593 269 593 269 593 b 273 592 270 593 272 592 b 273 591 273 592 273 591 b 275 591 274 591 274 591 b 280 590 276 591 278 590 l 281 590 b 286 591 283 590 284 591 b 287 591 286 591 287 591 b 288 592 288 591 288 592 b 289 592 288 592 289 592 b 301 607 295 595 300 600 l 495 995 b 485 1023 500 1005 495 1018 b 457 1014 476 1028 462 1024 l 280 658 l 101 1014 b 82 1025 98 1021 90 1026 z m 259 393 l 259 21 b 280 0 259 10 269 0 b 301 21 291 0 301 10 l 301 196 l 476 196 b 497 217 487 196 497 206 b 476 238 497 228 487 238 l 301 238 l 301 393 l 476 393 b 497 414 487 393 497 403 b 476 435 497 425 487 435 l 285 435 b 276 435 282 436 279 436 l 83 435 b 80 435 82 435 81 435 b 58 415 69 436 59 426 b 79 393 58 404 68 394 b 83 393 80 393 82 393 z m 80 435 z "},"":{"ha":556,"x_min":0,"x_max":0,"o":"m 82 1025 b 64 995 68 1025 58 1008 l 260 605 b 261 603 260 604 261 603 l 261 602 b 266 596 263 600 264 598 b 266 596 266 596 266 596 b 267 595 267 595 267 595 b 268 594 267 595 267 595 b 269 593 268 594 268 594 b 269 593 269 593 269 593 b 273 592 270 593 272 592 b 273 591 273 592 273 591 b 275 591 274 591 274 591 b 280 590 276 591 278 590 l 281 590 b 286 591 283 590 284 591 b 287 591 286 591 287 591 b 288 592 288 591 288 592 b 289 592 288 592 289 592 b 301 607 295 595 300 600 l 495 995 b 485 1023 500 1005 495 1018 b 457 1014 476 1028 462 1024 l 280 658 l 101 1014 b 82 1025 98 1021 90 1026 z m 259 393 l 259 21 b 280 0 259 10 269 0 b 301 21 291 0 301 10 l 301 196 l 476 196 b 497 217 487 196 497 206 b 476 238 497 228 487 238 l 301 238 l 301 393 l 476 393 b 497 414 487 393 497 403 b 476 435 497 425 487 435 l 285 435 b 276 435 282 436 279 436 l 83 435 b 80 435 82 435 81 435 b 58 415 69 436 59 426 b 79 393 58 404 68 394 b 83 393 80 393 82 393 z m 80 435 z "},"":{"ha":556,"x_min":0,"x_max":0,"o":"m 82 1025 b 64 995 68 1025 58 1008 l 260 605 b 261 603 260 604 261 603 l 261 602 b 266 596 263 600 264 598 b 266 596 266 596 266 596 b 267 595 267 595 267 595 b 268 594 267 595 267 595 b 269 593 268 594 268 594 b 269 593 269 593 269 593 b 273 592 270 593 272 592 b 273 591 273 592 273 591 b 275 591 274 591 274 591 b 280 590 276 591 278 590 l 281 590 b 286 591 283 590 284 591 b 287 591 286 591 287 591 b 288 592 288 591 288 592 b 289 592 288 592 289 592 b 301 607 295 595 300 600 l 495 995 b 485 1023 500 1005 495 1018 b 457 1014 476 1028 462 1024 l 280 658 l 101 1014 b 82 1025 98 1021 90 1026 z m 259 393 l 259 21 b 280 0 259 10 269 0 b 301 21 291 0 301 10 l 301 196 l 476 196 b 497 217 487 196 497 206 b 476 238 497 228 487 238 l 301 238 l 301 393 l 476 393 b 497 414 487 393 497 403 b 476 435 497 425 487 435 l 285 435 b 276 435 282 436 279 436 l 83 435 b 80 435 82 435 81 435 b 58 415 69 436 59 426 b 79 393 58 404 68 394 b 83 393 80 393 82 393 z m 80 435 z "},"":{"ha":556,"x_min":0,"x_max":0,"o":"m 82 1025 b 64 995 68 1025 58 1008 l 260 605 b 261 603 260 604 261 603 l 261 602 b 266 596 263 600 264 598 b 266 596 266 596 266 596 b 267 595 267 595 267 595 b 268 594 267 595 267 595 b 269 593 268 594 268 594 b 269 593 269 593 269 593 b 273 592 270 593 272 592 b 273 591 273 592 273 591 b 275 591 274 591 274 591 b 280 590 276 591 278 590 l 281 590 b 286 591 283 590 284 591 b 287 591 286 591 287 591 b 288 592 288 591 288 592 b 289 592 288 592 289 592 b 301 607 295 595 300 600 l 495 995 b 485 1023 500 1005 495 1018 b 457 1014 476 1028 462 1024 l 280 658 l 101 1014 b 82 1025 98 1021 90 1026 z m 259 393 l 259 21 b 280 0 259 10 269 0 b 301 21 291 0 301 10 l 301 196 l 476 196 b 497 217 487 196 497 206 b 476 238 497 228 487 238 l 301 238 l 301 393 l 476 393 b 497 414 487 393 497 403 b 476 435 497 425 487 435 l 285 435 b 276 435 282 436 279 436 l 83 435 b 80 435 82 435 81 435 b 58 415 69 436 59 426 b 79 393 58 404 68 394 b 83 393 80 393 82 393 z m 80 435 z "},"":{"ha":556,"x_min":0,"x_max":0,"o":"m 82 1025 b 64 995 68 1025 58 1008 l 260 605 b 261 603 260 604 261 603 l 261 602 b 266 596 263 600 264 598 b 266 596 266 596 266 596 b 267 595 267 595 267 595 b 268 594 267 595 267 595 b 269 593 268 594 268 594 b 269 593 269 593 269 593 b 273 592 270 593 272 592 b 273 591 273 592 273 591 b 275 591 274 591 274 591 b 280 590 276 591 278 590 l 281 590 b 286 591 283 590 284 591 b 287 591 286 591 287 591 b 288 592 288 591 288 592 b 289 592 288 592 289 592 b 301 607 295 595 300 600 l 495 995 b 485 1023 500 1005 495 1018 b 457 1014 476 1028 462 1024 l 280 658 l 101 1014 b 82 1025 98 1021 90 1026 z m 259 393 l 259 21 b 280 0 259 10 269 0 b 301 21 291 0 301 10 l 301 196 l 476 196 b 497 217 487 196 497 206 b 476 238 497 228 487 238 l 301 238 l 301 393 l 476 393 b 497 414 487 393 497 403 b 476 435 497 425 487 435 l 285 435 b 276 435 282 436 279 436 l 83 435 b 80 435 82 435 81 435 b 58 415 69 436 59 426 b 79 393 58 404 68 394 b 83 393 80 393 82 393 z m 80 435 z "},"":{"ha":556,"x_min":0,"x_max":0,"o":"m 82 1025 b 64 995 68 1025 58 1008 l 260 605 b 261 603 260 604 261 603 l 261 602 b 266 596 263 600 264 598 b 266 596 266 596 266 596 b 267 595 267 595 267 595 b 268 594 267 595 267 595 b 269 593 268 594 268 594 b 269 593 269 593 269 593 b 273 592 270 593 272 592 b 273 591 273 592 273 591 b 275 591 274 591 274 591 b 280 590 276 591 278 590 l 281 590 b 286 591 283 590 284 591 b 287 591 286 591 287 591 b 288 592 288 591 288 592 b 289 592 288 592 289 592 b 301 607 295 595 300 600 l 495 995 b 485 1023 500 1005 495 1018 b 457 1014 476 1028 462 1024 l 280 658 l 101 1014 b 82 1025 98 1021 90 1026 z m 259 393 l 259 21 b 280 0 259 10 269 0 b 301 21 291 0 301 10 l 301 196 l 476 196 b 497 217 487 196 497 206 b 476 238 497 228 487 238 l 301 238 l 301 393 l 476 393 b 497 414 487 393 497 403 b 476 435 497 425 487 435 l 285 435 b 276 435 282 436 279 436 l 83 435 b 80 435 82 435 81 435 b 58 415 69 436 59 426 b 79 393 58 404 68 394 b 83 393 80 393 82 393 z m 80 435 z "},"":{"ha":556,"x_min":0,"x_max":0,"o":"m 82 1025 b 64 995 68 1025 58 1008 l 260 605 b 261 603 260 604 261 603 l 261 602 b 266 596 263 600 264 598 b 266 596 266 596 266 596 b 267 595 267 595 267 595 b 268 594 267 595 267 595 b 269 593 268 594 268 594 b 269 593 269 593 269 593 b 273 592 270 593 272 592 b 273 591 273 592 273 591 b 275 591 274 591 274 591 b 280 590 276 591 278 590 l 281 590 b 286 591 283 590 284 591 b 287 591 286 591 287 591 b 288 592 288 591 288 592 b 289 592 288 592 289 592 b 301 607 295 595 300 600 l 495 995 b 485 1023 500 1005 495 1018 b 457 1014 476 1028 462 1024 l 280 658 l 101 1014 b 82 1025 98 1021 90 1026 z m 259 393 l 259 21 b 280 0 259 10 269 0 b 301 21 291 0 301 10 l 301 196 l 476 196 b 497 217 487 196 497 206 b 476 238 497 228 487 238 l 301 238 l 301 393 l 476 393 b 497 414 487 393 497 403 b 476 435 497 425 487 435 l 285 435 b 276 435 282 436 279 436 l 83 435 b 80 435 82 435 81 435 b 58 415 69 436 59 426 b 79 393 58 404 68 394 b 83 393 80 393 82 393 z m 80 435 z "},"":{"ha":556,"x_min":0,"x_max":0,"o":"m 82 1025 b 64 995 68 1025 58 1008 l 260 605 b 261 603 260 604 261 603 l 261 602 b 266 596 263 600 264 598 b 266 596 266 596 266 596 b 267 595 267 595 267 595 b 268 594 267 595 267 595 b 269 593 268 594 268 594 b 269 593 269 593 269 593 b 273 592 270 593 272 592 b 273 591 273 592 273 591 b 275 591 274 591 274 591 b 280 590 276 591 278 590 l 281 590 b 286 591 283 590 284 591 b 287 591 286 591 287 591 b 288 592 288 591 288 592 b 289 592 288 592 289 592 b 301 607 295 595 300 600 l 495 995 b 485 1023 500 1005 495 1018 b 457 1014 476 1028 462 1024 l 280 658 l 101 1014 b 82 1025 98 1021 90 1026 z m 259 393 l 259 21 b 280 0 259 10 269 0 b 301 21 291 0 301 10 l 301 196 l 476 196 b 497 217 487 196 497 206 b 476 238 497 228 487 238 l 301 238 l 301 393 l 476 393 b 497 414 487 393 497 403 b 476 435 497 425 487 435 l 285 435 b 276 435 282 436 279 436 l 83 435 b 80 435 82 435 81 435 b 58 415 69 436 59 426 b 79 393 58 404 68 394 b 83 393 80 393 82 393 z m 80 435 z "},"":{"ha":556,"x_min":0,"x_max":0,"o":"m 82 1025 b 64 995 68 1025 58 1008 l 260 605 b 261 603 260 604 261 603 l 261 602 b 266 596 263 600 264 598 b 266 596 266 596 266 596 b 267 595 267 595 267 595 b 268 594 267 595 267 595 b 269 593 268 594 268 594 b 269 593 269 593 269 593 b 273 592 270 593 272 592 b 273 591 273 592 273 591 b 275 591 274 591 274 591 b 280 590 276 591 278 590 l 281 590 b 286 591 283 590 284 591 b 287 591 286 591 287 591 b 288 592 288 591 288 592 b 289 592 288 592 289 592 b 301 607 295 595 300 600 l 495 995 b 485 1023 500 1005 495 1018 b 457 1014 476 1028 462 1024 l 280 658 l 101 1014 b 82 1025 98 1021 90 1026 z m 259 393 l 259 21 b 280 0 259 10 269 0 b 301 21 291 0 301 10 l 301 196 l 476 196 b 497 217 487 196 497 206 b 476 238 497 228 487 238 l 301 238 l 301 393 l 476 393 b 497 414 487 393 497 403 b 476 435 497 425 487 435 l 285 435 b 276 435 282 436 279 436 l 83 435 b 80 435 82 435 81 435 b 58 415 69 436 59 426 b 79 393 58 404 68 394 b 83 393 80 393 82 393 z m 80 435 z "},"":{"ha":556,"x_min":0,"x_max":0,"o":"m 82 1025 b 64 995 68 1025 58 1008 l 260 605 b 261 603 260 604 261 603 l 261 602 b 266 596 263 600 264 598 b 266 596 266 596 266 596 b 267 595 267 595 267 595 b 268 594 267 595 267 595 b 269 593 268 594 268 594 b 269 593 269 593 269 593 b 273 592 270 593 272 592 b 273 591 273 592 273 591 b 275 591 274 591 274 591 b 280 590 276 591 278 590 l 281 590 b 286 591 283 590 284 591 b 287 591 286 591 287 591 b 288 592 288 591 288 592 b 289 592 288 592 289 592 b 301 607 295 595 300 600 l 495 995 b 485 1023 500 1005 495 1018 b 457 1014 476 1028 462 1024 l 280 658 l 101 1014 b 82 1025 98 1021 90 1026 z m 259 393 l 259 21 b 280 0 259 10 269 0 b 301 21 291 0 301 10 l 301 196 l 476 196 b 497 217 487 196 497 206 b 476 238 497 228 487 238 l 301 238 l 301 393 l 476 393 b 497 414 487 393 497 403 b 476 435 497 425 487 435 l 285 435 b 276 435 282 436 279 436 l 83 435 b 80 435 82 435 81 435 b 58 415 69 436 59 426 b 79 393 58 404 68 394 b 83 393 80 393 82 393 z m 80 435 z "},"":{"ha":556,"x_min":0,"x_max":0,"o":"m 82 1025 b 64 995 68 1025 58 1008 l 260 605 b 261 603 260 604 261 603 l 261 602 b 266 596 263 600 264 598 b 266 596 266 596 266 596 b 267 595 267 595 267 595 b 268 594 267 595 267 595 b 269 593 268 594 268 594 b 269 593 269 593 269 593 b 273 592 270 593 272 592 b 273 591 273 592 273 591 b 275 591 274 591 274 591 b 280 590 276 591 278 590 l 281 590 b 286 591 283 590 284 591 b 287 591 286 591 287 591 b 288 592 288 591 288 592 b 289 592 288 592 289 592 b 301 607 295 595 300 600 l 495 995 b 485 1023 500 1005 495 1018 b 457 1014 476 1028 462 1024 l 280 658 l 101 1014 b 82 1025 98 1021 90 1026 z m 259 393 l 259 21 b 280 0 259 10 269 0 b 301 21 291 0 301 10 l 301 196 l 476 196 b 497 217 487 196 497 206 b 476 238 497 228 487 238 l 301 238 l 301 393 l 476 393 b 497 414 487 393 497 403 b 476 435 497 425 487 435 l 285 435 b 276 435 282 436 279 436 l 83 435 b 80 435 82 435 81 435 b 58 415 69 436 59 426 b 79 393 58 404 68 394 b 83 393 80 393 82 393 z m 80 435 z "},"":{"ha":556,"x_min":0,"x_max":0,"o":"m 82 1025 b 64 995 68 1025 58 1008 l 260 605 b 261 603 260 604 261 603 l 261 602 b 266 596 263 600 264 598 b 266 596 266 596 266 596 b 267 595 267 595 267 595 b 268 594 267 595 267 595 b 269 593 268 594 268 594 b 269 593 269 593 269 593 b 273 592 270 593 272 592 b 273 591 273 592 273 591 b 275 591 274 591 274 591 b 280 590 276 591 278 590 l 281 590 b 286 591 283 590 284 591 b 287 591 286 591 287 591 b 288 592 288 591 288 592 b 289 592 288 592 289 592 b 301 607 295 595 300 600 l 495 995 b 485 1023 500 1005 495 1018 b 457 1014 476 1028 462 1024 l 280 658 l 101 1014 b 82 1025 98 1021 90 1026 z m 259 393 l 259 21 b 280 0 259 10 269 0 b 301 21 291 0 301 10 l 301 196 l 476 196 b 497 217 487 196 497 206 b 476 238 497 228 487 238 l 301 238 l 301 393 l 476 393 b 497 414 487 393 497 403 b 476 435 497 425 487 435 l 285 435 b 276 435 282 436 279 436 l 83 435 b 80 435 82 435 81 435 b 58 415 69 436 59 426 b 79 393 58 404 68 394 b 83 393 80 393 82 393 z m 80 435 z "},"":{"ha":556,"x_min":0,"x_max":0,"o":"m 82 1025 b 64 995 68 1025 58 1008 l 260 605 b 261 603 260 604 261 603 l 261 602 b 266 596 263 600 264 598 b 266 596 266 596 266 596 b 267 595 267 595 267 595 b 268 594 267 595 267 595 b 269 593 268 594 268 594 b 269 593 269 593 269 593 b 273 592 270 593 272 592 b 273 591 273 592 273 591 b 275 591 274 591 274 591 b 280 590 276 591 278 590 l 281 590 b 286 591 283 590 284 591 b 287 591 286 591 287 591 b 288 592 288 591 288 592 b 289 592 288 592 289 592 b 301 607 295 595 300 600 l 495 995 b 485 1023 500 1005 495 1018 b 457 1014 476 1028 462 1024 l 280 658 l 101 1014 b 82 1025 98 1021 90 1026 z m 259 393 l 259 21 b 280 0 259 10 269 0 b 301 21 291 0 301 10 l 301 196 l 476 196 b 497 217 487 196 497 206 b 476 238 497 228 487 238 l 301 238 l 301 393 l 476 393 b 497 414 487 393 497 403 b 476 435 497 425 487 435 l 285 435 b 276 435 282 436 279 436 l 83 435 b 80 435 82 435 81 435 b 58 415 69 436 59 426 b 79 393 58 404 68 394 b 83 393 80 393 82 393 z m 80 435 z "},"":{"ha":556,"x_min":0,"x_max":0,"o":"m 82 1025 b 64 995 68 1025 58 1008 l 260 605 b 261 603 260 604 261 603 l 261 602 b 266 596 263 600 264 598 b 266 596 266 596 266 596 b 267 595 267 595 267 595 b 268 594 267 595 267 595 b 269 593 268 594 268 594 b 269 593 269 593 269 593 b 273 592 270 593 272 592 b 273 591 273 592 273 591 b 275 591 274 591 274 591 b 280 590 276 591 278 590 l 281 590 b 286 591 283 590 284 591 b 287 591 286 591 287 591 b 288 592 288 591 288 592 b 289 592 288 592 289 592 b 301 607 295 595 300 600 l 495 995 b 485 1023 500 1005 495 1018 b 457 1014 476 1028 462 1024 l 280 658 l 101 1014 b 82 1025 98 1021 90 1026 z m 259 393 l 259 21 b 280 0 259 10 269 0 b 301 21 291 0 301 10 l 301 196 l 476 196 b 497 217 487 196 497 206 b 476 238 497 228 487 238 l 301 238 l 301 393 l 476 393 b 497 414 487 393 497 403 b 476 435 497 425 487 435 l 285 435 b 276 435 282 436 279 436 l 83 435 b 80 435 82 435 81 435 b 58 415 69 436 59 426 b 79 393 58 404 68 394 b 83 393 80 393 82 393 z m 80 435 z "},"":{"ha":556,"x_min":0,"x_max":0,"o":"m 82 1025 b 64 995 68 1025 58 1008 l 260 605 b 261 603 260 604 261 603 l 261 602 b 266 596 263 600 264 598 b 266 596 266 596 266 596 b 267 595 267 595 267 595 b 268 594 267 595 267 595 b 269 593 268 594 268 594 b 269 593 269 593 269 593 b 273 592 270 593 272 592 b 273 591 273 592 273 591 b 275 591 274 591 274 591 b 280 590 276 591 278 590 l 281 590 b 286 591 283 590 284 591 b 287 591 286 591 287 591 b 288 592 288 591 288 592 b 289 592 288 592 289 592 b 301 607 295 595 300 600 l 495 995 b 485 1023 500 1005 495 1018 b 457 1014 476 1028 462 1024 l 280 658 l 101 1014 b 82 1025 98 1021 90 1026 z m 259 393 l 259 21 b 280 0 259 10 269 0 b 301 21 291 0 301 10 l 301 196 l 476 196 b 497 217 487 196 497 206 b 476 238 497 228 487 238 l 301 238 l 301 393 l 476 393 b 497 414 487 393 497 403 b 476 435 497 425 487 435 l 285 435 b 276 435 282 436 279 436 l 83 435 b 80 435 82 435 81 435 b 58 415 69 436 59 426 b 79 393 58 404 68 394 b 83 393 80 393 82 393 z m 80 435 z "},"":{"ha":556,"x_min":0,"x_max":0,"o":"m 82 1025 b 64 995 68 1025 58 1008 l 260 605 b 261 603 260 604 261 603 l 261 602 b 266 596 263 600 264 598 b 266 596 266 596 266 596 b 267 595 267 595 267 595 b 268 594 267 595 267 595 b 269 593 268 594 268 594 b 269 593 269 593 269 593 b 273 592 270 593 272 592 b 273 591 273 592 273 591 b 275 591 274 591 274 591 b 280 590 276 591 278 590 l 281 590 b 286 591 283 590 284 591 b 287 591 286 591 287 591 b 288 592 288 591 288 592 b 289 592 288 592 289 592 b 301 607 295 595 300 600 l 495 995 b 485 1023 500 1005 495 1018 b 457 1014 476 1028 462 1024 l 280 658 l 101 1014 b 82 1025 98 1021 90 1026 z m 259 393 l 259 21 b 280 0 259 10 269 0 b 301 21 291 0 301 10 l 301 196 l 476 196 b 497 217 487 196 497 206 b 476 238 497 228 487 238 l 301 238 l 301 393 l 476 393 b 497 414 487 393 497 403 b 476 435 497 425 487 435 l 285 435 b 276 435 282 436 279 436 l 83 435 b 80 435 82 435 81 435 b 58 415 69 436 59 426 b 79 393 58 404 68 394 b 83 393 80 393 82 393 z m 80 435 z "},"":{"ha":556,"x_min":0,"x_max":0,"o":"m 82 1025 b 64 995 68 1025 58 1008 l 260 605 b 261 603 260 604 261 603 l 261 602 b 266 596 263 600 264 598 b 266 596 266 596 266 596 b 267 595 267 595 267 595 b 268 594 267 595 267 595 b 269 593 268 594 268 594 b 269 593 269 593 269 593 b 273 592 270 593 272 592 b 273 591 273 592 273 591 b 275 591 274 591 274 591 b 280 590 276 591 278 590 l 281 590 b 286 591 283 590 284 591 b 287 591 286 591 287 591 b 288 592 288 591 288 592 b 289 592 288 592 289 592 b 301 607 295 595 300 600 l 495 995 b 485 1023 500 1005 495 1018 b 457 1014 476 1028 462 1024 l 280 658 l 101 1014 b 82 1025 98 1021 90 1026 z m 259 393 l 259 21 b 280 0 259 10 269 0 b 301 21 291 0 301 10 l 301 196 l 476 196 b 497 217 487 196 497 206 b 476 238 497 228 487 238 l 301 238 l 301 393 l 476 393 b 497 414 487 393 497 403 b 476 435 497 425 487 435 l 285 435 b 276 435 282 436 279 436 l 83 435 b 80 435 82 435 81 435 b 58 415 69 436 59 426 b 79 393 58 404 68 394 b 83 393 80 393 82 393 z m 80 435 z "},"":{"ha":556,"x_min":0,"x_max":0,"o":"m 82 1025 b 64 995 68 1025 58 1008 l 260 605 b 261 603 260 604 261 603 l 261 602 b 266 596 263 600 264 598 b 266 596 266 596 266 596 b 267 595 267 595 267 595 b 268 594 267 595 267 595 b 269 593 268 594 268 594 b 269 593 269 593 269 593 b 273 592 270 593 272 592 b 273 591 273 592 273 591 b 275 591 274 591 274 591 b 280 590 276 591 278 590 l 281 590 b 286 591 283 590 284 591 b 287 591 286 591 287 591 b 288 592 288 591 288 592 b 289 592 288 592 289 592 b 301 607 295 595 300 600 l 495 995 b 485 1023 500 1005 495 1018 b 457 1014 476 1028 462 1024 l 280 658 l 101 1014 b 82 1025 98 1021 90 1026 z m 259 393 l 259 21 b 280 0 259 10 269 0 b 301 21 291 0 301 10 l 301 196 l 476 196 b 497 217 487 196 497 206 b 476 238 497 228 487 238 l 301 238 l 301 393 l 476 393 b 497 414 487 393 497 403 b 476 435 497 425 487 435 l 285 435 b 276 435 282 436 279 436 l 83 435 b 80 435 82 435 81 435 b 58 415 69 436 59 426 b 79 393 58 404 68 394 b 83 393 80 393 82 393 z m 80 435 z "},"":{"ha":556,"x_min":0,"x_max":0,"o":"m 82 1025 b 64 995 68 1025 58 1008 l 260 605 b 261 603 260 604 261 603 l 261 602 b 266 596 263 600 264 598 b 266 596 266 596 266 596 b 267 595 267 595 267 595 b 268 594 267 595 267 595 b 269 593 268 594 268 594 b 269 593 269 593 269 593 b 273 592 270 593 272 592 b 273 591 273 592 273 591 b 275 591 274 591 274 591 b 280 590 276 591 278 590 l 281 590 b 286 591 283 590 284 591 b 287 591 286 591 287 591 b 288 592 288 591 288 592 b 289 592 288 592 289 592 b 301 607 295 595 300 600 l 495 995 b 485 1023 500 1005 495 1018 b 457 1014 476 1028 462 1024 l 280 658 l 101 1014 b 82 1025 98 1021 90 1026 z m 259 393 l 259 21 b 280 0 259 10 269 0 b 301 21 291 0 301 10 l 301 196 l 476 196 b 497 217 487 196 497 206 b 476 238 497 228 487 238 l 301 238 l 301 393 l 476 393 b 497 414 487 393 497 403 b 476 435 497 425 487 435 l 285 435 b 276 435 282 436 279 436 l 83 435 b 80 435 82 435 81 435 b 58 415 69 436 59 426 b 79 393 58 404 68 394 b 83 393 80 393 82 393 z m 80 435 z "},"":{"ha":556,"x_min":0,"x_max":0,"o":"m 82 1025 b 64 995 68 1025 58 1008 l 260 605 b 261 603 260 604 261 603 l 261 602 b 266 596 263 600 264 598 b 266 596 266 596 266 596 b 267 595 267 595 267 595 b 268 594 267 595 267 595 b 269 593 268 594 268 594 b 269 593 269 593 269 593 b 273 592 270 593 272 592 b 273 591 273 592 273 591 b 275 591 274 591 274 591 b 280 590 276 591 278 590 l 281 590 b 286 591 283 590 284 591 b 287 591 286 591 287 591 b 288 592 288 591 288 592 b 289 592 288 592 289 592 b 301 607 295 595 300 600 l 495 995 b 485 1023 500 1005 495 1018 b 457 1014 476 1028 462 1024 l 280 658 l 101 1014 b 82 1025 98 1021 90 1026 z m 259 393 l 259 21 b 280 0 259 10 269 0 b 301 21 291 0 301 10 l 301 196 l 476 196 b 497 217 487 196 497 206 b 476 238 497 228 487 238 l 301 238 l 301 393 l 476 393 b 497 414 487 393 497 403 b 476 435 497 425 487 435 l 285 435 b 276 435 282 436 279 436 l 83 435 b 80 435 82 435 81 435 b 58 415 69 436 59 426 b 79 393 58 404 68 394 b 83 393 80 393 82 393 z m 80 435 z "},"":{"ha":556,"x_min":0,"x_max":0,"o":"m 82 1025 b 64 995 68 1025 58 1008 l 260 605 b 261 603 260 604 261 603 l 261 602 b 266 596 263 600 264 598 b 266 596 266 596 266 596 b 267 595 267 595 267 595 b 268 594 267 595 267 595 b 269 593 268 594 268 594 b 269 593 269 593 269 593 b 273 592 270 593 272 592 b 273 591 273 592 273 591 b 275 591 274 591 274 591 b 280 590 276 591 278 590 l 281 590 b 286 591 283 590 284 591 b 287 591 286 591 287 591 b 288 592 288 591 288 592 b 289 592 288 592 289 592 b 301 607 295 595 300 600 l 495 995 b 485 1023 500 1005 495 1018 b 457 1014 476 1028 462 1024 l 280 658 l 101 1014 b 82 1025 98 1021 90 1026 z m 259 393 l 259 21 b 280 0 259 10 269 0 b 301 21 291 0 301 10 l 301 196 l 476 196 b 497 217 487 196 497 206 b 476 238 497 228 487 238 l 301 238 l 301 393 l 476 393 b 497 414 487 393 497 403 b 476 435 497 425 487 435 l 285 435 b 276 435 282 436 279 436 l 83 435 b 80 435 82 435 81 435 b 58 415 69 436 59 426 b 79 393 58 404 68 394 b 83 393 80 393 82 393 z m 80 435 z "},"":{"ha":556,"x_min":0,"x_max":0,"o":"m 82 1025 b 64 995 68 1025 58 1008 l 260 605 b 261 603 260 604 261 603 l 261 602 b 266 596 263 600 264 598 b 266 596 266 596 266 596 b 267 595 267 595 267 595 b 268 594 267 595 267 595 b 269 593 268 594 268 594 b 269 593 269 593 269 593 b 273 592 270 593 272 592 b 273 591 273 592 273 591 b 275 591 274 591 274 591 b 280 590 276 591 278 590 l 281 590 b 286 591 283 590 284 591 b 287 591 286 591 287 591 b 288 592 288 591 288 592 b 289 592 288 592 289 592 b 301 607 295 595 300 600 l 495 995 b 485 1023 500 1005 495 1018 b 457 1014 476 1028 462 1024 l 280 658 l 101 1014 b 82 1025 98 1021 90 1026 z m 259 393 l 259 21 b 280 0 259 10 269 0 b 301 21 291 0 301 10 l 301 196 l 476 196 b 497 217 487 196 497 206 b 476 238 497 228 487 238 l 301 238 l 301 393 l 476 393 b 497 414 487 393 497 403 b 476 435 497 425 487 435 l 285 435 b 276 435 282 436 279 436 l 83 435 b 80 435 82 435 81 435 b 58 415 69 436 59 426 b 79 393 58 404 68 394 b 83 393 80 393 82 393 z m 80 435 z "},"":{"ha":556,"x_min":0,"x_max":0,"o":"m 82 1025 b 64 995 68 1025 58 1008 l 260 605 b 261 603 260 604 261 603 l 261 602 b 266 596 263 600 264 598 b 266 596 266 596 266 596 b 267 595 267 595 267 595 b 268 594 267 595 267 595 b 269 593 268 594 268 594 b 269 593 269 593 269 593 b 273 592 270 593 272 592 b 273 591 273 592 273 591 b 275 591 274 591 274 591 b 280 590 276 591 278 590 l 281 590 b 286 591 283 590 284 591 b 287 591 286 591 287 591 b 288 592 288 591 288 592 b 289 592 288 592 289 592 b 301 607 295 595 300 600 l 495 995 b 485 1023 500 1005 495 1018 b 457 1014 476 1028 462 1024 l 280 658 l 101 1014 b 82 1025 98 1021 90 1026 z m 259 393 l 259 21 b 280 0 259 10 269 0 b 301 21 291 0 301 10 l 301 196 l 476 196 b 497 217 487 196 497 206 b 476 238 497 228 487 238 l 301 238 l 301 393 l 476 393 b 497 414 487 393 497 403 b 476 435 497 425 487 435 l 285 435 b 276 435 282 436 279 436 l 83 435 b 80 435 82 435 81 435 b 58 415 69 436 59 426 b 79 393 58 404 68 394 b 83 393 80 393 82 393 z m 80 435 z "},"":{"ha":556,"x_min":0,"x_max":0,"o":"m 82 1025 b 64 995 68 1025 58 1008 l 260 605 b 261 603 260 604 261 603 l 261 602 b 266 596 263 600 264 598 b 266 596 266 596 266 596 b 267 595 267 595 267 595 b 268 594 267 595 267 595 b 269 593 268 594 268 594 b 269 593 269 593 269 593 b 273 592 270 593 272 592 b 273 591 273 592 273 591 b 275 591 274 591 274 591 b 280 590 276 591 278 590 l 281 590 b 286 591 283 590 284 591 b 287 591 286 591 287 591 b 288 592 288 591 288 592 b 289 592 288 592 289 592 b 301 607 295 595 300 600 l 495 995 b 485 1023 500 1005 495 1018 b 457 1014 476 1028 462 1024 l 280 658 l 101 1014 b 82 1025 98 1021 90 1026 z m 259 393 l 259 21 b 280 0 259 10 269 0 b 301 21 291 0 301 10 l 301 196 l 476 196 b 497 217 487 196 497 206 b 476 238 497 228 487 238 l 301 238 l 301 393 l 476 393 b 497 414 487 393 497 403 b 476 435 497 425 487 435 l 285 435 b 276 435 282 436 279 436 l 83 435 b 80 435 82 435 81 435 b 58 415 69 436 59 426 b 79 393 58 404 68 394 b 83 393 80 393 82 393 z m 80 435 z "},"":{"ha":556,"x_min":0,"x_max":0,"o":"m 82 830 b 61 814 72 830 63 823 b 72 790 59 804 63 794 l 454 600 l 454 543 b 279 633 414 598 350 633 b 60 417 158 633 62 536 b 60 415 60 417 60 416 b 60 411 60 414 60 413 l 60 220 b 60 218 60 219 60 219 b 60 214 60 217 60 215 b 279 0 63 96 159 0 b 454 90 350 0 414 36 l 454 21 b 472 0 453 11 462 1 b 495 21 483 -2 495 9 l 495 413 l 495 415 l 495 610 l 495 613 l 495 615 b 495 616 495 615 495 615 l 495 617 l 495 618 b 494 619 494 618 494 619 b 494 620 494 619 494 619 b 493 621 494 620 494 620 b 493 622 493 621 493 622 b 492 623 493 622 493 622 b 492 624 492 623 492 623 b 479 633 489 628 484 632 l 91 827 b 82 830 88 829 85 829 z m 279 592 b 454 415 375 592 454 512 b 454 414 454 415 454 414 l 454 218 b 279 42 454 121 375 42 b 102 218 180 42 102 121 l 102 415 b 279 592 102 512 180 592 z m 279 592 z "},"":{"ha":556,"x_min":0,"x_max":0,"o":"m 476 830 b 466 827 472 830 469 829 l 71 631 b 60 609 63 627 59 618 b 78 592 61 600 69 593 b 90 594 82 591 86 592 l 484 790 b 496 813 493 794 497 804 b 476 830 494 822 485 829 z m 278 633 b 60 417 159 633 61 536 b 60 415 60 417 60 416 b 60 411 60 414 60 413 l 60 220 b 60 218 60 219 60 219 b 60 214 60 217 60 215 b 278 0 62 96 159 0 b 454 91 350 0 414 36 l 454 21 b 473 0 454 11 463 1 b 496 21 484 -1 496 9 l 496 413 b 496 415 496 414 496 415 l 496 613 b 475 634 496 624 486 634 b 454 613 464 634 454 624 l 454 542 b 278 633 414 597 350 633 z m 278 592 b 454 415 375 592 454 512 b 454 412 454 414 454 413 l 454 218 b 278 42 454 121 375 42 b 101 218 181 42 101 121 l 101 415 b 278 592 101 512 181 592 z m 278 592 z "},"":{"ha":556,"x_min":0,"x_max":0,"o":"m 82 1025 b 64 995 68 1025 58 1008 l 260 605 b 261 603 260 604 261 603 l 261 602 b 266 596 263 600 264 598 b 266 596 266 596 266 596 b 267 595 267 595 267 595 b 268 594 267 595 267 595 b 269 593 268 594 268 594 b 269 593 269 593 269 593 b 273 592 270 593 272 592 b 273 591 273 592 273 591 b 275 591 274 591 274 591 b 280 590 276 591 278 590 l 281 590 b 286 591 283 590 284 591 b 287 591 286 591 287 591 b 288 592 288 591 288 592 b 289 592 288 592 289 592 b 301 607 295 595 300 600 l 495 995 b 485 1023 500 1005 495 1018 b 457 1014 476 1028 462 1024 l 280 658 l 101 1014 b 82 1025 98 1021 90 1026 z m 259 393 l 259 21 b 280 0 259 10 269 0 b 301 21 291 0 301 10 l 301 196 l 476 196 b 497 217 487 196 497 206 b 476 238 497 228 487 238 l 301 238 l 301 393 l 476 393 b 497 414 487 393 497 403 b 476 435 497 425 487 435 l 285 435 b 276 435 282 436 279 436 l 83 435 b 80 435 82 435 81 435 b 58 415 69 436 59 426 b 79 393 58 404 68 394 b 83 393 80 393 82 393 z m 80 435 z "},"":{"ha":556,"x_min":0,"x_max":0,"o":"m 82 1025 b 64 995 68 1025 58 1008 l 260 605 b 261 603 260 604 261 603 l 261 602 b 266 596 263 600 264 598 b 266 596 266 596 266 596 b 267 595 267 595 267 595 b 268 594 267 595 267 595 b 269 593 268 594 268 594 b 269 593 269 593 269 593 b 273 592 270 593 272 592 b 273 591 273 592 273 591 b 275 591 274 591 274 591 b 280 590 276 591 278 590 l 281 590 b 286 591 283 590 284 591 b 287 591 286 591 287 591 b 288 592 288 591 288 592 b 289 592 288 592 289 592 b 301 607 295 595 300 600 l 495 995 b 485 1023 500 1005 495 1018 b 457 1014 476 1028 462 1024 l 280 658 l 101 1014 b 82 1025 98 1021 90 1026 z m 259 393 l 259 21 b 280 0 259 10 269 0 b 301 21 291 0 301 10 l 301 196 l 476 196 b 497 217 487 196 497 206 b 476 238 497 228 487 238 l 301 238 l 301 393 l 476 393 b 497 414 487 393 497 403 b 476 435 497 425 487 435 l 285 435 b 276 435 282 436 279 436 l 83 435 b 80 435 82 435 81 435 b 58 415 69 436 59 426 b 79 393 58 404 68 394 b 83 393 80 393 82 393 z m 80 435 z "},"":{"ha":556,"x_min":0,"x_max":0,"o":"m 82 1025 b 64 995 68 1025 58 1008 l 260 605 b 261 603 260 604 261 603 l 261 602 b 266 596 263 600 264 598 b 266 596 266 596 266 596 b 267 595 267 595 267 595 b 268 594 267 595 267 595 b 269 593 268 594 268 594 b 269 593 269 593 269 593 b 273 592 270 593 272 592 b 273 591 273 592 273 591 b 275 591 274 591 274 591 b 280 590 276 591 278 590 l 281 590 b 286 591 283 590 284 591 b 287 591 286 591 287 591 b 288 592 288 591 288 592 b 289 592 288 592 289 592 b 301 607 295 595 300 600 l 495 995 b 485 1023 500 1005 495 1018 b 457 1014 476 1028 462 1024 l 280 658 l 101 1014 b 82 1025 98 1021 90 1026 z m 259 393 l 259 21 b 280 0 259 10 269 0 b 301 21 291 0 301 10 l 301 196 l 476 196 b 497 217 487 196 497 206 b 476 238 497 228 487 238 l 301 238 l 301 393 l 476 393 b 497 414 487 393 497 403 b 476 435 497 425 487 435 l 285 435 b 276 435 282 436 279 436 l 83 435 b 80 435 82 435 81 435 b 58 415 69 436 59 426 b 79 393 58 404 68 394 b 83 393 80 393 82 393 z m 80 435 z "},"":{"ha":556,"x_min":0,"x_max":0,"o":"m 82 1025 b 64 995 68 1025 58 1008 l 260 605 b 261 603 260 604 261 603 l 261 602 b 266 596 263 600 264 598 b 266 596 266 596 266 596 b 267 595 267 595 267 595 b 268 594 267 595 267 595 b 269 593 268 594 268 594 b 269 593 269 593 269 593 b 273 592 270 593 272 592 b 273 591 273 592 273 591 b 275 591 274 591 274 591 b 280 590 276 591 278 590 l 281 590 b 286 591 283 590 284 591 b 287 591 286 591 287 591 b 288 592 288 591 288 592 b 289 592 288 592 289 592 b 301 607 295 595 300 600 l 495 995 b 485 1023 500 1005 495 1018 b 457 1014 476 1028 462 1024 l 280 658 l 101 1014 b 82 1025 98 1021 90 1026 z m 259 393 l 259 21 b 280 0 259 10 269 0 b 301 21 291 0 301 10 l 301 196 l 476 196 b 497 217 487 196 497 206 b 476 238 497 228 487 238 l 301 238 l 301 393 l 476 393 b 497 414 487 393 497 403 b 476 435 497 425 487 435 l 285 435 b 276 435 282 436 279 436 l 83 435 b 80 435 82 435 81 435 b 58 415 69 436 59 426 b 79 393 58 404 68 394 b 83 393 80 393 82 393 z m 80 435 z "},"":{"ha":556,"x_min":0,"x_max":0,"o":"m 82 1025 b 64 995 68 1025 58 1008 l 260 605 b 261 603 260 604 261 603 l 261 602 b 266 596 263 600 264 598 b 266 596 266 596 266 596 b 267 595 267 595 267 595 b 268 594 267 595 267 595 b 269 593 268 594 268 594 b 269 593 269 593 269 593 b 273 592 270 593 272 592 b 273 591 273 592 273 591 b 275 591 274 591 274 591 b 280 590 276 591 278 590 l 281 590 b 286 591 283 590 284 591 b 287 591 286 591 287 591 b 288 592 288 591 288 592 b 289 592 288 592 289 592 b 301 607 295 595 300 600 l 495 995 b 485 1023 500 1005 495 1018 b 457 1014 476 1028 462 1024 l 280 658 l 101 1014 b 82 1025 98 1021 90 1026 z m 259 393 l 259 21 b 280 0 259 10 269 0 b 301 21 291 0 301 10 l 301 196 l 476 196 b 497 217 487 196 497 206 b 476 238 497 228 487 238 l 301 238 l 301 393 l 476 393 b 497 414 487 393 497 403 b 476 435 497 425 487 435 l 285 435 b 276 435 282 436 279 436 l 83 435 b 80 435 82 435 81 435 b 58 415 69 436 59 426 b 79 393 58 404 68 394 b 83 393 80 393 82 393 z m 80 435 z "},"":{"ha":556,"x_min":0,"x_max":0,"o":"m 279 632 b 60 417 160 632 62 536 l 60 417 l 60 415 l 60 413 l 60 218 l 60 216 b 233 4 61 113 135 26 l 66 -162 b 62 -184 61 -168 59 -177 b 79 -198 64 -191 71 -197 b 96 -192 85 -198 92 -196 l 288 0 b 495 218 403 5 495 101 b 474 239 495 229 485 239 b 454 218 463 239 453 229 b 281 41 454 121 377 43 l 279 41 l 279 41 l 277 41 b 102 218 181 42 102 121 b 102 219 102 218 102 219 l 102 415 b 102 417 102 416 102 416 b 279 590 103 513 182 590 b 454 415 376 590 454 512 b 474 394 453 404 463 394 b 495 415 485 394 495 404 b 279 632 495 534 398 632 z m 279 632 z "},"":{"ha":556,"x_min":0,"x_max":0,"o":"m 79 829 b 60 812 70 829 62 821 b 71 790 58 803 63 794 l 466 592 b 473 590 468 591 471 590 b 495 605 483 589 492 596 b 485 629 498 614 493 625 l 90 827 b 79 829 87 829 83 829 z m 278 632 b 60 414 158 632 60 535 l 60 222 b 60 214 60 220 60 217 b 278 0 60 95 160 0 b 496 218 397 0 496 97 b 475 239 496 229 486 239 b 454 218 464 239 454 229 b 278 42 454 120 375 42 b 102 205 185 42 109 113 l 483 394 b 487 397 484 395 486 396 b 488 397 487 397 487 397 b 490 399 489 398 489 399 b 491 400 490 400 491 400 b 491 401 491 401 491 401 b 492 401 492 401 492 401 l 493 403 b 494 404 493 403 493 403 b 495 407 494 405 494 406 b 496 414 495 409 496 411 l 496 415 b 496 417 496 415 496 416 b 278 632 494 537 396 632 z m 278 590 b 454 427 371 590 447 519 l 102 252 l 102 410 b 102 414 102 411 102 412 l 102 415 b 278 590 102 513 181 590 z m 278 590 z "},"":{"ha":556,"x_min":0,"x_max":0,"o":"m 471 829 b 465 827 469 829 467 828 l 71 629 b 60 608 63 626 59 616 b 78 590 61 599 69 592 b 89 592 82 590 86 590 l 484 790 b 495 815 493 794 498 805 b 471 829 492 825 481 831 z m 60 222 l 60 215 b 278 0 61 95 159 0 b 496 218 397 0 496 97 b 475 239 496 229 486 239 b 454 218 464 239 454 229 b 278 42 454 120 375 42 b 102 206 185 42 108 113 l 481 394 b 482 394 481 394 481 394 l 483 394 b 484 395 483 395 484 395 b 485 395 485 395 485 395 b 488 398 486 396 487 397 b 490 399 489 398 489 399 b 495 408 492 402 494 405 b 495 410 495 409 495 409 l 495 410 l 496 412 b 496 414 496 412 496 413 b 278 632 496 535 397 632 b 60 416 159 632 61 536 l 60 416 l 60 414 b 60 412 59 413 59 413 z m 278 590 b 454 427 370 590 447 519 l 101 252 l 101 412 l 101 414 l 101 415 b 278 590 102 513 181 590 z m 278 590 z "},"":{"ha":556,"x_min":0,"x_max":0,"o":"m 82 1025 b 64 995 68 1025 58 1008 l 260 605 b 261 603 260 604 261 603 l 261 602 b 266 596 263 600 264 598 b 266 596 266 596 266 596 b 267 595 267 595 267 595 b 268 594 267 595 267 595 b 269 593 268 594 268 594 b 269 593 269 593 269 593 b 273 592 270 593 272 592 b 273 591 273 592 273 591 b 275 591 274 591 274 591 b 280 590 276 591 278 590 l 281 590 b 286 591 283 590 284 591 b 287 591 286 591 287 591 b 288 592 288 591 288 592 b 289 592 288 592 289 592 b 301 607 295 595 300 600 l 495 995 b 485 1023 500 1005 495 1018 b 457 1014 476 1028 462 1024 l 280 658 l 101 1014 b 82 1025 98 1021 90 1026 z m 259 393 l 259 21 b 280 0 259 10 269 0 b 301 21 291 0 301 10 l 301 196 l 476 196 b 497 217 487 196 497 206 b 476 238 497 228 487 238 l 301 238 l 301 393 l 476 393 b 497 414 487 393 497 403 b 476 435 497 425 487 435 l 285 435 b 276 435 282 436 279 436 l 83 435 b 80 435 82 435 81 435 b 58 415 69 436 59 426 b 79 393 58 404 68 394 b 83 393 80 393 82 393 z m 80 435 z "},"":{"ha":556,"x_min":0,"x_max":0,"o":"m 82 1025 b 64 995 68 1025 58 1008 l 260 605 b 261 603 260 604 261 603 l 261 602 b 266 596 263 600 264 598 b 266 596 266 596 266 596 b 267 595 267 595 267 595 b 268 594 267 595 267 595 b 269 593 268 594 268 594 b 269 593 269 593 269 593 b 273 592 270 593 272 592 b 273 591 273 592 273 591 b 275 591 274 591 274 591 b 280 590 276 591 278 590 l 281 590 b 286 591 283 590 284 591 b 287 591 286 591 287 591 b 288 592 288 591 288 592 b 289 592 288 592 289 592 b 301 607 295 595 300 600 l 495 995 b 485 1023 500 1005 495 1018 b 457 1014 476 1028 462 1024 l 280 658 l 101 1014 b 82 1025 98 1021 90 1026 z m 259 393 l 259 21 b 280 0 259 10 269 0 b 301 21 291 0 301 10 l 301 196 l 476 196 b 497 217 487 196 497 206 b 476 238 497 228 487 238 l 301 238 l 301 393 l 476 393 b 497 414 487 393 497 403 b 476 435 497 425 487 435 l 285 435 b 276 435 282 436 279 436 l 83 435 b 80 435 82 435 81 435 b 58 415 69 436 59 426 b 79 393 58 404 68 394 b 83 393 80 393 82 393 z m 80 435 z "},"":{"ha":556,"x_min":0,"x_max":0,"o":"m 82 1025 b 64 995 68 1025 58 1008 l 260 605 b 261 603 260 604 261 603 l 261 602 b 266 596 263 600 264 598 b 266 596 266 596 266 596 b 267 595 267 595 267 595 b 268 594 267 595 267 595 b 269 593 268 594 268 594 b 269 593 269 593 269 593 b 273 592 270 593 272 592 b 273 591 273 592 273 591 b 275 591 274 591 274 591 b 280 590 276 591 278 590 l 281 590 b 286 591 283 590 284 591 b 287 591 286 591 287 591 b 288 592 288 591 288 592 b 289 592 288 592 289 592 b 301 607 295 595 300 600 l 495 995 b 485 1023 500 1005 495 1018 b 457 1014 476 1028 462 1024 l 280 658 l 101 1014 b 82 1025 98 1021 90 1026 z m 259 393 l 259 21 b 280 0 259 10 269 0 b 301 21 291 0 301 10 l 301 196 l 476 196 b 497 217 487 196 497 206 b 476 238 497 228 487 238 l 301 238 l 301 393 l 476 393 b 497 414 487 393 497 403 b 476 435 497 425 487 435 l 285 435 b 276 435 282 436 279 436 l 83 435 b 80 435 82 435 81 435 b 58 415 69 436 59 426 b 79 393 58 404 68 394 b 83 393 80 393 82 393 z m 80 435 z "},"":{"ha":556,"x_min":0,"x_max":0,"o":"m 82 1025 b 64 995 68 1025 58 1008 l 260 605 b 261 603 260 604 261 603 l 261 602 b 266 596 263 600 264 598 b 266 596 266 596 266 596 b 267 595 267 595 267 595 b 268 594 267 595 267 595 b 269 593 268 594 268 594 b 269 593 269 593 269 593 b 273 592 270 593 272 592 b 273 591 273 592 273 591 b 275 591 274 591 274 591 b 280 590 276 591 278 590 l 281 590 b 286 591 283 590 284 591 b 287 591 286 591 287 591 b 288 592 288 591 288 592 b 289 592 288 592 289 592 b 301 607 295 595 300 600 l 495 995 b 485 1023 500 1005 495 1018 b 457 1014 476 1028 462 1024 l 280 658 l 101 1014 b 82 1025 98 1021 90 1026 z m 259 393 l 259 21 b 280 0 259 10 269 0 b 301 21 291 0 301 10 l 301 196 l 476 196 b 497 217 487 196 497 206 b 476 238 497 228 487 238 l 301 238 l 301 393 l 476 393 b 497 414 487 393 497 403 b 476 435 497 425 487 435 l 285 435 b 276 435 282 436 279 436 l 83 435 b 80 435 82 435 81 435 b 58 415 69 436 59 426 b 79 393 58 404 68 394 b 83 393 80 393 82 393 z m 80 435 z "},"":{"ha":556,"x_min":0,"x_max":0,"o":"m 82 1025 b 64 995 68 1025 58 1008 l 260 605 b 261 603 260 604 261 603 l 261 602 b 266 596 263 600 264 598 b 266 596 266 596 266 596 b 267 595 267 595 267 595 b 268 594 267 595 267 595 b 269 593 268 594 268 594 b 269 593 269 593 269 593 b 273 592 270 593 272 592 b 273 591 273 592 273 591 b 275 591 274 591 274 591 b 280 590 276 591 278 590 l 281 590 b 286 591 283 590 284 591 b 287 591 286 591 287 591 b 288 592 288 591 288 592 b 289 592 288 592 289 592 b 301 607 295 595 300 600 l 495 995 b 485 1023 500 1005 495 1018 b 457 1014 476 1028 462 1024 l 280 658 l 101 1014 b 82 1025 98 1021 90 1026 z m 259 393 l 259 21 b 280 0 259 10 269 0 b 301 21 291 0 301 10 l 301 196 l 476 196 b 497 217 487 196 497 206 b 476 238 497 228 487 238 l 301 238 l 301 393 l 476 393 b 497 414 487 393 497 403 b 476 435 497 425 487 435 l 285 435 b 276 435 282 436 279 436 l 83 435 b 80 435 82 435 81 435 b 58 415 69 436 59 426 b 79 393 58 404 68 394 b 83 393 80 393 82 393 z m 80 435 z "},"":{"ha":556,"x_min":0,"x_max":0,"o":"m 82 1025 b 64 995 68 1025 58 1008 l 260 605 b 261 603 260 604 261 603 l 261 602 b 266 596 263 600 264 598 b 266 596 266 596 266 596 b 267 595 267 595 267 595 b 268 594 267 595 267 595 b 269 593 268 594 268 594 b 269 593 269 593 269 593 b 273 592 270 593 272 592 b 273 591 273 592 273 591 b 275 591 274 591 274 591 b 280 590 276 591 278 590 l 281 590 b 286 591 283 590 284 591 b 287 591 286 591 287 591 b 288 592 288 591 288 592 b 289 592 288 592 289 592 b 301 607 295 595 300 600 l 495 995 b 485 1023 500 1005 495 1018 b 457 1014 476 1028 462 1024 l 280 658 l 101 1014 b 82 1025 98 1021 90 1026 z m 259 393 l 259 21 b 280 0 259 10 269 0 b 301 21 291 0 301 10 l 301 196 l 476 196 b 497 217 487 196 497 206 b 476 238 497 228 487 238 l 301 238 l 301 393 l 476 393 b 497 414 487 393 497 403 b 476 435 497 425 487 435 l 285 435 b 276 435 282 436 279 436 l 83 435 b 80 435 82 435 81 435 b 58 415 69 436 59 426 b 79 393 58 404 68 394 b 83 393 80 393 82 393 z m 80 435 z "},"":{"ha":556,"x_min":0,"x_max":0,"o":"m 82 1025 b 64 995 68 1025 58 1008 l 260 605 b 261 603 260 604 261 603 l 261 602 b 266 596 263 600 264 598 b 266 596 266 596 266 596 b 267 595 267 595 267 595 b 268 594 267 595 267 595 b 269 593 268 594 268 594 b 269 593 269 593 269 593 b 273 592 270 593 272 592 b 273 591 273 592 273 591 b 275 591 274 591 274 591 b 280 590 276 591 278 590 l 281 590 b 286 591 283 590 284 591 b 287 591 286 591 287 591 b 288 592 288 591 288 592 b 289 592 288 592 289 592 b 301 607 295 595 300 600 l 495 995 b 485 1023 500 1005 495 1018 b 457 1014 476 1028 462 1024 l 280 658 l 101 1014 b 82 1025 98 1021 90 1026 z m 259 393 l 259 21 b 280 0 259 10 269 0 b 301 21 291 0 301 10 l 301 196 l 476 196 b 497 217 487 196 497 206 b 476 238 497 228 487 238 l 301 238 l 301 393 l 476 393 b 497 414 487 393 497 403 b 476 435 497 425 487 435 l 285 435 b 276 435 282 436 279 436 l 83 435 b 80 435 82 435 81 435 b 58 415 69 436 59 426 b 79 393 58 404 68 394 b 83 393 80 393 82 393 z m 80 435 z "},"":{"ha":556,"x_min":0,"x_max":0,"o":"m 82 1025 b 64 995 68 1025 58 1008 l 260 605 b 261 603 260 604 261 603 l 261 602 b 266 596 263 600 264 598 b 266 596 266 596 266 596 b 267 595 267 595 267 595 b 268 594 267 595 267 595 b 269 593 268 594 268 594 b 269 593 269 593 269 593 b 273 592 270 593 272 592 b 273 591 273 592 273 591 b 275 591 274 591 274 591 b 280 590 276 591 278 590 l 281 590 b 286 591 283 590 284 591 b 287 591 286 591 287 591 b 288 592 288 591 288 592 b 289 592 288 592 289 592 b 301 607 295 595 300 600 l 495 995 b 485 1023 500 1005 495 1018 b 457 1014 476 1028 462 1024 l 280 658 l 101 1014 b 82 1025 98 1021 90 1026 z m 259 393 l 259 21 b 280 0 259 10 269 0 b 301 21 291 0 301 10 l 301 196 l 476 196 b 497 217 487 196 497 206 b 476 238 497 228 487 238 l 301 238 l 301 393 l 476 393 b 497 414 487 393 497 403 b 476 435 497 425 487 435 l 285 435 b 276 435 282 436 279 436 l 83 435 b 80 435 82 435 81 435 b 58 415 69 436 59 426 b 79 393 58 404 68 394 b 83 393 80 393 82 393 z m 80 435 z "},"":{"ha":556,"x_min":0,"x_max":0,"o":"m 81 830 b 60 814 72 830 63 823 b 71 790 58 804 63 794 l 464 592 b 472 590 466 591 469 591 b 495 605 482 589 492 595 b 484 630 498 614 493 626 l 90 827 b 81 830 87 829 84 829 z m 278 632 b 60 415 157 632 60 535 b 60 411 60 414 60 413 l 60 220 l 60 218 b 60 214 60 217 60 216 b 278 0 62 96 158 0 b 495 216 397 0 494 97 l 495 216 l 495 218 l 495 220 l 495 413 l 495 415 l 495 417 l 495 417 b 278 632 494 536 397 632 z m 278 590 b 453 415 375 590 453 512 b 453 414 453 415 453 414 l 453 220 l 453 218 b 453 217 453 218 453 217 b 278 42 452 120 374 42 b 102 218 180 42 102 121 l 102 415 b 278 590 102 512 179 590 z m 278 590 z "},"":{"ha":556,"x_min":0,"x_max":0,"o":"m 473 829 b 465 827 470 829 467 828 l 72 630 b 60 608 64 626 59 616 b 79 590 62 599 70 591 b 91 592 83 590 87 590 l 484 790 b 495 814 493 794 497 805 b 473 829 492 823 483 830 z m 279 632 b 61 415 158 632 61 535 b 61 411 60 414 60 413 l 61 220 l 61 218 b 61 214 60 217 60 215 b 279 0 63 96 159 0 b 495 216 398 0 494 97 l 495 216 l 495 218 l 495 219 l 495 414 l 495 415 l 495 417 l 495 417 b 279 632 494 536 397 632 z m 279 590 b 454 415 376 590 454 512 b 454 414 454 415 454 414 l 454 220 l 454 218 l 454 217 b 279 42 453 120 375 42 b 102 218 180 42 102 121 l 102 415 b 279 590 102 512 180 590 z m 279 590 z "},"":{"ha":556,"x_min":0,"x_max":0,"o":"m 82 1025 b 64 995 68 1025 58 1008 l 260 605 b 261 603 260 604 261 603 l 261 602 b 266 596 263 600 264 598 b 266 596 266 596 266 596 b 267 595 267 595 267 595 b 268 594 267 595 267 595 b 269 593 268 594 268 594 b 269 593 269 593 269 593 b 273 592 270 593 272 592 b 273 591 273 592 273 591 b 275 591 274 591 274 591 b 280 590 276 591 278 590 l 281 590 b 286 591 283 590 284 591 b 287 591 286 591 287 591 b 288 592 288 591 288 592 b 289 592 288 592 289 592 b 301 607 295 595 300 600 l 495 995 b 485 1023 500 1005 495 1018 b 457 1014 476 1028 462 1024 l 280 658 l 101 1014 b 82 1025 98 1021 90 1026 z m 259 393 l 259 21 b 280 0 259 10 269 0 b 301 21 291 0 301 10 l 301 196 l 476 196 b 497 217 487 196 497 206 b 476 238 497 228 487 238 l 301 238 l 301 393 l 476 393 b 497 414 487 393 497 403 b 476 435 497 425 487 435 l 285 435 b 276 435 282 436 279 436 l 83 435 b 80 435 82 435 81 435 b 58 415 69 436 59 426 b 79 393 58 404 68 394 b 83 393 80 393 82 393 z m 80 435 z "},"":{"ha":556,"x_min":0,"x_max":0,"o":"m 82 1025 b 64 995 68 1025 58 1008 l 260 605 b 261 603 260 604 261 603 l 261 602 b 266 596 263 600 264 598 b 266 596 266 596 266 596 b 267 595 267 595 267 595 b 268 594 267 595 267 595 b 269 593 268 594 268 594 b 269 593 269 593 269 593 b 273 592 270 593 272 592 b 273 591 273 592 273 591 b 275 591 274 591 274 591 b 280 590 276 591 278 590 l 281 590 b 286 591 283 590 284 591 b 287 591 286 591 287 591 b 288 592 288 591 288 592 b 289 592 288 592 289 592 b 301 607 295 595 300 600 l 495 995 b 485 1023 500 1005 495 1018 b 457 1014 476 1028 462 1024 l 280 658 l 101 1014 b 82 1025 98 1021 90 1026 z m 259 393 l 259 21 b 280 0 259 10 269 0 b 301 21 291 0 301 10 l 301 196 l 476 196 b 497 217 487 196 497 206 b 476 238 497 228 487 238 l 301 238 l 301 393 l 476 393 b 497 414 487 393 497 403 b 476 435 497 425 487 435 l 285 435 b 276 435 282 436 279 436 l 83 435 b 80 435 82 435 81 435 b 58 415 69 436 59 426 b 79 393 58 404 68 394 b 83 393 80 393 82 393 z m 80 435 z "},"":{"ha":556,"x_min":0,"x_max":0,"o":"m 82 1025 b 64 995 68 1025 58 1008 l 260 605 b 261 603 260 604 261 603 l 261 602 b 266 596 263 600 264 598 b 266 596 266 596 266 596 b 267 595 267 595 267 595 b 268 594 267 595 267 595 b 269 593 268 594 268 594 b 269 593 269 593 269 593 b 273 592 270 593 272 592 b 273 591 273 592 273 591 b 275 591 274 591 274 591 b 280 590 276 591 278 590 l 281 590 b 286 591 283 590 284 591 b 287 591 286 591 287 591 b 288 592 288 591 288 592 b 289 592 288 592 289 592 b 301 607 295 595 300 600 l 495 995 b 485 1023 500 1005 495 1018 b 457 1014 476 1028 462 1024 l 280 658 l 101 1014 b 82 1025 98 1021 90 1026 z m 259 393 l 259 21 b 280 0 259 10 269 0 b 301 21 291 0 301 10 l 301 196 l 476 196 b 497 217 487 196 497 206 b 476 238 497 228 487 238 l 301 238 l 301 393 l 476 393 b 497 414 487 393 497 403 b 476 435 497 425 487 435 l 285 435 b 276 435 282 436 279 436 l 83 435 b 80 435 82 435 81 435 b 58 415 69 436 59 426 b 79 393 58 404 68 394 b 83 393 80 393 82 393 z m 80 435 z "},"":{"ha":556,"x_min":0,"x_max":0,"o":"m 82 1025 b 64 995 68 1025 58 1008 l 260 605 b 261 603 260 604 261 603 l 261 602 b 266 596 263 600 264 598 b 266 596 266 596 266 596 b 267 595 267 595 267 595 b 268 594 267 595 267 595 b 269 593 268 594 268 594 b 269 593 269 593 269 593 b 273 592 270 593 272 592 b 273 591 273 592 273 591 b 275 591 274 591 274 591 b 280 590 276 591 278 590 l 281 590 b 286 591 283 590 284 591 b 287 591 286 591 287 591 b 288 592 288 591 288 592 b 289 592 288 592 289 592 b 301 607 295 595 300 600 l 495 995 b 485 1023 500 1005 495 1018 b 457 1014 476 1028 462 1024 l 280 658 l 101 1014 b 82 1025 98 1021 90 1026 z m 259 393 l 259 21 b 280 0 259 10 269 0 b 301 21 291 0 301 10 l 301 196 l 476 196 b 497 217 487 196 497 206 b 476 238 497 228 487 238 l 301 238 l 301 393 l 476 393 b 497 414 487 393 497 403 b 476 435 497 425 487 435 l 285 435 b 276 435 282 436 279 436 l 83 435 b 80 435 82 435 81 435 b 58 415 69 436 59 426 b 79 393 58 404 68 394 b 83 393 80 393 82 393 z m 80 435 z "},"":{"ha":556,"x_min":0,"x_max":0,"o":"m 82 1025 b 64 995 68 1025 58 1008 l 260 605 b 261 603 260 604 261 603 l 261 602 b 266 596 263 600 264 598 b 266 596 266 596 266 596 b 267 595 267 595 267 595 b 268 594 267 595 267 595 b 269 593 268 594 268 594 b 269 593 269 593 269 593 b 273 592 270 593 272 592 b 273 591 273 592 273 591 b 275 591 274 591 274 591 b 280 590 276 591 278 590 l 281 590 b 286 591 283 590 284 591 b 287 591 286 591 287 591 b 288 592 288 591 288 592 b 289 592 288 592 289 592 b 301 607 295 595 300 600 l 495 995 b 485 1023 500 1005 495 1018 b 457 1014 476 1028 462 1024 l 280 658 l 101 1014 b 82 1025 98 1021 90 1026 z m 259 393 l 259 21 b 280 0 259 10 269 0 b 301 21 291 0 301 10 l 301 196 l 476 196 b 497 217 487 196 497 206 b 476 238 497 228 487 238 l 301 238 l 301 393 l 476 393 b 497 414 487 393 497 403 b 476 435 497 425 487 435 l 285 435 b 276 435 282 436 279 436 l 83 435 b 80 435 82 435 81 435 b 58 415 69 436 59 426 b 79 393 58 404 68 394 b 83 393 80 393 82 393 z m 80 435 z "},"":{"ha":556,"x_min":0,"x_max":0,"o":"m 78 829 b 59 812 69 829 61 821 b 71 790 58 803 63 794 l 454 598 l 454 220 l 454 218 l 454 216 b 277 42 453 120 374 42 b 101 218 180 42 101 121 l 101 611 b 80 632 101 622 91 632 b 59 611 69 632 59 622 l 59 220 l 59 218 b 59 214 59 217 59 215 b 277 0 61 96 159 0 b 495 218 397 0 495 98 b 495 219 495 219 495 219 l 495 604 b 486 628 499 613 495 624 b 484 630 486 629 485 629 l 483 631 b 481 631 482 631 482 631 l 90 827 b 78 829 86 829 82 829 z m 78 829 z "},"":{"ha":556,"x_min":0,"x_max":0,"o":"m 476 830 b 466 827 473 830 469 829 l 73 631 b 67 627 71 630 69 629 b 66 626 67 627 67 627 b 66 626 66 626 66 626 b 65 625 65 626 65 625 b 63 623 64 624 64 624 l 62 622 b 61 619 62 621 62 620 b 61 618 61 619 61 618 b 60 617 61 618 61 617 b 60 616 60 616 60 616 l 60 615 l 60 614 l 60 613 b 60 608 59 611 59 609 l 60 220 l 60 218 b 60 214 60 217 60 216 b 278 0 62 96 159 0 b 496 216 397 0 495 97 l 496 218 b 496 220 496 219 496 219 l 496 611 b 475 632 496 622 486 632 b 454 611 464 632 454 622 l 454 220 l 454 218 l 454 216 b 278 42 453 120 374 42 b 101 218 181 42 101 121 l 101 598 l 484 790 b 496 813 493 794 498 804 b 476 830 494 822 485 829 z m 476 830 z "},"":{"ha":556,"x_min":0,"x_max":0,"o":"m 82 1025 b 64 995 68 1025 58 1008 l 260 605 b 261 603 260 604 261 603 l 261 602 b 266 596 263 600 264 598 b 266 596 266 596 266 596 b 267 595 267 595 267 595 b 268 594 267 595 267 595 b 269 593 268 594 268 594 b 269 593 269 593 269 593 b 273 592 270 593 272 592 b 273 591 273 592 273 591 b 275 591 274 591 274 591 b 280 590 276 591 278 590 l 281 590 b 286 591 283 590 284 591 b 287 591 286 591 287 591 b 288 592 288 591 288 592 b 289 592 288 592 289 592 b 301 607 295 595 300 600 l 495 995 b 485 1023 500 1005 495 1018 b 457 1014 476 1028 462 1024 l 280 658 l 101 1014 b 82 1025 98 1021 90 1026 z m 259 393 l 259 21 b 280 0 259 10 269 0 b 301 21 291 0 301 10 l 301 196 l 476 196 b 497 217 487 196 497 206 b 476 238 497 228 487 238 l 301 238 l 301 393 l 476 393 b 497 414 487 393 497 403 b 476 435 497 425 487 435 l 285 435 b 276 435 282 436 279 436 l 83 435 b 80 435 82 435 81 435 b 58 415 69 436 59 426 b 79 393 58 404 68 394 b 83 393 80 393 82 393 z m 80 435 z "},"":{"ha":556,"x_min":0,"x_max":0,"o":"m 82 1025 b 64 995 68 1025 58 1008 l 260 605 b 261 603 260 604 261 603 l 261 602 b 266 596 263 600 264 598 b 266 596 266 596 266 596 b 267 595 267 595 267 595 b 268 594 267 595 267 595 b 269 593 268 594 268 594 b 269 593 269 593 269 593 b 273 592 270 593 272 592 b 273 591 273 592 273 591 b 275 591 274 591 274 591 b 280 590 276 591 278 590 l 281 590 b 286 591 283 590 284 591 b 287 591 286 591 287 591 b 288 592 288 591 288 592 b 289 592 288 592 289 592 b 301 607 295 595 300 600 l 495 995 b 485 1023 500 1005 495 1018 b 457 1014 476 1028 462 1024 l 280 658 l 101 1014 b 82 1025 98 1021 90 1026 z m 259 393 l 259 21 b 280 0 259 10 269 0 b 301 21 291 0 301 10 l 301 196 l 476 196 b 497 217 487 196 497 206 b 476 238 497 228 487 238 l 301 238 l 301 393 l 476 393 b 497 414 487 393 497 403 b 476 435 497 425 487 435 l 285 435 b 276 435 282 436 279 436 l 83 435 b 80 435 82 435 81 435 b 58 415 69 436 59 426 b 79 393 58 404 68 394 b 83 393 80 393 82 393 z m 80 435 z "},"":{"ha":556,"x_min":0,"x_max":0,"o":"m 82 1025 b 64 995 68 1025 58 1008 l 260 605 b 261 603 260 604 261 603 l 261 602 b 266 596 263 600 264 598 b 266 596 266 596 266 596 b 267 595 267 595 267 595 b 268 594 267 595 267 595 b 269 593 268 594 268 594 b 269 593 269 593 269 593 b 273 592 270 593 272 592 b 273 591 273 592 273 591 b 275 591 274 591 274 591 b 280 590 276 591 278 590 l 281 590 b 286 591 283 590 284 591 b 287 591 286 591 287 591 b 288 592 288 591 288 592 b 289 592 288 592 289 592 b 301 607 295 595 300 600 l 495 995 b 485 1023 500 1005 495 1018 b 457 1014 476 1028 462 1024 l 280 658 l 101 1014 b 82 1025 98 1021 90 1026 z m 259 393 l 259 21 b 280 0 259 10 269 0 b 301 21 291 0 301 10 l 301 196 l 476 196 b 497 217 487 196 497 206 b 476 238 497 228 487 238 l 301 238 l 301 393 l 476 393 b 497 414 487 393 497 403 b 476 435 497 425 487 435 l 285 435 b 276 435 282 436 279 436 l 83 435 b 80 435 82 435 81 435 b 58 415 69 436 59 426 b 79 393 58 404 68 394 b 83 393 80 393 82 393 z m 80 435 z "},"":{"ha":556,"x_min":0,"x_max":0,"o":"m 82 1025 b 64 995 68 1025 58 1008 l 260 605 b 261 603 260 604 261 603 l 261 602 b 266 596 263 600 264 598 b 266 596 266 596 266 596 b 267 595 267 595 267 595 b 268 594 267 595 267 595 b 269 593 268 594 268 594 b 269 593 269 593 269 593 b 273 592 270 593 272 592 b 273 591 273 592 273 591 b 275 591 274 591 274 591 b 280 590 276 591 278 590 l 281 590 b 286 591 283 590 284 591 b 287 591 286 591 287 591 b 288 592 288 591 288 592 b 289 592 288 592 289 592 b 301 607 295 595 300 600 l 495 995 b 485 1023 500 1005 495 1018 b 457 1014 476 1028 462 1024 l 280 658 l 101 1014 b 82 1025 98 1021 90 1026 z m 259 393 l 259 21 b 280 0 259 10 269 0 b 301 21 291 0 301 10 l 301 196 l 476 196 b 497 217 487 196 497 206 b 476 238 497 228 487 238 l 301 238 l 301 393 l 476 393 b 497 414 487 393 497 403 b 476 435 497 425 487 435 l 285 435 b 276 435 282 436 279 436 l 83 435 b 80 435 82 435 81 435 b 58 415 69 436 59 426 b 79 393 58 404 68 394 b 83 393 80 393 82 393 z m 80 435 z "},"":{"ha":556,"x_min":0,"x_max":0,"o":"m 82 1025 b 64 995 68 1025 58 1008 l 260 605 b 261 603 260 604 261 603 l 261 602 b 266 596 263 600 264 598 b 266 596 266 596 266 596 b 267 595 267 595 267 595 b 268 594 267 595 267 595 b 269 593 268 594 268 594 b 269 593 269 593 269 593 b 273 592 270 593 272 592 b 273 591 273 592 273 591 b 275 591 274 591 274 591 b 280 590 276 591 278 590 l 281 590 b 286 591 283 590 284 591 b 287 591 286 591 287 591 b 288 592 288 591 288 592 b 289 592 288 592 289 592 b 301 607 295 595 300 600 l 495 995 b 485 1023 500 1005 495 1018 b 457 1014 476 1028 462 1024 l 280 658 l 101 1014 b 82 1025 98 1021 90 1026 z m 259 393 l 259 21 b 280 0 259 10 269 0 b 301 21 291 0 301 10 l 301 196 l 476 196 b 497 217 487 196 497 206 b 476 238 497 228 487 238 l 301 238 l 301 393 l 476 393 b 497 414 487 393 497 403 b 476 435 497 425 487 435 l 285 435 b 276 435 282 436 279 436 l 83 435 b 80 435 82 435 81 435 b 58 415 69 436 59 426 b 79 393 58 404 68 394 b 83 393 80 393 82 393 z m 80 435 z "},"":{"ha":556,"x_min":0,"x_max":0,"o":"m 82 1025 b 64 995 68 1025 58 1008 l 260 605 b 261 603 260 604 261 603 l 261 602 b 266 596 263 600 264 598 b 266 596 266 596 266 596 b 267 595 267 595 267 595 b 268 594 267 595 267 595 b 269 593 268 594 268 594 b 269 593 269 593 269 593 b 273 592 270 593 272 592 b 273 591 273 592 273 591 b 275 591 274 591 274 591 b 280 590 276 591 278 590 l 281 590 b 286 591 283 590 284 591 b 287 591 286 591 287 591 b 288 592 288 591 288 592 b 289 592 288 592 289 592 b 301 607 295 595 300 600 l 495 995 b 485 1023 500 1005 495 1018 b 457 1014 476 1028 462 1024 l 280 658 l 101 1014 b 82 1025 98 1021 90 1026 z m 259 393 l 259 21 b 280 0 259 10 269 0 b 301 21 291 0 301 10 l 301 196 l 476 196 b 497 217 487 196 497 206 b 476 238 497 228 487 238 l 301 238 l 301 393 l 476 393 b 497 414 487 393 497 403 b 476 435 497 425 487 435 l 285 435 b 276 435 282 436 279 436 l 83 435 b 80 435 82 435 81 435 b 58 415 69 436 59 426 b 79 393 58 404 68 394 b 83 393 80 393 82 393 z m 80 435 z "},"":{"ha":556,"x_min":0,"x_max":0,"o":"m 82 1025 b 64 995 68 1025 58 1008 l 260 605 b 261 603 260 604 261 603 l 261 602 b 266 596 263 600 264 598 b 266 596 266 596 266 596 b 267 595 267 595 267 595 b 268 594 267 595 267 595 b 269 593 268 594 268 594 b 269 593 269 593 269 593 b 273 592 270 593 272 592 b 273 591 273 592 273 591 b 275 591 274 591 274 591 b 280 590 276 591 278 590 l 281 590 b 286 591 283 590 284 591 b 287 591 286 591 287 591 b 288 592 288 591 288 592 b 289 592 288 592 289 592 b 301 607 295 595 300 600 l 495 995 b 485 1023 500 1005 495 1018 b 457 1014 476 1028 462 1024 l 280 658 l 101 1014 b 82 1025 98 1021 90 1026 z m 259 393 l 259 21 b 280 0 259 10 269 0 b 301 21 291 0 301 10 l 301 196 l 476 196 b 497 217 487 196 497 206 b 476 238 497 228 487 238 l 301 238 l 301 393 l 476 393 b 497 414 487 393 497 403 b 476 435 497 425 487 435 l 285 435 b 276 435 282 436 279 436 l 83 435 b 80 435 82 435 81 435 b 58 415 69 436 59 426 b 79 393 58 404 68 394 b 83 393 80 393 82 393 z m 80 435 z "},"":{"ha":556,"x_min":0,"x_max":0,"o":"m 82 1025 b 64 995 68 1025 58 1008 l 260 605 b 261 603 260 604 261 603 l 261 602 b 266 596 263 600 264 598 b 266 596 266 596 266 596 b 267 595 267 595 267 595 b 268 594 267 595 267 595 b 269 593 268 594 268 594 b 269 593 269 593 269 593 b 273 592 270 593 272 592 b 273 591 273 592 273 591 b 275 591 274 591 274 591 b 280 590 276 591 278 590 l 281 590 b 286 591 283 590 284 591 b 287 591 286 591 287 591 b 288 592 288 591 288 592 b 289 592 288 592 289 592 b 301 607 295 595 300 600 l 495 995 b 485 1023 500 1005 495 1018 b 457 1014 476 1028 462 1024 l 280 658 l 101 1014 b 82 1025 98 1021 90 1026 z m 259 393 l 259 21 b 280 0 259 10 269 0 b 301 21 291 0 301 10 l 301 196 l 476 196 b 497 217 487 196 497 206 b 476 238 497 228 487 238 l 301 238 l 301 393 l 476 393 b 497 414 487 393 497 403 b 476 435 497 425 487 435 l 285 435 b 276 435 282 436 279 436 l 83 435 b 80 435 82 435 81 435 b 58 415 69 436 59 426 b 79 393 58 404 68 394 b 83 393 80 393 82 393 z m 80 435 z "},"":{"ha":556,"x_min":0,"x_max":0,"o":"m 82 1025 b 64 995 68 1025 58 1008 l 260 605 b 261 603 260 604 261 603 l 261 602 b 266 596 263 600 264 598 b 266 596 266 596 266 596 b 267 595 267 595 267 595 b 268 594 267 595 267 595 b 269 593 268 594 268 594 b 269 593 269 593 269 593 b 273 592 270 593 272 592 b 273 591 273 592 273 591 b 275 591 274 591 274 591 b 280 590 276 591 278 590 l 281 590 b 286 591 283 590 284 591 b 287 591 286 591 287 591 b 288 592 288 591 288 592 b 289 592 288 592 289 592 b 301 607 295 595 300 600 l 495 995 b 485 1023 500 1005 495 1018 b 457 1014 476 1028 462 1024 l 280 658 l 101 1014 b 82 1025 98 1021 90 1026 z m 259 393 l 259 21 b 280 0 259 10 269 0 b 301 21 291 0 301 10 l 301 196 l 476 196 b 497 217 487 196 497 206 b 476 238 497 228 487 238 l 301 238 l 301 393 l 476 393 b 497 414 487 393 497 403 b 476 435 497 425 487 435 l 285 435 b 276 435 282 436 279 436 l 83 435 b 80 435 82 435 81 435 b 58 415 69 436 59 426 b 79 393 58 404 68 394 b 83 393 80 393 82 393 z m 80 435 z "},"":{"ha":556,"x_min":0,"x_max":0,"o":"m 82 1025 b 64 995 68 1025 58 1008 l 260 605 b 261 603 260 604 261 603 l 261 602 b 266 596 263 600 264 598 b 266 596 266 596 266 596 b 267 595 267 595 267 595 b 268 594 267 595 267 595 b 269 593 268 594 268 594 b 269 593 269 593 269 593 b 273 592 270 593 272 592 b 273 591 273 592 273 591 b 275 591 274 591 274 591 b 280 590 276 591 278 590 l 281 590 b 286 591 283 590 284 591 b 287 591 286 591 287 591 b 288 592 288 591 288 592 b 289 592 288 592 289 592 b 301 607 295 595 300 600 l 495 995 b 485 1023 500 1005 495 1018 b 457 1014 476 1028 462 1024 l 280 658 l 101 1014 b 82 1025 98 1021 90 1026 z m 259 393 l 259 21 b 280 0 259 10 269 0 b 301 21 291 0 301 10 l 301 196 l 476 196 b 497 217 487 196 497 206 b 476 238 497 228 487 238 l 301 238 l 301 393 l 476 393 b 497 414 487 393 497 403 b 476 435 497 425 487 435 l 285 435 b 276 435 282 436 279 436 l 83 435 b 80 435 82 435 81 435 b 58 415 69 436 59 426 b 79 393 58 404 68 394 b 83 393 80 393 82 393 z m 80 435 z "},"":{"ha":556,"x_min":0,"x_max":0,"o":"m 82 1025 b 64 995 68 1025 58 1008 l 260 605 b 261 603 260 604 261 603 l 261 602 b 266 596 263 600 264 598 b 266 596 266 596 266 596 b 267 595 267 595 267 595 b 268 594 267 595 267 595 b 269 593 268 594 268 594 b 269 593 269 593 269 593 b 273 592 270 593 272 592 b 273 591 273 592 273 591 b 275 591 274 591 274 591 b 280 590 276 591 278 590 l 281 590 b 286 591 283 590 284 591 b 287 591 286 591 287 591 b 288 592 288 591 288 592 b 289 592 288 592 289 592 b 301 607 295 595 300 600 l 495 995 b 485 1023 500 1005 495 1018 b 457 1014 476 1028 462 1024 l 280 658 l 101 1014 b 82 1025 98 1021 90 1026 z m 259 393 l 259 21 b 280 0 259 10 269 0 b 301 21 291 0 301 10 l 301 196 l 476 196 b 497 217 487 196 497 206 b 476 238 497 228 487 238 l 301 238 l 301 393 l 476 393 b 497 414 487 393 497 403 b 476 435 497 425 487 435 l 285 435 b 276 435 282 436 279 436 l 83 435 b 80 435 82 435 81 435 b 58 415 69 436 59 426 b 79 393 58 404 68 394 b 83 393 80 393 82 393 z m 80 435 z "},"":{"ha":556,"x_min":0,"x_max":0,"o":"m 82 1025 b 64 995 68 1025 58 1008 l 260 605 b 261 603 260 604 261 603 l 261 602 b 266 596 263 600 264 598 b 266 596 266 596 266 596 b 267 595 267 595 267 595 b 268 594 267 595 267 595 b 269 593 268 594 268 594 b 269 593 269 593 269 593 b 273 592 270 593 272 592 b 273 591 273 592 273 591 b 275 591 274 591 274 591 b 280 590 276 591 278 590 l 281 590 b 286 591 283 590 284 591 b 287 591 286 591 287 591 b 288 592 288 591 288 592 b 289 592 288 592 289 592 b 301 607 295 595 300 600 l 495 995 b 485 1023 500 1005 495 1018 b 457 1014 476 1028 462 1024 l 280 658 l 101 1014 b 82 1025 98 1021 90 1026 z m 259 393 l 259 21 b 280 0 259 10 269 0 b 301 21 291 0 301 10 l 301 196 l 476 196 b 497 217 487 196 497 206 b 476 238 497 228 487 238 l 301 238 l 301 393 l 476 393 b 497 414 487 393 497 403 b 476 435 497 425 487 435 l 285 435 b 276 435 282 436 279 436 l 83 435 b 80 435 82 435 81 435 b 58 415 69 436 59 426 b 79 393 58 404 68 394 b 83 393 80 393 82 393 z m 80 435 z "},"":{"ha":556,"x_min":0,"x_max":0,"o":"m 82 1025 b 64 995 68 1025 58 1008 l 260 605 b 261 603 260 604 261 603 l 261 602 b 266 596 263 600 264 598 b 266 596 266 596 266 596 b 267 595 267 595 267 595 b 268 594 267 595 267 595 b 269 593 268 594 268 594 b 269 593 269 593 269 593 b 273 592 270 593 272 592 b 273 591 273 592 273 591 b 275 591 274 591 274 591 b 280 590 276 591 278 590 l 281 590 b 286 591 283 590 284 591 b 287 591 286 591 287 591 b 288 592 288 591 288 592 b 289 592 288 592 289 592 b 301 607 295 595 300 600 l 495 995 b 485 1023 500 1005 495 1018 b 457 1014 476 1028 462 1024 l 280 658 l 101 1014 b 82 1025 98 1021 90 1026 z m 259 393 l 259 21 b 280 0 259 10 269 0 b 301 21 291 0 301 10 l 301 196 l 476 196 b 497 217 487 196 497 206 b 476 238 497 228 487 238 l 301 238 l 301 393 l 476 393 b 497 414 487 393 497 403 b 476 435 497 425 487 435 l 285 435 b 276 435 282 436 279 436 l 83 435 b 80 435 82 435 81 435 b 58 415 69 436 59 426 b 79 393 58 404 68 394 b 83 393 80 393 82 393 z m 80 435 z "},"":{"ha":556,"x_min":0,"x_max":0,"o":"m 82 1025 b 64 995 68 1025 58 1008 l 260 605 b 261 603 260 604 261 603 l 261 602 b 266 596 263 600 264 598 b 266 596 266 596 266 596 b 267 595 267 595 267 595 b 268 594 267 595 267 595 b 269 593 268 594 268 594 b 269 593 269 593 269 593 b 273 592 270 593 272 592 b 273 591 273 592 273 591 b 275 591 274 591 274 591 b 280 590 276 591 278 590 l 281 590 b 286 591 283 590 284 591 b 287 591 286 591 287 591 b 288 592 288 591 288 592 b 289 592 288 592 289 592 b 301 607 295 595 300 600 l 495 995 b 485 1023 500 1005 495 1018 b 457 1014 476 1028 462 1024 l 280 658 l 101 1014 b 82 1025 98 1021 90 1026 z m 259 393 l 259 21 b 280 0 259 10 269 0 b 301 21 291 0 301 10 l 301 196 l 476 196 b 497 217 487 196 497 206 b 476 238 497 228 487 238 l 301 238 l 301 393 l 476 393 b 497 414 487 393 497 403 b 476 435 497 425 487 435 l 285 435 b 276 435 282 436 279 436 l 83 435 b 80 435 82 435 81 435 b 58 415 69 436 59 426 b 79 393 58 404 68 394 b 83 393 80 393 82 393 z m 80 435 z "},"":{"ha":556,"x_min":0,"x_max":0,"o":"m 82 1025 b 64 995 68 1025 58 1008 l 260 605 b 261 603 260 604 261 603 l 261 602 b 266 596 263 600 264 598 b 266 596 266 596 266 596 b 267 595 267 595 267 595 b 268 594 267 595 267 595 b 269 593 268 594 268 594 b 269 593 269 593 269 593 b 273 592 270 593 272 592 b 273 591 273 592 273 591 b 275 591 274 591 274 591 b 280 590 276 591 278 590 l 281 590 b 286 591 283 590 284 591 b 287 591 286 591 287 591 b 288 592 288 591 288 592 b 289 592 288 592 289 592 b 301 607 295 595 300 600 l 495 995 b 485 1023 500 1005 495 1018 b 457 1014 476 1028 462 1024 l 280 658 l 101 1014 b 82 1025 98 1021 90 1026 z m 259 393 l 259 21 b 280 0 259 10 269 0 b 301 21 291 0 301 10 l 301 196 l 476 196 b 497 217 487 196 497 206 b 476 238 497 228 487 238 l 301 238 l 301 393 l 476 393 b 497 414 487 393 497 403 b 476 435 497 425 487 435 l 285 435 b 276 435 282 436 279 436 l 83 435 b 80 435 82 435 81 435 b 58 415 69 436 59 426 b 79 393 58 404 68 394 b 83 393 80 393 82 393 z m 80 435 z "},"":{"ha":556,"x_min":0,"x_max":0,"o":"m 82 1025 b 64 995 68 1025 58 1008 l 260 605 b 261 603 260 604 261 603 l 261 602 b 266 596 263 600 264 598 b 266 596 266 596 266 596 b 267 595 267 595 267 595 b 268 594 267 595 267 595 b 269 593 268 594 268 594 b 269 593 269 593 269 593 b 273 592 270 593 272 592 b 273 591 273 592 273 591 b 275 591 274 591 274 591 b 280 590 276 591 278 590 l 281 590 b 286 591 283 590 284 591 b 287 591 286 591 287 591 b 288 592 288 591 288 592 b 289 592 288 592 289 592 b 301 607 295 595 300 600 l 495 995 b 485 1023 500 1005 495 1018 b 457 1014 476 1028 462 1024 l 280 658 l 101 1014 b 82 1025 98 1021 90 1026 z m 259 393 l 259 21 b 280 0 259 10 269 0 b 301 21 291 0 301 10 l 301 196 l 476 196 b 497 217 487 196 497 206 b 476 238 497 228 487 238 l 301 238 l 301 393 l 476 393 b 497 414 487 393 497 403 b 476 435 497 425 487 435 l 285 435 b 276 435 282 436 279 436 l 83 435 b 80 435 82 435 81 435 b 58 415 69 436 59 426 b 79 393 58 404 68 394 b 83 393 80 393 82 393 z m 80 435 z "},"":{"ha":556,"x_min":0,"x_max":0,"o":"m 82 1025 b 64 995 68 1025 58 1008 l 260 605 b 261 603 260 604 261 603 l 261 602 b 266 596 263 600 264 598 b 266 596 266 596 266 596 b 267 595 267 595 267 595 b 268 594 267 595 267 595 b 269 593 268 594 268 594 b 269 593 269 593 269 593 b 273 592 270 593 272 592 b 273 591 273 592 273 591 b 275 591 274 591 274 591 b 280 590 276 591 278 590 l 281 590 b 286 591 283 590 284 591 b 287 591 286 591 287 591 b 288 592 288 591 288 592 b 289 592 288 592 289 592 b 301 607 295 595 300 600 l 495 995 b 485 1023 500 1005 495 1018 b 457 1014 476 1028 462 1024 l 280 658 l 101 1014 b 82 1025 98 1021 90 1026 z m 259 393 l 259 21 b 280 0 259 10 269 0 b 301 21 291 0 301 10 l 301 196 l 476 196 b 497 217 487 196 497 206 b 476 238 497 228 487 238 l 301 238 l 301 393 l 476 393 b 497 414 487 393 497 403 b 476 435 497 425 487 435 l 285 435 b 276 435 282 436 279 436 l 83 435 b 80 435 82 435 81 435 b 58 415 69 436 59 426 b 79 393 58 404 68 394 b 83 393 80 393 82 393 z m 80 435 z "},"":{"ha":556,"x_min":0,"x_max":0,"o":"m 82 1025 b 64 995 68 1025 58 1008 l 260 605 b 261 603 260 604 261 603 l 261 602 b 266 596 263 600 264 598 b 266 596 266 596 266 596 b 267 595 267 595 267 595 b 268 594 267 595 267 595 b 269 593 268 594 268 594 b 269 593 269 593 269 593 b 273 592 270 593 272 592 b 273 591 273 592 273 591 b 275 591 274 591 274 591 b 280 590 276 591 278 590 l 281 590 b 286 591 283 590 284 591 b 287 591 286 591 287 591 b 288 592 288 591 288 592 b 289 592 288 592 289 592 b 301 607 295 595 300 600 l 495 995 b 485 1023 500 1005 495 1018 b 457 1014 476 1028 462 1024 l 280 658 l 101 1014 b 82 1025 98 1021 90 1026 z m 259 393 l 259 21 b 280 0 259 10 269 0 b 301 21 291 0 301 10 l 301 196 l 476 196 b 497 217 487 196 497 206 b 476 238 497 228 487 238 l 301 238 l 301 393 l 476 393 b 497 414 487 393 497 403 b 476 435 497 425 487 435 l 285 435 b 276 435 282 436 279 436 l 83 435 b 80 435 82 435 81 435 b 58 415 69 436 59 426 b 79 393 58 404 68 394 b 83 393 80 393 82 393 z m 80 435 z "},"":{"ha":556,"x_min":0,"x_max":0,"o":"m 82 1025 b 64 995 68 1025 58 1008 l 260 605 b 261 603 260 604 261 603 l 261 602 b 266 596 263 600 264 598 b 266 596 266 596 266 596 b 267 595 267 595 267 595 b 268 594 267 595 267 595 b 269 593 268 594 268 594 b 269 593 269 593 269 593 b 273 592 270 593 272 592 b 273 591 273 592 273 591 b 275 591 274 591 274 591 b 280 590 276 591 278 590 l 281 590 b 286 591 283 590 284 591 b 287 591 286 591 287 591 b 288 592 288 591 288 592 b 289 592 288 592 289 592 b 301 607 295 595 300 600 l 495 995 b 485 1023 500 1005 495 1018 b 457 1014 476 1028 462 1024 l 280 658 l 101 1014 b 82 1025 98 1021 90 1026 z m 259 393 l 259 21 b 280 0 259 10 269 0 b 301 21 291 0 301 10 l 301 196 l 476 196 b 497 217 487 196 497 206 b 476 238 497 228 487 238 l 301 238 l 301 393 l 476 393 b 497 414 487 393 497 403 b 476 435 497 425 487 435 l 285 435 b 276 435 282 436 279 436 l 83 435 b 80 435 82 435 81 435 b 58 415 69 436 59 426 b 79 393 58 404 68 394 b 83 393 80 393 82 393 z m 80 435 z "},"":{"ha":556,"x_min":0,"x_max":0,"o":"m 82 1025 b 64 995 68 1025 58 1008 l 260 605 b 261 603 260 604 261 603 l 261 602 b 266 596 263 600 264 598 b 266 596 266 596 266 596 b 267 595 267 595 267 595 b 268 594 267 595 267 595 b 269 593 268 594 268 594 b 269 593 269 593 269 593 b 273 592 270 593 272 592 b 273 591 273 592 273 591 b 275 591 274 591 274 591 b 280 590 276 591 278 590 l 281 590 b 286 591 283 590 284 591 b 287 591 286 591 287 591 b 288 592 288 591 288 592 b 289 592 288 592 289 592 b 301 607 295 595 300 600 l 495 995 b 485 1023 500 1005 495 1018 b 457 1014 476 1028 462 1024 l 280 658 l 101 1014 b 82 1025 98 1021 90 1026 z m 259 393 l 259 21 b 280 0 259 10 269 0 b 301 21 291 0 301 10 l 301 196 l 476 196 b 497 217 487 196 497 206 b 476 238 497 228 487 238 l 301 238 l 301 393 l 476 393 b 497 414 487 393 497 403 b 476 435 497 425 487 435 l 285 435 b 276 435 282 436 279 436 l 83 435 b 80 435 82 435 81 435 b 58 415 69 436 59 426 b 79 393 58 404 68 394 b 83 393 80 393 82 393 z m 80 435 z "},"":{"ha":556,"x_min":0,"x_max":0,"o":"m 82 1025 b 64 995 68 1025 58 1008 l 260 605 b 261 603 260 604 261 603 l 261 602 b 266 596 263 600 264 598 b 266 596 266 596 266 596 b 267 595 267 595 267 595 b 268 594 267 595 267 595 b 269 593 268 594 268 594 b 269 593 269 593 269 593 b 273 592 270 593 272 592 b 273 591 273 592 273 591 b 275 591 274 591 274 591 b 280 590 276 591 278 590 l 281 590 b 286 591 283 590 284 591 b 287 591 286 591 287 591 b 288 592 288 591 288 592 b 289 592 288 592 289 592 b 301 607 295 595 300 600 l 495 995 b 485 1023 500 1005 495 1018 b 457 1014 476 1028 462 1024 l 280 658 l 101 1014 b 82 1025 98 1021 90 1026 z m 259 393 l 259 21 b 280 0 259 10 269 0 b 301 21 291 0 301 10 l 301 196 l 476 196 b 497 217 487 196 497 206 b 476 238 497 228 487 238 l 301 238 l 301 393 l 476 393 b 497 414 487 393 497 403 b 476 435 497 425 487 435 l 285 435 b 276 435 282 436 279 436 l 83 435 b 80 435 82 435 81 435 b 58 415 69 436 59 426 b 79 393 58 404 68 394 b 83 393 80 393 82 393 z m 80 435 z "},"":{"ha":556,"x_min":0,"x_max":0,"o":"m 82 1025 b 64 995 68 1025 58 1008 l 260 605 b 261 603 260 604 261 603 l 261 602 b 266 596 263 600 264 598 b 266 596 266 596 266 596 b 267 595 267 595 267 595 b 268 594 267 595 267 595 b 269 593 268 594 268 594 b 269 593 269 593 269 593 b 273 592 270 593 272 592 b 273 591 273 592 273 591 b 275 591 274 591 274 591 b 280 590 276 591 278 590 l 281 590 b 286 591 283 590 284 591 b 287 591 286 591 287 591 b 288 592 288 591 288 592 b 289 592 288 592 289 592 b 301 607 295 595 300 600 l 495 995 b 485 1023 500 1005 495 1018 b 457 1014 476 1028 462 1024 l 280 658 l 101 1014 b 82 1025 98 1021 90 1026 z m 259 393 l 259 21 b 280 0 259 10 269 0 b 301 21 291 0 301 10 l 301 196 l 476 196 b 497 217 487 196 497 206 b 476 238 497 228 487 238 l 301 238 l 301 393 l 476 393 b 497 414 487 393 497 403 b 476 435 497 425 487 435 l 285 435 b 276 435 282 436 279 436 l 83 435 b 80 435 82 435 81 435 b 58 415 69 436 59 426 b 79 393 58 404 68 394 b 83 393 80 393 82 393 z m 80 435 z "},"":{"ha":556,"x_min":0,"x_max":0,"o":"m 82 1025 b 64 995 68 1025 58 1008 l 260 605 b 261 603 260 604 261 603 l 261 602 b 266 596 263 600 264 598 b 266 596 266 596 266 596 b 267 595 267 595 267 595 b 268 594 267 595 267 595 b 269 593 268 594 268 594 b 269 593 269 593 269 593 b 273 592 270 593 272 592 b 273 591 273 592 273 591 b 275 591 274 591 274 591 b 280 590 276 591 278 590 l 281 590 b 286 591 283 590 284 591 b 287 591 286 591 287 591 b 288 592 288 591 288 592 b 289 592 288 592 289 592 b 301 607 295 595 300 600 l 495 995 b 485 1023 500 1005 495 1018 b 457 1014 476 1028 462 1024 l 280 658 l 101 1014 b 82 1025 98 1021 90 1026 z m 259 393 l 259 21 b 280 0 259 10 269 0 b 301 21 291 0 301 10 l 301 196 l 476 196 b 497 217 487 196 497 206 b 476 238 497 228 487 238 l 301 238 l 301 393 l 476 393 b 497 414 487 393 497 403 b 476 435 497 425 487 435 l 285 435 b 276 435 282 436 279 436 l 83 435 b 80 435 82 435 81 435 b 58 415 69 436 59 426 b 79 393 58 404 68 394 b 83 393 80 393 82 393 z m 80 435 z "},"":{"ha":556,"x_min":0,"x_max":0,"o":"m 82 1025 b 64 995 68 1025 58 1008 l 260 605 b 261 603 260 604 261 603 l 261 602 b 266 596 263 600 264 598 b 266 596 266 596 266 596 b 267 595 267 595 267 595 b 268 594 267 595 267 595 b 269 593 268 594 268 594 b 269 593 269 593 269 593 b 273 592 270 593 272 592 b 273 591 273 592 273 591 b 275 591 274 591 274 591 b 280 590 276 591 278 590 l 281 590 b 286 591 283 590 284 591 b 287 591 286 591 287 591 b 288 592 288 591 288 592 b 289 592 288 592 289 592 b 301 607 295 595 300 600 l 495 995 b 485 1023 500 1005 495 1018 b 457 1014 476 1028 462 1024 l 280 658 l 101 1014 b 82 1025 98 1021 90 1026 z m 259 393 l 259 21 b 280 0 259 10 269 0 b 301 21 291 0 301 10 l 301 196 l 476 196 b 497 217 487 196 497 206 b 476 238 497 228 487 238 l 301 238 l 301 393 l 476 393 b 497 414 487 393 497 403 b 476 435 497 425 487 435 l 285 435 b 276 435 282 436 279 436 l 83 435 b 80 435 82 435 81 435 b 58 415 69 436 59 426 b 79 393 58 404 68 394 b 83 393 80 393 82 393 z m 80 435 z "},"":{"ha":556,"x_min":0,"x_max":0,"o":"m 82 1025 b 64 995 68 1025 58 1008 l 260 605 b 261 603 260 604 261 603 l 261 602 b 266 596 263 600 264 598 b 266 596 266 596 266 596 b 267 595 267 595 267 595 b 268 594 267 595 267 595 b 269 593 268 594 268 594 b 269 593 269 593 269 593 b 273 592 270 593 272 592 b 273 591 273 592 273 591 b 275 591 274 591 274 591 b 280 590 276 591 278 590 l 281 590 b 286 591 283 590 284 591 b 287 591 286 591 287 591 b 288 592 288 591 288 592 b 289 592 288 592 289 592 b 301 607 295 595 300 600 l 495 995 b 485 1023 500 1005 495 1018 b 457 1014 476 1028 462 1024 l 280 658 l 101 1014 b 82 1025 98 1021 90 1026 z m 259 393 l 259 21 b 280 0 259 10 269 0 b 301 21 291 0 301 10 l 301 196 l 476 196 b 497 217 487 196 497 206 b 476 238 497 228 487 238 l 301 238 l 301 393 l 476 393 b 497 414 487 393 497 403 b 476 435 497 425 487 435 l 285 435 b 276 435 282 436 279 436 l 83 435 b 80 435 82 435 81 435 b 58 415 69 436 59 426 b 79 393 58 404 68 394 b 83 393 80 393 82 393 z m 80 435 z "},"":{"ha":556,"x_min":0,"x_max":0,"o":"m 82 1025 b 64 995 68 1025 58 1008 l 260 605 b 261 603 260 604 261 603 l 261 602 b 266 596 263 600 264 598 b 266 596 266 596 266 596 b 267 595 267 595 267 595 b 268 594 267 595 267 595 b 269 593 268 594 268 594 b 269 593 269 593 269 593 b 273 592 270 593 272 592 b 273 591 273 592 273 591 b 275 591 274 591 274 591 b 280 590 276 591 278 590 l 281 590 b 286 591 283 590 284 591 b 287 591 286 591 287 591 b 288 592 288 591 288 592 b 289 592 288 592 289 592 b 301 607 295 595 300 600 l 495 995 b 485 1023 500 1005 495 1018 b 457 1014 476 1028 462 1024 l 280 658 l 101 1014 b 82 1025 98 1021 90 1026 z m 259 393 l 259 21 b 280 0 259 10 269 0 b 301 21 291 0 301 10 l 301 196 l 476 196 b 497 217 487 196 497 206 b 476 238 497 228 487 238 l 301 238 l 301 393 l 476 393 b 497 414 487 393 497 403 b 476 435 497 425 487 435 l 285 435 b 276 435 282 436 279 436 l 83 435 b 80 435 82 435 81 435 b 58 415 69 436 59 426 b 79 393 58 404 68 394 b 83 393 80 393 82 393 z m 80 435 z "},"":{"ha":556,"x_min":0,"x_max":0,"o":"m 82 1025 b 64 995 68 1025 58 1008 l 260 605 b 261 603 260 604 261 603 l 261 602 b 266 596 263 600 264 598 b 266 596 266 596 266 596 b 267 595 267 595 267 595 b 268 594 267 595 267 595 b 269 593 268 594 268 594 b 269 593 269 593 269 593 b 273 592 270 593 272 592 b 273 591 273 592 273 591 b 275 591 274 591 274 591 b 280 590 276 591 278 590 l 281 590 b 286 591 283 590 284 591 b 287 591 286 591 287 591 b 288 592 288 591 288 592 b 289 592 288 592 289 592 b 301 607 295 595 300 600 l 495 995 b 485 1023 500 1005 495 1018 b 457 1014 476 1028 462 1024 l 280 658 l 101 1014 b 82 1025 98 1021 90 1026 z m 259 393 l 259 21 b 280 0 259 10 269 0 b 301 21 291 0 301 10 l 301 196 l 476 196 b 497 217 487 196 497 206 b 476 238 497 228 487 238 l 301 238 l 301 393 l 476 393 b 497 414 487 393 497 403 b 476 435 497 425 487 435 l 285 435 b 276 435 282 436 279 436 l 83 435 b 80 435 82 435 81 435 b 58 415 69 436 59 426 b 79 393 58 404 68 394 b 83 393 80 393 82 393 z m 80 435 z "},"":{"ha":556,"x_min":0,"x_max":0,"o":"m 82 1025 b 64 995 68 1025 58 1008 l 260 605 b 261 603 260 604 261 603 l 261 602 b 266 596 263 600 264 598 b 266 596 266 596 266 596 b 267 595 267 595 267 595 b 268 594 267 595 267 595 b 269 593 268 594 268 594 b 269 593 269 593 269 593 b 273 592 270 593 272 592 b 273 591 273 592 273 591 b 275 591 274 591 274 591 b 280 590 276 591 278 590 l 281 590 b 286 591 283 590 284 591 b 287 591 286 591 287 591 b 288 592 288 591 288 592 b 289 592 288 592 289 592 b 301 607 295 595 300 600 l 495 995 b 485 1023 500 1005 495 1018 b 457 1014 476 1028 462 1024 l 280 658 l 101 1014 b 82 1025 98 1021 90 1026 z m 259 393 l 259 21 b 280 0 259 10 269 0 b 301 21 291 0 301 10 l 301 196 l 476 196 b 497 217 487 196 497 206 b 476 238 497 228 487 238 l 301 238 l 301 393 l 476 393 b 497 414 487 393 497 403 b 476 435 497 425 487 435 l 285 435 b 276 435 282 436 279 436 l 83 435 b 80 435 82 435 81 435 b 58 415 69 436 59 426 b 79 393 58 404 68 394 b 83 393 80 393 82 393 z m 80 435 z "},"":{"ha":556,"x_min":0,"x_max":0,"o":"m 82 1025 b 64 995 68 1025 58 1008 l 260 605 b 261 603 260 604 261 603 l 261 602 b 266 596 263 600 264 598 b 266 596 266 596 266 596 b 267 595 267 595 267 595 b 268 594 267 595 267 595 b 269 593 268 594 268 594 b 269 593 269 593 269 593 b 273 592 270 593 272 592 b 273 591 273 592 273 591 b 275 591 274 591 274 591 b 280 590 276 591 278 590 l 281 590 b 286 591 283 590 284 591 b 287 591 286 591 287 591 b 288 592 288 591 288 592 b 289 592 288 592 289 592 b 301 607 295 595 300 600 l 495 995 b 485 1023 500 1005 495 1018 b 457 1014 476 1028 462 1024 l 280 658 l 101 1014 b 82 1025 98 1021 90 1026 z m 259 393 l 259 21 b 280 0 259 10 269 0 b 301 21 291 0 301 10 l 301 196 l 476 196 b 497 217 487 196 497 206 b 476 238 497 228 487 238 l 301 238 l 301 393 l 476 393 b 497 414 487 393 497 403 b 476 435 497 425 487 435 l 285 435 b 276 435 282 436 279 436 l 83 435 b 80 435 82 435 81 435 b 58 415 69 436 59 426 b 79 393 58 404 68 394 b 83 393 80 393 82 393 z m 80 435 z "},"":{"ha":556,"x_min":0,"x_max":0,"o":"m 82 1025 b 64 995 68 1025 58 1008 l 260 605 b 261 603 260 604 261 603 l 261 602 b 266 596 263 600 264 598 b 266 596 266 596 266 596 b 267 595 267 595 267 595 b 268 594 267 595 267 595 b 269 593 268 594 268 594 b 269 593 269 593 269 593 b 273 592 270 593 272 592 b 273 591 273 592 273 591 b 275 591 274 591 274 591 b 280 590 276 591 278 590 l 281 590 b 286 591 283 590 284 591 b 287 591 286 591 287 591 b 288 592 288 591 288 592 b 289 592 288 592 289 592 b 301 607 295 595 300 600 l 495 995 b 485 1023 500 1005 495 1018 b 457 1014 476 1028 462 1024 l 280 658 l 101 1014 b 82 1025 98 1021 90 1026 z m 259 393 l 259 21 b 280 0 259 10 269 0 b 301 21 291 0 301 10 l 301 196 l 476 196 b 497 217 487 196 497 206 b 476 238 497 228 487 238 l 301 238 l 301 393 l 476 393 b 497 414 487 393 497 403 b 476 435 497 425 487 435 l 285 435 b 276 435 282 436 279 436 l 83 435 b 80 435 82 435 81 435 b 58 415 69 436 59 426 b 79 393 58 404 68 394 b 83 393 80 393 82 393 z m 80 435 z "},"":{"ha":556,"x_min":0,"x_max":0,"o":"m 82 1025 b 64 995 68 1025 58 1008 l 260 605 b 261 603 260 604 261 603 l 261 602 b 266 596 263 600 264 598 b 266 596 266 596 266 596 b 267 595 267 595 267 595 b 268 594 267 595 267 595 b 269 593 268 594 268 594 b 269 593 269 593 269 593 b 273 592 270 593 272 592 b 273 591 273 592 273 591 b 275 591 274 591 274 591 b 280 590 276 591 278 590 l 281 590 b 286 591 283 590 284 591 b 287 591 286 591 287 591 b 288 592 288 591 288 592 b 289 592 288 592 289 592 b 301 607 295 595 300 600 l 495 995 b 485 1023 500 1005 495 1018 b 457 1014 476 1028 462 1024 l 280 658 l 101 1014 b 82 1025 98 1021 90 1026 z m 259 393 l 259 21 b 280 0 259 10 269 0 b 301 21 291 0 301 10 l 301 196 l 476 196 b 497 217 487 196 497 206 b 476 238 497 228 487 238 l 301 238 l 301 393 l 476 393 b 497 414 487 393 497 403 b 476 435 497 425 487 435 l 285 435 b 276 435 282 436 279 436 l 83 435 b 80 435 82 435 81 435 b 58 415 69 436 59 426 b 79 393 58 404 68 394 b 83 393 80 393 82 393 z m 80 435 z "},"":{"ha":556,"x_min":0,"x_max":0,"o":"m 82 1025 b 64 995 68 1025 58 1008 l 260 605 b 261 603 260 604 261 603 l 261 602 b 266 596 263 600 264 598 b 266 596 266 596 266 596 b 267 595 267 595 267 595 b 268 594 267 595 267 595 b 269 593 268 594 268 594 b 269 593 269 593 269 593 b 273 592 270 593 272 592 b 273 591 273 592 273 591 b 275 591 274 591 274 591 b 280 590 276 591 278 590 l 281 590 b 286 591 283 590 284 591 b 287 591 286 591 287 591 b 288 592 288 591 288 592 b 289 592 288 592 289 592 b 301 607 295 595 300 600 l 495 995 b 485 1023 500 1005 495 1018 b 457 1014 476 1028 462 1024 l 280 658 l 101 1014 b 82 1025 98 1021 90 1026 z m 259 393 l 259 21 b 280 0 259 10 269 0 b 301 21 291 0 301 10 l 301 196 l 476 196 b 497 217 487 196 497 206 b 476 238 497 228 487 238 l 301 238 l 301 393 l 476 393 b 497 414 487 393 497 403 b 476 435 497 425 487 435 l 285 435 b 276 435 282 436 279 436 l 83 435 b 80 435 82 435 81 435 b 58 415 69 436 59 426 b 79 393 58 404 68 394 b 83 393 80 393 82 393 z m 80 435 z "},"":{"ha":556,"x_min":0,"x_max":0,"o":"m 82 1025 b 64 995 68 1025 58 1008 l 260 605 b 261 603 260 604 261 603 l 261 602 b 266 596 263 600 264 598 b 266 596 266 596 266 596 b 267 595 267 595 267 595 b 268 594 267 595 267 595 b 269 593 268 594 268 594 b 269 593 269 593 269 593 b 273 592 270 593 272 592 b 273 591 273 592 273 591 b 275 591 274 591 274 591 b 280 590 276 591 278 590 l 281 590 b 286 591 283 590 284 591 b 287 591 286 591 287 591 b 288 592 288 591 288 592 b 289 592 288 592 289 592 b 301 607 295 595 300 600 l 495 995 b 485 1023 500 1005 495 1018 b 457 1014 476 1028 462 1024 l 280 658 l 101 1014 b 82 1025 98 1021 90 1026 z m 259 393 l 259 21 b 280 0 259 10 269 0 b 301 21 291 0 301 10 l 301 196 l 476 196 b 497 217 487 196 497 206 b 476 238 497 228 487 238 l 301 238 l 301 393 l 476 393 b 497 414 487 393 497 403 b 476 435 497 425 487 435 l 285 435 b 276 435 282 436 279 436 l 83 435 b 80 435 82 435 81 435 b 58 415 69 436 59 426 b 79 393 58 404 68 394 b 83 393 80 393 82 393 z m 80 435 z "},"":{"ha":556,"x_min":0,"x_max":0,"o":"m 82 1025 b 64 995 68 1025 58 1008 l 260 605 b 261 603 260 604 261 603 l 261 602 b 266 596 263 600 264 598 b 266 596 266 596 266 596 b 267 595 267 595 267 595 b 268 594 267 595 267 595 b 269 593 268 594 268 594 b 269 593 269 593 269 593 b 273 592 270 593 272 592 b 273 591 273 592 273 591 b 275 591 274 591 274 591 b 280 590 276 591 278 590 l 281 590 b 286 591 283 590 284 591 b 287 591 286 591 287 591 b 288 592 288 591 288 592 b 289 592 288 592 289 592 b 301 607 295 595 300 600 l 495 995 b 485 1023 500 1005 495 1018 b 457 1014 476 1028 462 1024 l 280 658 l 101 1014 b 82 1025 98 1021 90 1026 z m 259 393 l 259 21 b 280 0 259 10 269 0 b 301 21 291 0 301 10 l 301 196 l 476 196 b 497 217 487 196 497 206 b 476 238 497 228 487 238 l 301 238 l 301 393 l 476 393 b 497 414 487 393 497 403 b 476 435 497 425 487 435 l 285 435 b 276 435 282 436 279 436 l 83 435 b 80 435 82 435 81 435 b 58 415 69 436 59 426 b 79 393 58 404 68 394 b 83 393 80 393 82 393 z m 80 435 z "},"":{"ha":556,"x_min":0,"x_max":0,"o":"m 82 1025 b 64 995 68 1025 58 1008 l 260 605 b 261 603 260 604 261 603 l 261 602 b 266 596 263 600 264 598 b 266 596 266 596 266 596 b 267 595 267 595 267 595 b 268 594 267 595 267 595 b 269 593 268 594 268 594 b 269 593 269 593 269 593 b 273 592 270 593 272 592 b 273 591 273 592 273 591 b 275 591 274 591 274 591 b 280 590 276 591 278 590 l 281 590 b 286 591 283 590 284 591 b 287 591 286 591 287 591 b 288 592 288 591 288 592 b 289 592 288 592 289 592 b 301 607 295 595 300 600 l 495 995 b 485 1023 500 1005 495 1018 b 457 1014 476 1028 462 1024 l 280 658 l 101 1014 b 82 1025 98 1021 90 1026 z m 259 393 l 259 21 b 280 0 259 10 269 0 b 301 21 291 0 301 10 l 301 196 l 476 196 b 497 217 487 196 497 206 b 476 238 497 228 487 238 l 301 238 l 301 393 l 476 393 b 497 414 487 393 497 403 b 476 435 497 425 487 435 l 285 435 b 276 435 282 436 279 436 l 83 435 b 80 435 82 435 81 435 b 58 415 69 436 59 426 b 79 393 58 404 68 394 b 83 393 80 393 82 393 z m 80 435 z "},"":{"ha":556,"x_min":0,"x_max":0,"o":"m 82 1025 b 64 995 68 1025 58 1008 l 260 605 b 261 603 260 604 261 603 l 261 602 b 266 596 263 600 264 598 b 266 596 266 596 266 596 b 267 595 267 595 267 595 b 268 594 267 595 267 595 b 269 593 268 594 268 594 b 269 593 269 593 269 593 b 273 592 270 593 272 592 b 273 591 273 592 273 591 b 275 591 274 591 274 591 b 280 590 276 591 278 590 l 281 590 b 286 591 283 590 284 591 b 287 591 286 591 287 591 b 288 592 288 591 288 592 b 289 592 288 592 289 592 b 301 607 295 595 300 600 l 495 995 b 485 1023 500 1005 495 1018 b 457 1014 476 1028 462 1024 l 280 658 l 101 1014 b 82 1025 98 1021 90 1026 z m 259 393 l 259 21 b 280 0 259 10 269 0 b 301 21 291 0 301 10 l 301 196 l 476 196 b 497 217 487 196 497 206 b 476 238 497 228 487 238 l 301 238 l 301 393 l 476 393 b 497 414 487 393 497 403 b 476 435 497 425 487 435 l 285 435 b 276 435 282 436 279 436 l 83 435 b 80 435 82 435 81 435 b 58 415 69 436 59 426 b 79 393 58 404 68 394 b 83 393 80 393 82 393 z m 80 435 z "},"":{"ha":556,"x_min":0,"x_max":0,"o":"m 82 1025 b 64 995 68 1025 58 1008 l 260 605 b 261 603 260 604 261 603 l 261 602 b 266 596 263 600 264 598 b 266 596 266 596 266 596 b 267 595 267 595 267 595 b 268 594 267 595 267 595 b 269 593 268 594 268 594 b 269 593 269 593 269 593 b 273 592 270 593 272 592 b 273 591 273 592 273 591 b 275 591 274 591 274 591 b 280 590 276 591 278 590 l 281 590 b 286 591 283 590 284 591 b 287 591 286 591 287 591 b 288 592 288 591 288 592 b 289 592 288 592 289 592 b 301 607 295 595 300 600 l 495 995 b 485 1023 500 1005 495 1018 b 457 1014 476 1028 462 1024 l 280 658 l 101 1014 b 82 1025 98 1021 90 1026 z m 259 393 l 259 21 b 280 0 259 10 269 0 b 301 21 291 0 301 10 l 301 196 l 476 196 b 497 217 487 196 497 206 b 476 238 497 228 487 238 l 301 238 l 301 393 l 476 393 b 497 414 487 393 497 403 b 476 435 497 425 487 435 l 285 435 b 276 435 282 436 279 436 l 83 435 b 80 435 82 435 81 435 b 58 415 69 436 59 426 b 79 393 58 404 68 394 b 83 393 80 393 82 393 z m 80 435 z "},"":{"ha":556,"x_min":0,"x_max":0,"o":"m 82 1025 b 64 995 68 1025 58 1008 l 260 605 b 261 603 260 604 261 603 l 261 602 b 266 596 263 600 264 598 b 266 596 266 596 266 596 b 267 595 267 595 267 595 b 268 594 267 595 267 595 b 269 593 268 594 268 594 b 269 593 269 593 269 593 b 273 592 270 593 272 592 b 273 591 273 592 273 591 b 275 591 274 591 274 591 b 280 590 276 591 278 590 l 281 590 b 286 591 283 590 284 591 b 287 591 286 591 287 591 b 288 592 288 591 288 592 b 289 592 288 592 289 592 b 301 607 295 595 300 600 l 495 995 b 485 1023 500 1005 495 1018 b 457 1014 476 1028 462 1024 l 280 658 l 101 1014 b 82 1025 98 1021 90 1026 z m 259 393 l 259 21 b 280 0 259 10 269 0 b 301 21 291 0 301 10 l 301 196 l 476 196 b 497 217 487 196 497 206 b 476 238 497 228 487 238 l 301 238 l 301 393 l 476 393 b 497 414 487 393 497 403 b 476 435 497 425 487 435 l 285 435 b 276 435 282 436 279 436 l 83 435 b 80 435 82 435 81 435 b 58 415 69 436 59 426 b 79 393 58 404 68 394 b 83 393 80 393 82 393 z m 80 435 z "},"":{"ha":556,"x_min":0,"x_max":0,"o":"m 82 1025 b 64 995 68 1025 58 1008 l 260 605 b 261 603 260 604 261 603 l 261 602 b 266 596 263 600 264 598 b 266 596 266 596 266 596 b 267 595 267 595 267 595 b 268 594 267 595 267 595 b 269 593 268 594 268 594 b 269 593 269 593 269 593 b 273 592 270 593 272 592 b 273 591 273 592 273 591 b 275 591 274 591 274 591 b 280 590 276 591 278 590 l 281 590 b 286 591 283 590 284 591 b 287 591 286 591 287 591 b 288 592 288 591 288 592 b 289 592 288 592 289 592 b 301 607 295 595 300 600 l 495 995 b 485 1023 500 1005 495 1018 b 457 1014 476 1028 462 1024 l 280 658 l 101 1014 b 82 1025 98 1021 90 1026 z m 259 393 l 259 21 b 280 0 259 10 269 0 b 301 21 291 0 301 10 l 301 196 l 476 196 b 497 217 487 196 497 206 b 476 238 497 228 487 238 l 301 238 l 301 393 l 476 393 b 497 414 487 393 497 403 b 476 435 497 425 487 435 l 285 435 b 276 435 282 436 279 436 l 83 435 b 80 435 82 435 81 435 b 58 415 69 436 59 426 b 79 393 58 404 68 394 b 83 393 80 393 82 393 z m 80 435 z "},"":{"ha":556,"x_min":0,"x_max":0,"o":"m 82 1025 b 64 995 68 1025 58 1008 l 260 605 b 261 603 260 604 261 603 l 261 602 b 266 596 263 600 264 598 b 266 596 266 596 266 596 b 267 595 267 595 267 595 b 268 594 267 595 267 595 b 269 593 268 594 268 594 b 269 593 269 593 269 593 b 273 592 270 593 272 592 b 273 591 273 592 273 591 b 275 591 274 591 274 591 b 280 590 276 591 278 590 l 281 590 b 286 591 283 590 284 591 b 287 591 286 591 287 591 b 288 592 288 591 288 592 b 289 592 288 592 289 592 b 301 607 295 595 300 600 l 495 995 b 485 1023 500 1005 495 1018 b 457 1014 476 1028 462 1024 l 280 658 l 101 1014 b 82 1025 98 1021 90 1026 z m 259 393 l 259 21 b 280 0 259 10 269 0 b 301 21 291 0 301 10 l 301 196 l 476 196 b 497 217 487 196 497 206 b 476 238 497 228 487 238 l 301 238 l 301 393 l 476 393 b 497 414 487 393 497 403 b 476 435 497 425 487 435 l 285 435 b 276 435 282 436 279 436 l 83 435 b 80 435 82 435 81 435 b 58 415 69 436 59 426 b 79 393 58 404 68 394 b 83 393 80 393 82 393 z m 80 435 z "},"":{"ha":556,"x_min":0,"x_max":0,"o":"m 82 1025 b 64 995 68 1025 58 1008 l 260 605 b 261 603 260 604 261 603 l 261 602 b 266 596 263 600 264 598 b 266 596 266 596 266 596 b 267 595 267 595 267 595 b 268 594 267 595 267 595 b 269 593 268 594 268 594 b 269 593 269 593 269 593 b 273 592 270 593 272 592 b 273 591 273 592 273 591 b 275 591 274 591 274 591 b 280 590 276 591 278 590 l 281 590 b 286 591 283 590 284 591 b 287 591 286 591 287 591 b 288 592 288 591 288 592 b 289 592 288 592 289 592 b 301 607 295 595 300 600 l 495 995 b 485 1023 500 1005 495 1018 b 457 1014 476 1028 462 1024 l 280 658 l 101 1014 b 82 1025 98 1021 90 1026 z m 259 393 l 259 21 b 280 0 259 10 269 0 b 301 21 291 0 301 10 l 301 196 l 476 196 b 497 217 487 196 497 206 b 476 238 497 228 487 238 l 301 238 l 301 393 l 476 393 b 497 414 487 393 497 403 b 476 435 497 425 487 435 l 285 435 b 276 435 282 436 279 436 l 83 435 b 80 435 82 435 81 435 b 58 415 69 436 59 426 b 79 393 58 404 68 394 b 83 393 80 393 82 393 z m 80 435 z "},"":{"ha":556,"x_min":0,"x_max":0,"o":"m 82 1025 b 64 995 68 1025 58 1008 l 260 605 b 261 603 260 604 261 603 l 261 602 b 266 596 263 600 264 598 b 266 596 266 596 266 596 b 267 595 267 595 267 595 b 268 594 267 595 267 595 b 269 593 268 594 268 594 b 269 593 269 593 269 593 b 273 592 270 593 272 592 b 273 591 273 592 273 591 b 275 591 274 591 274 591 b 280 590 276 591 278 590 l 281 590 b 286 591 283 590 284 591 b 287 591 286 591 287 591 b 288 592 288 591 288 592 b 289 592 288 592 289 592 b 301 607 295 595 300 600 l 495 995 b 485 1023 500 1005 495 1018 b 457 1014 476 1028 462 1024 l 280 658 l 101 1014 b 82 1025 98 1021 90 1026 z m 259 393 l 259 21 b 280 0 259 10 269 0 b 301 21 291 0 301 10 l 301 196 l 476 196 b 497 217 487 196 497 206 b 476 238 497 228 487 238 l 301 238 l 301 393 l 476 393 b 497 414 487 393 497 403 b 476 435 497 425 487 435 l 285 435 b 276 435 282 436 279 436 l 83 435 b 80 435 82 435 81 435 b 58 415 69 436 59 426 b 79 393 58 404 68 394 b 83 393 80 393 82 393 z m 80 435 z "},"":{"ha":556,"x_min":0,"x_max":0,"o":"m 82 1025 b 64 995 68 1025 58 1008 l 260 605 b 261 603 260 604 261 603 l 261 602 b 266 596 263 600 264 598 b 266 596 266 596 266 596 b 267 595 267 595 267 595 b 268 594 267 595 267 595 b 269 593 268 594 268 594 b 269 593 269 593 269 593 b 273 592 270 593 272 592 b 273 591 273 592 273 591 b 275 591 274 591 274 591 b 280 590 276 591 278 590 l 281 590 b 286 591 283 590 284 591 b 287 591 286 591 287 591 b 288 592 288 591 288 592 b 289 592 288 592 289 592 b 301 607 295 595 300 600 l 495 995 b 485 1023 500 1005 495 1018 b 457 1014 476 1028 462 1024 l 280 658 l 101 1014 b 82 1025 98 1021 90 1026 z m 259 393 l 259 21 b 280 0 259 10 269 0 b 301 21 291 0 301 10 l 301 196 l 476 196 b 497 217 487 196 497 206 b 476 238 497 228 487 238 l 301 238 l 301 393 l 476 393 b 497 414 487 393 497 403 b 476 435 497 425 487 435 l 285 435 b 276 435 282 436 279 436 l 83 435 b 80 435 82 435 81 435 b 58 415 69 436 59 426 b 79 393 58 404 68 394 b 83 393 80 393 82 393 z m 80 435 z "},"":{"ha":556,"x_min":0,"x_max":0,"o":"m 82 1025 b 64 995 68 1025 58 1008 l 260 605 b 261 603 260 604 261 603 l 261 602 b 266 596 263 600 264 598 b 266 596 266 596 266 596 b 267 595 267 595 267 595 b 268 594 267 595 267 595 b 269 593 268 594 268 594 b 269 593 269 593 269 593 b 273 592 270 593 272 592 b 273 591 273 592 273 591 b 275 591 274 591 274 591 b 280 590 276 591 278 590 l 281 590 b 286 591 283 590 284 591 b 287 591 286 591 287 591 b 288 592 288 591 288 592 b 289 592 288 592 289 592 b 301 607 295 595 300 600 l 495 995 b 485 1023 500 1005 495 1018 b 457 1014 476 1028 462 1024 l 280 658 l 101 1014 b 82 1025 98 1021 90 1026 z m 259 393 l 259 21 b 280 0 259 10 269 0 b 301 21 291 0 301 10 l 301 196 l 476 196 b 497 217 487 196 497 206 b 476 238 497 228 487 238 l 301 238 l 301 393 l 476 393 b 497 414 487 393 497 403 b 476 435 497 425 487 435 l 285 435 b 276 435 282 436 279 436 l 83 435 b 80 435 82 435 81 435 b 58 415 69 436 59 426 b 79 393 58 404 68 394 b 83 393 80 393 82 393 z m 80 435 z "},"":{"ha":556,"x_min":0,"x_max":0,"o":"m 82 1025 b 64 995 68 1025 58 1008 l 260 605 b 261 603 260 604 261 603 l 261 602 b 266 596 263 600 264 598 b 266 596 266 596 266 596 b 267 595 267 595 267 595 b 268 594 267 595 267 595 b 269 593 268 594 268 594 b 269 593 269 593 269 593 b 273 592 270 593 272 592 b 273 591 273 592 273 591 b 275 591 274 591 274 591 b 280 590 276 591 278 590 l 281 590 b 286 591 283 590 284 591 b 287 591 286 591 287 591 b 288 592 288 591 288 592 b 289 592 288 592 289 592 b 301 607 295 595 300 600 l 495 995 b 485 1023 500 1005 495 1018 b 457 1014 476 1028 462 1024 l 280 658 l 101 1014 b 82 1025 98 1021 90 1026 z m 259 393 l 259 21 b 280 0 259 10 269 0 b 301 21 291 0 301 10 l 301 196 l 476 196 b 497 217 487 196 497 206 b 476 238 497 228 487 238 l 301 238 l 301 393 l 476 393 b 497 414 487 393 497 403 b 476 435 497 425 487 435 l 285 435 b 276 435 282 436 279 436 l 83 435 b 80 435 82 435 81 435 b 58 415 69 436 59 426 b 79 393 58 404 68 394 b 83 393 80 393 82 393 z m 80 435 z "},"":{"ha":556,"x_min":0,"x_max":0,"o":"m 82 1025 b 64 995 68 1025 58 1008 l 260 605 b 261 603 260 604 261 603 l 261 602 b 266 596 263 600 264 598 b 266 596 266 596 266 596 b 267 595 267 595 267 595 b 268 594 267 595 267 595 b 269 593 268 594 268 594 b 269 593 269 593 269 593 b 273 592 270 593 272 592 b 273 591 273 592 273 591 b 275 591 274 591 274 591 b 280 590 276 591 278 590 l 281 590 b 286 591 283 590 284 591 b 287 591 286 591 287 591 b 288 592 288 591 288 592 b 289 592 288 592 289 592 b 301 607 295 595 300 600 l 495 995 b 485 1023 500 1005 495 1018 b 457 1014 476 1028 462 1024 l 280 658 l 101 1014 b 82 1025 98 1021 90 1026 z m 259 393 l 259 21 b 280 0 259 10 269 0 b 301 21 291 0 301 10 l 301 196 l 476 196 b 497 217 487 196 497 206 b 476 238 497 228 487 238 l 301 238 l 301 393 l 476 393 b 497 414 487 393 497 403 b 476 435 497 425 487 435 l 285 435 b 276 435 282 436 279 436 l 83 435 b 80 435 82 435 81 435 b 58 415 69 436 59 426 b 79 393 58 404 68 394 b 83 393 80 393 82 393 z m 80 435 z "},"":{"ha":556,"x_min":0,"x_max":0,"o":"m 82 1025 b 64 995 68 1025 58 1008 l 260 605 b 261 603 260 604 261 603 l 261 602 b 266 596 263 600 264 598 b 266 596 266 596 266 596 b 267 595 267 595 267 595 b 268 594 267 595 267 595 b 269 593 268 594 268 594 b 269 593 269 593 269 593 b 273 592 270 593 272 592 b 273 591 273 592 273 591 b 275 591 274 591 274 591 b 280 590 276 591 278 590 l 281 590 b 286 591 283 590 284 591 b 287 591 286 591 287 591 b 288 592 288 591 288 592 b 289 592 288 592 289 592 b 301 607 295 595 300 600 l 495 995 b 485 1023 500 1005 495 1018 b 457 1014 476 1028 462 1024 l 280 658 l 101 1014 b 82 1025 98 1021 90 1026 z m 259 393 l 259 21 b 280 0 259 10 269 0 b 301 21 291 0 301 10 l 301 196 l 476 196 b 497 217 487 196 497 206 b 476 238 497 228 487 238 l 301 238 l 301 393 l 476 393 b 497 414 487 393 497 403 b 476 435 497 425 487 435 l 285 435 b 276 435 282 436 279 436 l 83 435 b 80 435 82 435 81 435 b 58 415 69 436 59 426 b 79 393 58 404 68 394 b 83 393 80 393 82 393 z m 80 435 z "},"":{"ha":556,"x_min":0,"x_max":0,"o":"m 82 1025 b 64 995 68 1025 58 1008 l 260 605 b 261 603 260 604 261 603 l 261 602 b 266 596 263 600 264 598 b 266 596 266 596 266 596 b 267 595 267 595 267 595 b 268 594 267 595 267 595 b 269 593 268 594 268 594 b 269 593 269 593 269 593 b 273 592 270 593 272 592 b 273 591 273 592 273 591 b 275 591 274 591 274 591 b 280 590 276 591 278 590 l 281 590 b 286 591 283 590 284 591 b 287 591 286 591 287 591 b 288 592 288 591 288 592 b 289 592 288 592 289 592 b 301 607 295 595 300 600 l 495 995 b 485 1023 500 1005 495 1018 b 457 1014 476 1028 462 1024 l 280 658 l 101 1014 b 82 1025 98 1021 90 1026 z m 259 393 l 259 21 b 280 0 259 10 269 0 b 301 21 291 0 301 10 l 301 196 l 476 196 b 497 217 487 196 497 206 b 476 238 497 228 487 238 l 301 238 l 301 393 l 476 393 b 497 414 487 393 497 403 b 476 435 497 425 487 435 l 285 435 b 276 435 282 436 279 436 l 83 435 b 80 435 82 435 81 435 b 58 415 69 436 59 426 b 79 393 58 404 68 394 b 83 393 80 393 82 393 z m 80 435 z "},"":{"ha":556,"x_min":0,"x_max":0,"o":"m 82 1025 b 64 995 68 1025 58 1008 l 260 605 b 261 603 260 604 261 603 l 261 602 b 266 596 263 600 264 598 b 266 596 266 596 266 596 b 267 595 267 595 267 595 b 268 594 267 595 267 595 b 269 593 268 594 268 594 b 269 593 269 593 269 593 b 273 592 270 593 272 592 b 273 591 273 592 273 591 b 275 591 274 591 274 591 b 280 590 276 591 278 590 l 281 590 b 286 591 283 590 284 591 b 287 591 286 591 287 591 b 288 592 288 591 288 592 b 289 592 288 592 289 592 b 301 607 295 595 300 600 l 495 995 b 485 1023 500 1005 495 1018 b 457 1014 476 1028 462 1024 l 280 658 l 101 1014 b 82 1025 98 1021 90 1026 z m 259 393 l 259 21 b 280 0 259 10 269 0 b 301 21 291 0 301 10 l 301 196 l 476 196 b 497 217 487 196 497 206 b 476 238 497 228 487 238 l 301 238 l 301 393 l 476 393 b 497 414 487 393 497 403 b 476 435 497 425 487 435 l 285 435 b 276 435 282 436 279 436 l 83 435 b 80 435 82 435 81 435 b 58 415 69 436 59 426 b 79 393 58 404 68 394 b 83 393 80 393 82 393 z m 80 435 z "},"":{"ha":556,"x_min":0,"x_max":0,"o":"m 82 1025 b 64 995 68 1025 58 1008 l 260 605 b 261 603 260 604 261 603 l 261 602 b 266 596 263 600 264 598 b 266 596 266 596 266 596 b 267 595 267 595 267 595 b 268 594 267 595 267 595 b 269 593 268 594 268 594 b 269 593 269 593 269 593 b 273 592 270 593 272 592 b 273 591 273 592 273 591 b 275 591 274 591 274 591 b 280 590 276 591 278 590 l 281 590 b 286 591 283 590 284 591 b 287 591 286 591 287 591 b 288 592 288 591 288 592 b 289 592 288 592 289 592 b 301 607 295 595 300 600 l 495 995 b 485 1023 500 1005 495 1018 b 457 1014 476 1028 462 1024 l 280 658 l 101 1014 b 82 1025 98 1021 90 1026 z m 259 393 l 259 21 b 280 0 259 10 269 0 b 301 21 291 0 301 10 l 301 196 l 476 196 b 497 217 487 196 497 206 b 476 238 497 228 487 238 l 301 238 l 301 393 l 476 393 b 497 414 487 393 497 403 b 476 435 497 425 487 435 l 285 435 b 276 435 282 436 279 436 l 83 435 b 80 435 82 435 81 435 b 58 415 69 436 59 426 b 79 393 58 404 68 394 b 83 393 80 393 82 393 z m 80 435 z "},"":{"ha":556,"x_min":0,"x_max":0,"o":"m 82 1025 b 64 995 68 1025 58 1008 l 260 605 b 261 603 260 604 261 603 l 261 602 b 266 596 263 600 264 598 b 266 596 266 596 266 596 b 267 595 267 595 267 595 b 268 594 267 595 267 595 b 269 593 268 594 268 594 b 269 593 269 593 269 593 b 273 592 270 593 272 592 b 273 591 273 592 273 591 b 275 591 274 591 274 591 b 280 590 276 591 278 590 l 281 590 b 286 591 283 590 284 591 b 287 591 286 591 287 591 b 288 592 288 591 288 592 b 289 592 288 592 289 592 b 301 607 295 595 300 600 l 495 995 b 485 1023 500 1005 495 1018 b 457 1014 476 1028 462 1024 l 280 658 l 101 1014 b 82 1025 98 1021 90 1026 z m 259 393 l 259 21 b 280 0 259 10 269 0 b 301 21 291 0 301 10 l 301 196 l 476 196 b 497 217 487 196 497 206 b 476 238 497 228 487 238 l 301 238 l 301 393 l 476 393 b 497 414 487 393 497 403 b 476 435 497 425 487 435 l 285 435 b 276 435 282 436 279 436 l 83 435 b 80 435 82 435 81 435 b 58 415 69 436 59 426 b 79 393 58 404 68 394 b 83 393 80 393 82 393 z m 80 435 z "},"":{"ha":556,"x_min":0,"x_max":0,"o":"m 82 1025 b 64 995 68 1025 58 1008 l 260 605 b 261 603 260 604 261 603 l 261 602 b 266 596 263 600 264 598 b 266 596 266 596 266 596 b 267 595 267 595 267 595 b 268 594 267 595 267 595 b 269 593 268 594 268 594 b 269 593 269 593 269 593 b 273 592 270 593 272 592 b 273 591 273 592 273 591 b 275 591 274 591 274 591 b 280 590 276 591 278 590 l 281 590 b 286 591 283 590 284 591 b 287 591 286 591 287 591 b 288 592 288 591 288 592 b 289 592 288 592 289 592 b 301 607 295 595 300 600 l 495 995 b 485 1023 500 1005 495 1018 b 457 1014 476 1028 462 1024 l 280 658 l 101 1014 b 82 1025 98 1021 90 1026 z m 259 393 l 259 21 b 280 0 259 10 269 0 b 301 21 291 0 301 10 l 301 196 l 476 196 b 497 217 487 196 497 206 b 476 238 497 228 487 238 l 301 238 l 301 393 l 476 393 b 497 414 487 393 497 403 b 476 435 497 425 487 435 l 285 435 b 276 435 282 436 279 436 l 83 435 b 80 435 82 435 81 435 b 58 415 69 436 59 426 b 79 393 58 404 68 394 b 83 393 80 393 82 393 z m 80 435 z "},"":{"ha":556,"x_min":0,"x_max":0,"o":"m 82 1025 b 64 995 68 1025 58 1008 l 260 605 b 261 603 260 604 261 603 l 261 602 b 266 596 263 600 264 598 b 266 596 266 596 266 596 b 267 595 267 595 267 595 b 268 594 267 595 267 595 b 269 593 268 594 268 594 b 269 593 269 593 269 593 b 273 592 270 593 272 592 b 273 591 273 592 273 591 b 275 591 274 591 274 591 b 280 590 276 591 278 590 l 281 590 b 286 591 283 590 284 591 b 287 591 286 591 287 591 b 288 592 288 591 288 592 b 289 592 288 592 289 592 b 301 607 295 595 300 600 l 495 995 b 485 1023 500 1005 495 1018 b 457 1014 476 1028 462 1024 l 280 658 l 101 1014 b 82 1025 98 1021 90 1026 z m 259 393 l 259 21 b 280 0 259 10 269 0 b 301 21 291 0 301 10 l 301 196 l 476 196 b 497 217 487 196 497 206 b 476 238 497 228 487 238 l 301 238 l 301 393 l 476 393 b 497 414 487 393 497 403 b 476 435 497 425 487 435 l 285 435 b 276 435 282 436 279 436 l 83 435 b 80 435 82 435 81 435 b 58 415 69 436 59 426 b 79 393 58 404 68 394 b 83 393 80 393 82 393 z m 80 435 z "},"":{"ha":556,"x_min":0,"x_max":0,"o":"m 82 1025 b 64 995 68 1025 58 1008 l 260 605 b 261 603 260 604 261 603 l 261 602 b 266 596 263 600 264 598 b 266 596 266 596 266 596 b 267 595 267 595 267 595 b 268 594 267 595 267 595 b 269 593 268 594 268 594 b 269 593 269 593 269 593 b 273 592 270 593 272 592 b 273 591 273 592 273 591 b 275 591 274 591 274 591 b 280 590 276 591 278 590 l 281 590 b 286 591 283 590 284 591 b 287 591 286 591 287 591 b 288 592 288 591 288 592 b 289 592 288 592 289 592 b 301 607 295 595 300 600 l 495 995 b 485 1023 500 1005 495 1018 b 457 1014 476 1028 462 1024 l 280 658 l 101 1014 b 82 1025 98 1021 90 1026 z m 259 393 l 259 21 b 280 0 259 10 269 0 b 301 21 291 0 301 10 l 301 196 l 476 196 b 497 217 487 196 497 206 b 476 238 497 228 487 238 l 301 238 l 301 393 l 476 393 b 497 414 487 393 497 403 b 476 435 497 425 487 435 l 285 435 b 276 435 282 436 279 436 l 83 435 b 80 435 82 435 81 435 b 58 415 69 436 59 426 b 79 393 58 404 68 394 b 83 393 80 393 82 393 z m 80 435 z "},"":{"ha":556,"x_min":0,"x_max":0,"o":"m 82 1025 b 64 995 68 1025 58 1008 l 260 605 b 261 603 260 604 261 603 l 261 602 b 266 596 263 600 264 598 b 266 596 266 596 266 596 b 267 595 267 595 267 595 b 268 594 267 595 267 595 b 269 593 268 594 268 594 b 269 593 269 593 269 593 b 273 592 270 593 272 592 b 273 591 273 592 273 591 b 275 591 274 591 274 591 b 280 590 276 591 278 590 l 281 590 b 286 591 283 590 284 591 b 287 591 286 591 287 591 b 288 592 288 591 288 592 b 289 592 288 592 289 592 b 301 607 295 595 300 600 l 495 995 b 485 1023 500 1005 495 1018 b 457 1014 476 1028 462 1024 l 280 658 l 101 1014 b 82 1025 98 1021 90 1026 z m 259 393 l 259 21 b 280 0 259 10 269 0 b 301 21 291 0 301 10 l 301 196 l 476 196 b 497 217 487 196 497 206 b 476 238 497 228 487 238 l 301 238 l 301 393 l 476 393 b 497 414 487 393 497 403 b 476 435 497 425 487 435 l 285 435 b 276 435 282 436 279 436 l 83 435 b 80 435 82 435 81 435 b 58 415 69 436 59 426 b 79 393 58 404 68 394 b 83 393 80 393 82 393 z m 80 435 z "},"":{"ha":556,"x_min":0,"x_max":0,"o":"m 82 1025 b 64 995 68 1025 58 1008 l 260 605 b 261 603 260 604 261 603 l 261 602 b 266 596 263 600 264 598 b 266 596 266 596 266 596 b 267 595 267 595 267 595 b 268 594 267 595 267 595 b 269 593 268 594 268 594 b 269 593 269 593 269 593 b 273 592 270 593 272 592 b 273 591 273 592 273 591 b 275 591 274 591 274 591 b 280 590 276 591 278 590 l 281 590 b 286 591 283 590 284 591 b 287 591 286 591 287 591 b 288 592 288 591 288 592 b 289 592 288 592 289 592 b 301 607 295 595 300 600 l 495 995 b 485 1023 500 1005 495 1018 b 457 1014 476 1028 462 1024 l 280 658 l 101 1014 b 82 1025 98 1021 90 1026 z m 259 393 l 259 21 b 280 0 259 10 269 0 b 301 21 291 0 301 10 l 301 196 l 476 196 b 497 217 487 196 497 206 b 476 238 497 228 487 238 l 301 238 l 301 393 l 476 393 b 497 414 487 393 497 403 b 476 435 497 425 487 435 l 285 435 b 276 435 282 436 279 436 l 83 435 b 80 435 82 435 81 435 b 58 415 69 436 59 426 b 79 393 58 404 68 394 b 83 393 80 393 82 393 z m 80 435 z "},"":{"ha":556,"x_min":0,"x_max":0,"o":"m 82 1025 b 64 995 68 1025 58 1008 l 260 605 b 261 603 260 604 261 603 l 261 602 b 266 596 263 600 264 598 b 266 596 266 596 266 596 b 267 595 267 595 267 595 b 268 594 267 595 267 595 b 269 593 268 594 268 594 b 269 593 269 593 269 593 b 273 592 270 593 272 592 b 273 591 273 592 273 591 b 275 591 274 591 274 591 b 280 590 276 591 278 590 l 281 590 b 286 591 283 590 284 591 b 287 591 286 591 287 591 b 288 592 288 591 288 592 b 289 592 288 592 289 592 b 301 607 295 595 300 600 l 495 995 b 485 1023 500 1005 495 1018 b 457 1014 476 1028 462 1024 l 280 658 l 101 1014 b 82 1025 98 1021 90 1026 z m 259 393 l 259 21 b 280 0 259 10 269 0 b 301 21 291 0 301 10 l 301 196 l 476 196 b 497 217 487 196 497 206 b 476 238 497 228 487 238 l 301 238 l 301 393 l 476 393 b 497 414 487 393 497 403 b 476 435 497 425 487 435 l 285 435 b 276 435 282 436 279 436 l 83 435 b 80 435 82 435 81 435 b 58 415 69 436 59 426 b 79 393 58 404 68 394 b 83 393 80 393 82 393 z m 80 435 z "},"":{"ha":556,"x_min":0,"x_max":0,"o":"m 82 1025 b 64 995 68 1025 58 1008 l 260 605 b 261 603 260 604 261 603 l 261 602 b 266 596 263 600 264 598 b 266 596 266 596 266 596 b 267 595 267 595 267 595 b 268 594 267 595 267 595 b 269 593 268 594 268 594 b 269 593 269 593 269 593 b 273 592 270 593 272 592 b 273 591 273 592 273 591 b 275 591 274 591 274 591 b 280 590 276 591 278 590 l 281 590 b 286 591 283 590 284 591 b 287 591 286 591 287 591 b 288 592 288 591 288 592 b 289 592 288 592 289 592 b 301 607 295 595 300 600 l 495 995 b 485 1023 500 1005 495 1018 b 457 1014 476 1028 462 1024 l 280 658 l 101 1014 b 82 1025 98 1021 90 1026 z m 259 393 l 259 21 b 280 0 259 10 269 0 b 301 21 291 0 301 10 l 301 196 l 476 196 b 497 217 487 196 497 206 b 476 238 497 228 487 238 l 301 238 l 301 393 l 476 393 b 497 414 487 393 497 403 b 476 435 497 425 487 435 l 285 435 b 276 435 282 436 279 436 l 83 435 b 80 435 82 435 81 435 b 58 415 69 436 59 426 b 79 393 58 404 68 394 b 83 393 80 393 82 393 z m 80 435 z "},"":{"ha":556,"x_min":0,"x_max":0,"o":"m 82 1025 b 64 995 68 1025 58 1008 l 260 605 b 261 603 260 604 261 603 l 261 602 b 266 596 263 600 264 598 b 266 596 266 596 266 596 b 267 595 267 595 267 595 b 268 594 267 595 267 595 b 269 593 268 594 268 594 b 269 593 269 593 269 593 b 273 592 270 593 272 592 b 273 591 273 592 273 591 b 275 591 274 591 274 591 b 280 590 276 591 278 590 l 281 590 b 286 591 283 590 284 591 b 287 591 286 591 287 591 b 288 592 288 591 288 592 b 289 592 288 592 289 592 b 301 607 295 595 300 600 l 495 995 b 485 1023 500 1005 495 1018 b 457 1014 476 1028 462 1024 l 280 658 l 101 1014 b 82 1025 98 1021 90 1026 z m 259 393 l 259 21 b 280 0 259 10 269 0 b 301 21 291 0 301 10 l 301 196 l 476 196 b 497 217 487 196 497 206 b 476 238 497 228 487 238 l 301 238 l 301 393 l 476 393 b 497 414 487 393 497 403 b 476 435 497 425 487 435 l 285 435 b 276 435 282 436 279 436 l 83 435 b 80 435 82 435 81 435 b 58 415 69 436 59 426 b 79 393 58 404 68 394 b 83 393 80 393 82 393 z m 80 435 z "},"":{"ha":556,"x_min":0,"x_max":0,"o":"m 82 1025 b 64 995 68 1025 58 1008 l 260 605 b 261 603 260 604 261 603 l 261 602 b 266 596 263 600 264 598 b 266 596 266 596 266 596 b 267 595 267 595 267 595 b 268 594 267 595 267 595 b 269 593 268 594 268 594 b 269 593 269 593 269 593 b 273 592 270 593 272 592 b 273 591 273 592 273 591 b 275 591 274 591 274 591 b 280 590 276 591 278 590 l 281 590 b 286 591 283 590 284 591 b 287 591 286 591 287 591 b 288 592 288 591 288 592 b 289 592 288 592 289 592 b 301 607 295 595 300 600 l 495 995 b 485 1023 500 1005 495 1018 b 457 1014 476 1028 462 1024 l 280 658 l 101 1014 b 82 1025 98 1021 90 1026 z m 259 393 l 259 21 b 280 0 259 10 269 0 b 301 21 291 0 301 10 l 301 196 l 476 196 b 497 217 487 196 497 206 b 476 238 497 228 487 238 l 301 238 l 301 393 l 476 393 b 497 414 487 393 497 403 b 476 435 497 425 487 435 l 285 435 b 276 435 282 436 279 436 l 83 435 b 80 435 82 435 81 435 b 58 415 69 436 59 426 b 79 393 58 404 68 394 b 83 393 80 393 82 393 z m 80 435 z "},"":{"ha":556,"x_min":0,"x_max":0,"o":"m 82 1025 b 64 995 68 1025 58 1008 l 260 605 b 261 603 260 604 261 603 l 261 602 b 266 596 263 600 264 598 b 266 596 266 596 266 596 b 267 595 267 595 267 595 b 268 594 267 595 267 595 b 269 593 268 594 268 594 b 269 593 269 593 269 593 b 273 592 270 593 272 592 b 273 591 273 592 273 591 b 275 591 274 591 274 591 b 280 590 276 591 278 590 l 281 590 b 286 591 283 590 284 591 b 287 591 286 591 287 591 b 288 592 288 591 288 592 b 289 592 288 592 289 592 b 301 607 295 595 300 600 l 495 995 b 485 1023 500 1005 495 1018 b 457 1014 476 1028 462 1024 l 280 658 l 101 1014 b 82 1025 98 1021 90 1026 z m 259 393 l 259 21 b 280 0 259 10 269 0 b 301 21 291 0 301 10 l 301 196 l 476 196 b 497 217 487 196 497 206 b 476 238 497 228 487 238 l 301 238 l 301 393 l 476 393 b 497 414 487 393 497 403 b 476 435 497 425 487 435 l 285 435 b 276 435 282 436 279 436 l 83 435 b 80 435 82 435 81 435 b 58 415 69 436 59 426 b 79 393 58 404 68 394 b 83 393 80 393 82 393 z m 80 435 z "}}}
